M48
METRIC,TZ
T1C0.300
T2C0.500
T3C0.800
T4C1.000
T5C1.200
T6C3.200
%
G90
G05
T1
X125400Y-107600
X128600Y-95800
X133000Y-99400
X135400Y-82400
X136800Y-104000
X137200Y-89000
X137200Y-93000
X138200Y-102600
X138200Y-112600
X139800Y-96800
X142400Y-90400
X146000Y-78400
X147138Y-107338
X147800Y-96400
X148000Y-116200
X149800Y-85200
X149800Y-93200
X154800Y-81600
X155600Y-110600
X156000Y-85200
X159600Y-116400
X163200Y-99600
X166800Y-115000
X169800Y-120000
X170000Y-81200
X172600Y-103000
X177400Y-110600
X182800Y-90200
X189200Y-97600
T2
X120200Y-81297
X120400Y-117400
X120903Y-79600
X120903Y-82994
X121103Y-115703
X121103Y-119097
X122600Y-78897
X122600Y-83697
X122800Y-115000
X122800Y-119800
X124297Y-79600
X124297Y-82994
X124497Y-115703
X124497Y-119097
X125000Y-81297
X125200Y-117400
X186103Y-80697
X186800Y-118000
X186806Y-79000
X186806Y-82394
X187503Y-116303
X187503Y-119697
X188503Y-78297
X188503Y-83097
X189200Y-115600
X189200Y-120400
X190200Y-79000
X190200Y-82394
X190897Y-116303
X190897Y-119697
X190903Y-80697
X191600Y-118000
T3
X133180Y-109400
X133180Y-117020
X135720Y-109400
X135720Y-117020
X138260Y-109400
X138260Y-117020
X140800Y-109400
X140800Y-117020
T4
X166200Y-89040
X166200Y-91320
X166200Y-93600
X166200Y-103800
X166200Y-106080
X166200Y-108360
X189200Y-104200
X189200Y-106480
X189200Y-108760
T5
X123200Y-88120
X123200Y-90660
X123200Y-93200
X123200Y-98520
X123200Y-101060
X151800Y-96180
X151800Y-111420
X158600Y-96180
X158600Y-111420
X189400Y-89800
X189400Y-92340
T6
X122600Y-81297
X122800Y-117400
X188503Y-80697
X189200Y-118000
M30
