%TF.GenerationSoftware,KiCad,Pcbnew,8.0.8*%
%TF.CreationDate,2025-01-31T21:35:26+01:00*%
%TF.ProjectId,BufferCorrente,42756666-6572-4436-9f72-72656e74652e,rev?*%
%TF.SameCoordinates,Original*%
%TF.FileFunction,Copper,L2,Bot*%
%TF.FilePolarity,Positive*%
%FSLAX46Y46*%
G04 Gerber Fmt 4.6, Leading zero omitted, Abs format (unit mm)*
G04 Created by KiCad (PCBNEW 8.0.8) date 2025-01-31 21:35:26*
%MOMM*%
%LPD*%
G01*
G04 APERTURE LIST*
%TA.AperFunction,ComponentPad*%
%ADD10R,1.600000X1.600000*%
%TD*%
%TA.AperFunction,ComponentPad*%
%ADD11O,1.600000X1.600000*%
%TD*%
%TA.AperFunction,ComponentPad*%
%ADD12C,2.400000*%
%TD*%
%TA.AperFunction,ComponentPad*%
%ADD13O,2.400000X2.400000*%
%TD*%
%TA.AperFunction,ComponentPad*%
%ADD14R,1.800000X1.710000*%
%TD*%
%TA.AperFunction,ComponentPad*%
%ADD15O,1.800000X1.710000*%
%TD*%
%TA.AperFunction,ComponentPad*%
%ADD16R,2.000000X2.000000*%
%TD*%
%TA.AperFunction,ComponentPad*%
%ADD17C,2.000000*%
%TD*%
%TA.AperFunction,ComponentPad*%
%ADD18C,0.800000*%
%TD*%
%TA.AperFunction,ComponentPad*%
%ADD19C,6.400000*%
%TD*%
%TA.AperFunction,ViaPad*%
%ADD20C,0.600000*%
%TD*%
%TA.AperFunction,Conductor*%
%ADD21C,0.200000*%
%TD*%
%TA.AperFunction,Conductor*%
%ADD22C,1.500000*%
%TD*%
%ADD23C,0.300000*%
%ADD24C,0.350000*%
G04 APERTURE END LIST*
D10*
%TO.P,U1,1,VOS*%
%TO.N,unconnected-(U1-VOS-Pad1)*%
X133180000Y-117020000D03*
D11*
%TO.P,U1,2,-*%
%TO.N,Net-(J2-Pin_1)*%
X135720000Y-117020000D03*
%TO.P,U1,3,+*%
%TO.N,Net-(D1-A)*%
X138260000Y-117020000D03*
%TO.P,U1,4,V-*%
%TO.N,-16V*%
X140800000Y-117020000D03*
%TO.P,U1,5,NC*%
%TO.N,unconnected-(U1-NC-Pad5)*%
X140800000Y-109400000D03*
%TO.P,U1,6*%
%TO.N,Net-(Q1-C)*%
X138260000Y-109400000D03*
%TO.P,U1,7,V+*%
%TO.N,+16V*%
X135720000Y-109400000D03*
%TO.P,U1,8,VOS*%
%TO.N,unconnected-(U1-VOS-Pad8)*%
X133180000Y-109400000D03*
%TD*%
D12*
%TO.P,R11,1*%
%TO.N,Net-(J2-Pin_1)*%
X151800000Y-96180000D03*
D13*
%TO.P,R11,2*%
%TO.N,Net-(Q2-E)*%
X151800000Y-111420000D03*
%TD*%
D12*
%TO.P,R10,1*%
%TO.N,Net-(Q3-E)*%
X158600000Y-96180000D03*
D13*
%TO.P,R10,2*%
%TO.N,Net-(J2-Pin_1)*%
X158600000Y-111420000D03*
%TD*%
D14*
%TO.P,Q3,1,E*%
%TO.N,Net-(Q3-E)*%
X189200000Y-108760000D03*
D15*
%TO.P,Q3,2,C*%
%TO.N,+16V*%
X189200000Y-106480000D03*
%TO.P,Q3,3,B*%
%TO.N,Net-(D5-K)*%
X189200000Y-104200000D03*
%TD*%
D14*
%TO.P,Q2,1,E*%
%TO.N,Net-(Q2-E)*%
X166200000Y-103800000D03*
D15*
%TO.P,Q2,2,C*%
%TO.N,-16V*%
X166200000Y-106080000D03*
%TO.P,Q2,3,B*%
%TO.N,Net-(Q1-C)*%
X166200000Y-108360000D03*
%TD*%
%TO.P,Q1,3,B*%
%TO.N,Net-(D5-A)*%
X166200000Y-93600000D03*
%TO.P,Q1,2,C*%
%TO.N,Net-(Q1-C)*%
X166200000Y-91320000D03*
D14*
%TO.P,Q1,1,E*%
%TO.N,Net-(D5-K)*%
X166200000Y-89040000D03*
%TD*%
D16*
%TO.P,Power,1,Pin_1*%
%TO.N,GND*%
X123200000Y-93200000D03*
D17*
%TO.P,Power,2,Pin_2*%
%TO.N,VEE*%
X123200000Y-90660000D03*
%TO.P,Power,3,Pin_3*%
%TO.N,VCC*%
X123200000Y-88120000D03*
%TD*%
D16*
%TO.P,OUT,1,Pin_1*%
%TO.N,Net-(J2-Pin_1)*%
X189400000Y-92340000D03*
D17*
%TO.P,OUT,2,Pin_2*%
%TO.N,GND*%
X189400000Y-89800000D03*
%TD*%
D16*
%TO.P,SIG,1,Pin_1*%
%TO.N,GND*%
X123200000Y-101060000D03*
D17*
%TO.P,SIG,2,Pin_2*%
%TO.N,Net-(J1-Pin_2)*%
X123200000Y-98520000D03*
%TD*%
D18*
%TO.P,M3,1,1*%
%TO.N,GND*%
X186800000Y-118000000D03*
X187502944Y-116302944D03*
X187502944Y-119697056D03*
X189200000Y-115600000D03*
D19*
X189200000Y-118000000D03*
D18*
X189200000Y-120400000D03*
X190897056Y-116302944D03*
X190897056Y-119697056D03*
X191600000Y-118000000D03*
%TD*%
%TO.P,M3,1,1*%
%TO.N,GND*%
X186102944Y-80697056D03*
X186805888Y-79000000D03*
X186805888Y-82394112D03*
X188502944Y-78297056D03*
D19*
X188502944Y-80697056D03*
D18*
X188502944Y-83097056D03*
X190200000Y-79000000D03*
X190200000Y-82394112D03*
X190902944Y-80697056D03*
%TD*%
%TO.P,M3,1,1*%
%TO.N,GND*%
X120400000Y-117400000D03*
X121102944Y-115702944D03*
X121102944Y-119097056D03*
X122800000Y-115000000D03*
D19*
X122800000Y-117400000D03*
D18*
X122800000Y-119800000D03*
X124497056Y-115702944D03*
X124497056Y-119097056D03*
X125200000Y-117400000D03*
%TD*%
%TO.P,M3,1,1*%
%TO.N,GND*%
X125000000Y-81297056D03*
X124297056Y-82994112D03*
X124297056Y-79600000D03*
X122600000Y-83697056D03*
D19*
X122600000Y-81297056D03*
D18*
X122600000Y-78897056D03*
X120902944Y-82994112D03*
X120902944Y-79600000D03*
X120200000Y-81297056D03*
%TD*%
D20*
%TO.N,GND*%
X138200000Y-102600000D03*
X133000000Y-99400000D03*
X128600000Y-95800000D03*
X142400000Y-90400000D03*
X147800000Y-96400000D03*
X149800000Y-93200000D03*
X154800000Y-81600000D03*
X146000000Y-78400000D03*
X170000000Y-81200000D03*
X182800000Y-90200000D03*
X189200000Y-97600000D03*
X172600000Y-103000000D03*
X163200000Y-99600000D03*
X177400000Y-110600000D03*
X169800000Y-120000000D03*
X159600000Y-116400000D03*
X148000000Y-116200000D03*
X125400000Y-107600000D03*
X139800000Y-96800000D03*
X137200000Y-93000000D03*
X137200000Y-89000000D03*
X135400000Y-82400000D03*
%TO.N,+16V*%
X166800000Y-115000000D03*
%TO.N,Net-(Q1-C)*%
X155600000Y-110600000D03*
X147138235Y-107338235D03*
%TO.N,+16V*%
X149800000Y-85200000D03*
X156000000Y-85200000D03*
%TO.N,-16V*%
X136800000Y-104000000D03*
%TO.N,+16V*%
X138200000Y-112600000D03*
%TD*%
D21*
%TO.N,+16V*%
X166800000Y-115000000D02*
X180200000Y-115000000D01*
X180200000Y-115000000D02*
X188720000Y-106480000D01*
X188720000Y-106480000D02*
X189200000Y-106480000D01*
%TO.N,Net-(Q1-C)*%
X155600000Y-109800000D02*
X153000000Y-107200000D01*
X147276470Y-107200000D02*
X147138235Y-107338235D01*
X155600000Y-110600000D02*
X155600000Y-109800000D01*
X153000000Y-107200000D02*
X147276470Y-107200000D01*
D22*
%TO.N,Net-(J2-Pin_1)*%
X158600000Y-111420000D02*
X170320000Y-111420000D01*
X170320000Y-111420000D02*
X189400000Y-92340000D01*
D21*
%TO.N,+16V*%
X149800000Y-85200000D02*
X156000000Y-85200000D01*
%TO.N,-16V*%
X140800000Y-113835635D02*
X140800000Y-117020000D01*
X136800000Y-104000000D02*
X136820000Y-104020000D01*
X136820000Y-104020000D02*
X136820000Y-109855635D01*
X136820000Y-109855635D02*
X140800000Y-113835635D01*
%TO.N,+16V*%
X138200000Y-112600000D02*
X135720000Y-110120000D01*
X135720000Y-110120000D02*
X135720000Y-109400000D01*
%TO.N,Net-(J2-Pin_1)*%
X135720000Y-117020000D02*
X135720000Y-118120000D01*
X138200000Y-120600000D02*
X150600000Y-120600000D01*
X150600000Y-120600000D02*
X158600000Y-112600000D01*
X135720000Y-118120000D02*
X138200000Y-120600000D01*
%TO.N,Net-(Q1-C)*%
X166200000Y-91320000D02*
X166920000Y-91320000D01*
X166920000Y-91320000D02*
X168000000Y-92400000D01*
X168000000Y-92400000D02*
X168000000Y-107600000D01*
X168000000Y-107600000D02*
X167240000Y-108360000D01*
X167240000Y-108360000D02*
X166200000Y-108360000D01*
D22*
%TO.N,Net-(J2-Pin_1)*%
X158600000Y-111420000D02*
X158600000Y-102980000D01*
X158600000Y-102980000D02*
X151800000Y-96180000D01*
%TD*%
%TA.AperFunction,Conductor*%
%TO.N,GND*%
G36*
X192842539Y-76720185D02*
G01*
X192888294Y-76772989D01*
X192899500Y-76824500D01*
X192899500Y-116643897D01*
X192879815Y-116710936D01*
X192827011Y-116756691D01*
X192757853Y-116766635D01*
X192694297Y-116737610D01*
X192659736Y-116688335D01*
X192584755Y-116493005D01*
X192408689Y-116147456D01*
X192197476Y-115822216D01*
X192197475Y-115822214D01*
X191988902Y-115564650D01*
X190494251Y-117059301D01*
X190420412Y-116957670D01*
X190242330Y-116779588D01*
X190140698Y-116705748D01*
X191635349Y-115211096D01*
X191377785Y-115002525D01*
X191377783Y-115002523D01*
X191052543Y-114791310D01*
X190706994Y-114615244D01*
X190344936Y-114476262D01*
X189970330Y-114375887D01*
X189970323Y-114375886D01*
X189587287Y-114315219D01*
X189200001Y-114294922D01*
X189199999Y-114294922D01*
X188812712Y-114315219D01*
X188429676Y-114375886D01*
X188429669Y-114375887D01*
X188055063Y-114476262D01*
X187693005Y-114615244D01*
X187347456Y-114791310D01*
X187022206Y-115002531D01*
X186764649Y-115211095D01*
X186764649Y-115211096D01*
X188259301Y-116705748D01*
X188157670Y-116779588D01*
X187979588Y-116957670D01*
X187905748Y-117059301D01*
X186411096Y-115564649D01*
X186411095Y-115564649D01*
X186202531Y-115822206D01*
X185991310Y-116147456D01*
X185815244Y-116493005D01*
X185676262Y-116855063D01*
X185575887Y-117229669D01*
X185575886Y-117229676D01*
X185515219Y-117612712D01*
X185494922Y-117999999D01*
X185494922Y-118000000D01*
X185515219Y-118387287D01*
X185575886Y-118770323D01*
X185575887Y-118770330D01*
X185676262Y-119144936D01*
X185815244Y-119506994D01*
X185991310Y-119852543D01*
X186202523Y-120177783D01*
X186202525Y-120177785D01*
X186411096Y-120435348D01*
X187905747Y-118940697D01*
X187979588Y-119042330D01*
X188157670Y-119220412D01*
X188259301Y-119294251D01*
X186764650Y-120788902D01*
X187022214Y-120997475D01*
X187022216Y-120997476D01*
X187347456Y-121208689D01*
X187693005Y-121384755D01*
X188055063Y-121523737D01*
X188429669Y-121624112D01*
X188429676Y-121624113D01*
X188612227Y-121653027D01*
X188675362Y-121682956D01*
X188712293Y-121742268D01*
X188711295Y-121812130D01*
X188672685Y-121870363D01*
X188608722Y-121898477D01*
X188592829Y-121899500D01*
X118824500Y-121899500D01*
X118757461Y-121879815D01*
X118711706Y-121827011D01*
X118700500Y-121775500D01*
X118700500Y-117399999D01*
X119094922Y-117399999D01*
X119094922Y-117400000D01*
X119115219Y-117787287D01*
X119175886Y-118170323D01*
X119175887Y-118170330D01*
X119276262Y-118544936D01*
X119415244Y-118906994D01*
X119591310Y-119252543D01*
X119802523Y-119577783D01*
X119802525Y-119577785D01*
X120011096Y-119835348D01*
X121505747Y-118340697D01*
X121579588Y-118442330D01*
X121757670Y-118620412D01*
X121859301Y-118694251D01*
X120364650Y-120188902D01*
X120622214Y-120397475D01*
X120622216Y-120397476D01*
X120947456Y-120608689D01*
X121293005Y-120784755D01*
X121655063Y-120923737D01*
X122029669Y-121024112D01*
X122029676Y-121024113D01*
X122412712Y-121084780D01*
X122799999Y-121105078D01*
X122800001Y-121105078D01*
X123187287Y-121084780D01*
X123570323Y-121024113D01*
X123570330Y-121024112D01*
X123944936Y-120923737D01*
X124306994Y-120784755D01*
X124652543Y-120608689D01*
X124977771Y-120397484D01*
X124977784Y-120397474D01*
X125235348Y-120188902D01*
X123740698Y-118694252D01*
X123842330Y-118620412D01*
X124020412Y-118442330D01*
X124094252Y-118340698D01*
X125588902Y-119835348D01*
X125797474Y-119577784D01*
X125797484Y-119577771D01*
X126008689Y-119252543D01*
X126184755Y-118906994D01*
X126323737Y-118544936D01*
X126424112Y-118170330D01*
X126424113Y-118170323D01*
X126484780Y-117787287D01*
X126505078Y-117400000D01*
X126505078Y-117399999D01*
X126484780Y-117012712D01*
X126424113Y-116629676D01*
X126424112Y-116629669D01*
X126323737Y-116255063D01*
X126184755Y-115893005D01*
X126008689Y-115547456D01*
X125797476Y-115222216D01*
X125797475Y-115222214D01*
X125588902Y-114964650D01*
X124094251Y-116459301D01*
X124020412Y-116357670D01*
X123842330Y-116179588D01*
X123740698Y-116105748D01*
X125235349Y-114611096D01*
X124977785Y-114402525D01*
X124977783Y-114402523D01*
X124652543Y-114191310D01*
X124306994Y-114015244D01*
X123944936Y-113876262D01*
X123570330Y-113775887D01*
X123570323Y-113775886D01*
X123187287Y-113715219D01*
X122800001Y-113694922D01*
X122799999Y-113694922D01*
X122412712Y-113715219D01*
X122029676Y-113775886D01*
X122029669Y-113775887D01*
X121655063Y-113876262D01*
X121293005Y-114015244D01*
X120947456Y-114191310D01*
X120622206Y-114402531D01*
X120364649Y-114611095D01*
X120364649Y-114611096D01*
X121859301Y-116105748D01*
X121757670Y-116179588D01*
X121579588Y-116357670D01*
X121505748Y-116459301D01*
X120011096Y-114964649D01*
X120011095Y-114964649D01*
X119802531Y-115222206D01*
X119591310Y-115547456D01*
X119415244Y-115893005D01*
X119276262Y-116255063D01*
X119175887Y-116629669D01*
X119175886Y-116629676D01*
X119115219Y-117012712D01*
X119094922Y-117399999D01*
X118700500Y-117399999D01*
X118700500Y-109399998D01*
X131874532Y-109399998D01*
X131874532Y-109400001D01*
X131894364Y-109626686D01*
X131894366Y-109626697D01*
X131953258Y-109846488D01*
X131953261Y-109846497D01*
X132049431Y-110052732D01*
X132049432Y-110052734D01*
X132179954Y-110239141D01*
X132340858Y-110400045D01*
X132340861Y-110400047D01*
X132527266Y-110530568D01*
X132733504Y-110626739D01*
X132733509Y-110626740D01*
X132733511Y-110626741D01*
X132786415Y-110640916D01*
X132953308Y-110685635D01*
X133115230Y-110699801D01*
X133179998Y-110705468D01*
X133180000Y-110705468D01*
X133180002Y-110705468D01*
X133236673Y-110700509D01*
X133406692Y-110685635D01*
X133626496Y-110626739D01*
X133832734Y-110530568D01*
X134019139Y-110400047D01*
X134180047Y-110239139D01*
X134310568Y-110052734D01*
X134337618Y-109994724D01*
X134383790Y-109942285D01*
X134450983Y-109923133D01*
X134517865Y-109943348D01*
X134562382Y-109994725D01*
X134589429Y-110052728D01*
X134589432Y-110052734D01*
X134719954Y-110239141D01*
X134880858Y-110400045D01*
X134880861Y-110400047D01*
X135067266Y-110530568D01*
X135273504Y-110626739D01*
X135273506Y-110626739D01*
X135273513Y-110626742D01*
X135348295Y-110646778D01*
X135383475Y-110656205D01*
X135439064Y-110688299D01*
X137369298Y-112618534D01*
X137402783Y-112679857D01*
X137404837Y-112692331D01*
X137414630Y-112779249D01*
X137474210Y-112949521D01*
X137474211Y-112949522D01*
X137570184Y-113102262D01*
X137697738Y-113229816D01*
X137850478Y-113325789D01*
X137934287Y-113355115D01*
X138020745Y-113385368D01*
X138020750Y-113385369D01*
X138199996Y-113405565D01*
X138200000Y-113405565D01*
X138200004Y-113405565D01*
X138379249Y-113385369D01*
X138379252Y-113385368D01*
X138379255Y-113385368D01*
X138549522Y-113325789D01*
X138702262Y-113229816D01*
X138829816Y-113102262D01*
X138896647Y-112995900D01*
X138948982Y-112949610D01*
X139018035Y-112938962D01*
X139081884Y-112967337D01*
X139089322Y-112974192D01*
X140163181Y-114048051D01*
X140196666Y-114109374D01*
X140199500Y-114135732D01*
X140199500Y-115788306D01*
X140179815Y-115855345D01*
X140146623Y-115889881D01*
X139960859Y-116019953D01*
X139799954Y-116180858D01*
X139669432Y-116367265D01*
X139669431Y-116367267D01*
X139642382Y-116425275D01*
X139596209Y-116477714D01*
X139529016Y-116496866D01*
X139462135Y-116476650D01*
X139417618Y-116425275D01*
X139390568Y-116367267D01*
X139390567Y-116367265D01*
X139260045Y-116180858D01*
X139099141Y-116019954D01*
X138912734Y-115889432D01*
X138912732Y-115889431D01*
X138706497Y-115793261D01*
X138706488Y-115793258D01*
X138486697Y-115734366D01*
X138486693Y-115734365D01*
X138486692Y-115734365D01*
X138486691Y-115734364D01*
X138486686Y-115734364D01*
X138260002Y-115714532D01*
X138259998Y-115714532D01*
X138033313Y-115734364D01*
X138033302Y-115734366D01*
X137813511Y-115793258D01*
X137813502Y-115793261D01*
X137607267Y-115889431D01*
X137607265Y-115889432D01*
X137420858Y-116019954D01*
X137259954Y-116180858D01*
X137129432Y-116367265D01*
X137129431Y-116367267D01*
X137102382Y-116425275D01*
X137056209Y-116477714D01*
X136989016Y-116496866D01*
X136922135Y-116476650D01*
X136877618Y-116425275D01*
X136850568Y-116367267D01*
X136850567Y-116367265D01*
X136720045Y-116180858D01*
X136559141Y-116019954D01*
X136372734Y-115889432D01*
X136372732Y-115889431D01*
X136166497Y-115793261D01*
X136166488Y-115793258D01*
X135946697Y-115734366D01*
X135946693Y-115734365D01*
X135946692Y-115734365D01*
X135946691Y-115734364D01*
X135946686Y-115734364D01*
X135720002Y-115714532D01*
X135719998Y-115714532D01*
X135493313Y-115734364D01*
X135493302Y-115734366D01*
X135273511Y-115793258D01*
X135273502Y-115793261D01*
X135067267Y-115889431D01*
X135067265Y-115889432D01*
X134880858Y-116019954D01*
X134719954Y-116180858D01*
X134702725Y-116205464D01*
X134648147Y-116249088D01*
X134578648Y-116256280D01*
X134516294Y-116224757D01*
X134480882Y-116164526D01*
X134477861Y-116147591D01*
X134477846Y-116147456D01*
X134474091Y-116112517D01*
X134439567Y-116019954D01*
X134423797Y-115977671D01*
X134423793Y-115977664D01*
X134337547Y-115862455D01*
X134337544Y-115862452D01*
X134222335Y-115776206D01*
X134222328Y-115776202D01*
X134087482Y-115725908D01*
X134087483Y-115725908D01*
X134027883Y-115719501D01*
X134027881Y-115719500D01*
X134027873Y-115719500D01*
X134027864Y-115719500D01*
X132332129Y-115719500D01*
X132332123Y-115719501D01*
X132272516Y-115725908D01*
X132137671Y-115776202D01*
X132137664Y-115776206D01*
X132022455Y-115862452D01*
X132022452Y-115862455D01*
X131936206Y-115977664D01*
X131936202Y-115977671D01*
X131885908Y-116112517D01*
X131879501Y-116172116D01*
X131879500Y-116172135D01*
X131879500Y-117867870D01*
X131879501Y-117867876D01*
X131885908Y-117927483D01*
X131936202Y-118062328D01*
X131936206Y-118062335D01*
X132022452Y-118177544D01*
X132022455Y-118177547D01*
X132137664Y-118263793D01*
X132137671Y-118263797D01*
X132272517Y-118314091D01*
X132272516Y-118314091D01*
X132279444Y-118314835D01*
X132332127Y-118320500D01*
X134027872Y-118320499D01*
X134087483Y-118314091D01*
X134222331Y-118263796D01*
X134337546Y-118177546D01*
X134423796Y-118062331D01*
X134474091Y-117927483D01*
X134477862Y-117892401D01*
X134504599Y-117827855D01*
X134561990Y-117788006D01*
X134631816Y-117785511D01*
X134691905Y-117821163D01*
X134702726Y-117834536D01*
X134719956Y-117859143D01*
X134880858Y-118020045D01*
X135067262Y-118150566D01*
X135069204Y-118151687D01*
X135069888Y-118152404D01*
X135071701Y-118153674D01*
X135071445Y-118154038D01*
X135117421Y-118202253D01*
X135126980Y-118226978D01*
X135148057Y-118305635D01*
X135160423Y-118351785D01*
X135189358Y-118401900D01*
X135189359Y-118401904D01*
X135189360Y-118401904D01*
X135239479Y-118488714D01*
X135239481Y-118488717D01*
X135358349Y-118607585D01*
X135358354Y-118607589D01*
X137831284Y-121080520D01*
X137831286Y-121080521D01*
X137831290Y-121080524D01*
X137968209Y-121159573D01*
X137968216Y-121159577D01*
X138120943Y-121200501D01*
X138120945Y-121200501D01*
X138286654Y-121200501D01*
X138286670Y-121200500D01*
X150513331Y-121200500D01*
X150513347Y-121200501D01*
X150520943Y-121200501D01*
X150679054Y-121200501D01*
X150679057Y-121200501D01*
X150831785Y-121159577D01*
X150881904Y-121130639D01*
X150968716Y-121080520D01*
X151080520Y-120968716D01*
X151080520Y-120968714D01*
X151090728Y-120958507D01*
X151090730Y-120958504D01*
X157049237Y-114999996D01*
X165994435Y-114999996D01*
X165994435Y-115000003D01*
X166014630Y-115179249D01*
X166014631Y-115179254D01*
X166074211Y-115349523D01*
X166170184Y-115502262D01*
X166297738Y-115629816D01*
X166388080Y-115686582D01*
X166440470Y-115719501D01*
X166450478Y-115725789D01*
X166474990Y-115734366D01*
X166620745Y-115785368D01*
X166620750Y-115785369D01*
X166799996Y-115805565D01*
X166800000Y-115805565D01*
X166800004Y-115805565D01*
X166979249Y-115785369D01*
X166979252Y-115785368D01*
X166979255Y-115785368D01*
X167149522Y-115725789D01*
X167302262Y-115629816D01*
X167302267Y-115629810D01*
X167305097Y-115627555D01*
X167307275Y-115626665D01*
X167308158Y-115626111D01*
X167308255Y-115626265D01*
X167369783Y-115601145D01*
X167382412Y-115600500D01*
X180113331Y-115600500D01*
X180113347Y-115600501D01*
X180120943Y-115600501D01*
X180279054Y-115600501D01*
X180279057Y-115600501D01*
X180431785Y-115559577D01*
X180481904Y-115530639D01*
X180568716Y-115480520D01*
X180680520Y-115368716D01*
X180680520Y-115368714D01*
X180690728Y-115358507D01*
X180690729Y-115358504D01*
X187587821Y-108461413D01*
X187649142Y-108427930D01*
X187718834Y-108432914D01*
X187774767Y-108474786D01*
X187799184Y-108540250D01*
X187799500Y-108549096D01*
X187799500Y-109662870D01*
X187799501Y-109662876D01*
X187805908Y-109722483D01*
X187856202Y-109857328D01*
X187856206Y-109857335D01*
X187942452Y-109972544D01*
X187942455Y-109972547D01*
X188057664Y-110058793D01*
X188057671Y-110058797D01*
X188192517Y-110109091D01*
X188192516Y-110109091D01*
X188199444Y-110109835D01*
X188252127Y-110115500D01*
X190147872Y-110115499D01*
X190207483Y-110109091D01*
X190342331Y-110058796D01*
X190457546Y-109972546D01*
X190543796Y-109857331D01*
X190594091Y-109722483D01*
X190600500Y-109662873D01*
X190600499Y-107857128D01*
X190594091Y-107797517D01*
X190549908Y-107679057D01*
X190543797Y-107662671D01*
X190543793Y-107662664D01*
X190457547Y-107547455D01*
X190457544Y-107547452D01*
X190352924Y-107469133D01*
X190311053Y-107413199D01*
X190306069Y-107343508D01*
X190326915Y-107296985D01*
X190404327Y-107190437D01*
X190501191Y-107000331D01*
X190567123Y-106797414D01*
X190600500Y-106586680D01*
X190600500Y-106373320D01*
X190567123Y-106162586D01*
X190501191Y-105959669D01*
X190501189Y-105959666D01*
X190501189Y-105959664D01*
X190404326Y-105769562D01*
X190399257Y-105762585D01*
X190278917Y-105596951D01*
X190128049Y-105446083D01*
X190120112Y-105440316D01*
X190077448Y-105384989D01*
X190071469Y-105315376D01*
X190104074Y-105253580D01*
X190120111Y-105239684D01*
X190128049Y-105233917D01*
X190278917Y-105083049D01*
X190404327Y-104910437D01*
X190501191Y-104720331D01*
X190567123Y-104517414D01*
X190600500Y-104306680D01*
X190600500Y-104093320D01*
X190567123Y-103882586D01*
X190501191Y-103679669D01*
X190501189Y-103679666D01*
X190501189Y-103679664D01*
X190421353Y-103522978D01*
X190404327Y-103489563D01*
X190278917Y-103316951D01*
X190128049Y-103166083D01*
X189955437Y-103040673D01*
X189765335Y-102943810D01*
X189562414Y-102877877D01*
X189351680Y-102844500D01*
X189048320Y-102844500D01*
X188942953Y-102861188D01*
X188837585Y-102877877D01*
X188634664Y-102943810D01*
X188444562Y-103040673D01*
X188346081Y-103112224D01*
X188271951Y-103166083D01*
X188271949Y-103166085D01*
X188271948Y-103166085D01*
X188121085Y-103316948D01*
X188121085Y-103316949D01*
X188121083Y-103316951D01*
X188082407Y-103370184D01*
X187995673Y-103489562D01*
X187898810Y-103679664D01*
X187832877Y-103882585D01*
X187799500Y-104093320D01*
X187799500Y-104306679D01*
X187832877Y-104517414D01*
X187898810Y-104720335D01*
X187988994Y-104897328D01*
X187995673Y-104910437D01*
X188121083Y-105083049D01*
X188271951Y-105233917D01*
X188279889Y-105239684D01*
X188322553Y-105295016D01*
X188328529Y-105364629D01*
X188295922Y-105426423D01*
X188279891Y-105440313D01*
X188274785Y-105444023D01*
X188271948Y-105446085D01*
X188121085Y-105596948D01*
X188121085Y-105596949D01*
X188121083Y-105596951D01*
X188067224Y-105671081D01*
X187995673Y-105769562D01*
X187898810Y-105959664D01*
X187832877Y-106162585D01*
X187799500Y-106373320D01*
X187799500Y-106499902D01*
X187779815Y-106566941D01*
X187763181Y-106587583D01*
X179987584Y-114363181D01*
X179926261Y-114396666D01*
X179899903Y-114399500D01*
X167382412Y-114399500D01*
X167315373Y-114379815D01*
X167305097Y-114372445D01*
X167302263Y-114370185D01*
X167302262Y-114370184D01*
X167214786Y-114315219D01*
X167149523Y-114274211D01*
X166979254Y-114214631D01*
X166979249Y-114214630D01*
X166800004Y-114194435D01*
X166799996Y-114194435D01*
X166620750Y-114214630D01*
X166620745Y-114214631D01*
X166450476Y-114274211D01*
X166297737Y-114370184D01*
X166170184Y-114497737D01*
X166074211Y-114650476D01*
X166014631Y-114820745D01*
X166014630Y-114820750D01*
X165994435Y-114999996D01*
X157049237Y-114999996D01*
X158939295Y-113109938D01*
X158990422Y-113079130D01*
X159223004Y-113007389D01*
X159452634Y-112896805D01*
X159663217Y-112753232D01*
X159716707Y-112703600D01*
X159779238Y-112672433D01*
X159801047Y-112670500D01*
X170418422Y-112670500D01*
X170612826Y-112639709D01*
X170800026Y-112578884D01*
X170975405Y-112489524D01*
X171134646Y-112373828D01*
X189631656Y-93876818D01*
X189692979Y-93843333D01*
X189719337Y-93840499D01*
X190447871Y-93840499D01*
X190447872Y-93840499D01*
X190507483Y-93834091D01*
X190642331Y-93783796D01*
X190757546Y-93697546D01*
X190843796Y-93582331D01*
X190894091Y-93447483D01*
X190900500Y-93387873D01*
X190900499Y-91292128D01*
X190894091Y-91232517D01*
X190844587Y-91099791D01*
X190843797Y-91097671D01*
X190843793Y-91097664D01*
X190757547Y-90982455D01*
X190757544Y-90982452D01*
X190642333Y-90896204D01*
X190637197Y-90893400D01*
X190587793Y-90843994D01*
X190572942Y-90775721D01*
X190592817Y-90716747D01*
X190723733Y-90516364D01*
X190823587Y-90288717D01*
X190884612Y-90047738D01*
X190884614Y-90047729D01*
X190905141Y-89800000D01*
X190905141Y-89799994D01*
X190884614Y-89552270D01*
X190884612Y-89552261D01*
X190823587Y-89311282D01*
X190723732Y-89083632D01*
X190623435Y-88930116D01*
X189964612Y-89588939D01*
X189959111Y-89568409D01*
X189880119Y-89431592D01*
X189768408Y-89319881D01*
X189631591Y-89240889D01*
X189611058Y-89235387D01*
X190270055Y-88576389D01*
X190270055Y-88576388D01*
X190223236Y-88539947D01*
X190223231Y-88539944D01*
X190004614Y-88421635D01*
X190004603Y-88421630D01*
X189769493Y-88340916D01*
X189524293Y-88300000D01*
X189275707Y-88300000D01*
X189030506Y-88340916D01*
X188795396Y-88421630D01*
X188795385Y-88421635D01*
X188576770Y-88539943D01*
X188529943Y-88576389D01*
X189188941Y-89235387D01*
X189168409Y-89240889D01*
X189031592Y-89319881D01*
X188919881Y-89431592D01*
X188840889Y-89568409D01*
X188835387Y-89588941D01*
X188176563Y-88930117D01*
X188076267Y-89083633D01*
X188076265Y-89083637D01*
X187976412Y-89311282D01*
X187915387Y-89552261D01*
X187915385Y-89552270D01*
X187894859Y-89799994D01*
X187894859Y-89800000D01*
X187915385Y-90047729D01*
X187915387Y-90047738D01*
X187976412Y-90288717D01*
X188076267Y-90516367D01*
X188207182Y-90716748D01*
X188227369Y-90783637D01*
X188208189Y-90850823D01*
X188162806Y-90893398D01*
X188157667Y-90896204D01*
X188042455Y-90982452D01*
X188042452Y-90982455D01*
X187956206Y-91097664D01*
X187956202Y-91097671D01*
X187905908Y-91232517D01*
X187899501Y-91292116D01*
X187899501Y-91292123D01*
X187899500Y-91292135D01*
X187899500Y-92020662D01*
X187879815Y-92087701D01*
X187863181Y-92108343D01*
X169838345Y-110133181D01*
X169777022Y-110166666D01*
X169750664Y-110169500D01*
X159974500Y-110169500D01*
X159907461Y-110149815D01*
X159861706Y-110097011D01*
X159850500Y-110045500D01*
X159850500Y-102881579D01*
X159843521Y-102837519D01*
X159843521Y-102837518D01*
X159843521Y-102837517D01*
X159819709Y-102687173D01*
X159758884Y-102499974D01*
X159669524Y-102324595D01*
X159553828Y-102165354D01*
X153568469Y-96179995D01*
X156894732Y-96179995D01*
X156894732Y-96180004D01*
X156913777Y-96434154D01*
X156913778Y-96434157D01*
X156970492Y-96682637D01*
X157063607Y-96919888D01*
X157191041Y-97140612D01*
X157349950Y-97339877D01*
X157536783Y-97513232D01*
X157747366Y-97656805D01*
X157747371Y-97656807D01*
X157747372Y-97656808D01*
X157747373Y-97656809D01*
X157869328Y-97715538D01*
X157976992Y-97767387D01*
X157976993Y-97767387D01*
X157976996Y-97767389D01*
X158220542Y-97842513D01*
X158472565Y-97880500D01*
X158727435Y-97880500D01*
X158979458Y-97842513D01*
X159223004Y-97767389D01*
X159452634Y-97656805D01*
X159663217Y-97513232D01*
X159850050Y-97339877D01*
X160008959Y-97140612D01*
X160136393Y-96919888D01*
X160229508Y-96682637D01*
X160286222Y-96434157D01*
X160305268Y-96180000D01*
X160297990Y-96082884D01*
X160286222Y-95925845D01*
X160229509Y-95677369D01*
X160229508Y-95677363D01*
X160136393Y-95440112D01*
X160008959Y-95219388D01*
X159850050Y-95020123D01*
X159663217Y-94846768D01*
X159452634Y-94703195D01*
X159452630Y-94703193D01*
X159452627Y-94703191D01*
X159452626Y-94703190D01*
X159223006Y-94592612D01*
X159223008Y-94592612D01*
X158979466Y-94517489D01*
X158979462Y-94517488D01*
X158979458Y-94517487D01*
X158858231Y-94499214D01*
X158727440Y-94479500D01*
X158727435Y-94479500D01*
X158472565Y-94479500D01*
X158472559Y-94479500D01*
X158315609Y-94503157D01*
X158220542Y-94517487D01*
X158220539Y-94517488D01*
X158220533Y-94517489D01*
X157976992Y-94592612D01*
X157747373Y-94703190D01*
X157747372Y-94703191D01*
X157536782Y-94846768D01*
X157349952Y-95020121D01*
X157349950Y-95020123D01*
X157191041Y-95219388D01*
X157063608Y-95440109D01*
X156970492Y-95677362D01*
X156970490Y-95677369D01*
X156913777Y-95925845D01*
X156894732Y-96179995D01*
X153568469Y-96179995D01*
X153532681Y-96144207D01*
X153499196Y-96082884D01*
X153496709Y-96065791D01*
X153486222Y-95925845D01*
X153429509Y-95677369D01*
X153429508Y-95677363D01*
X153336393Y-95440112D01*
X153208959Y-95219388D01*
X153050050Y-95020123D01*
X152863217Y-94846768D01*
X152652634Y-94703195D01*
X152652630Y-94703193D01*
X152652627Y-94703191D01*
X152652626Y-94703190D01*
X152423006Y-94592612D01*
X152423008Y-94592612D01*
X152179466Y-94517489D01*
X152179462Y-94517488D01*
X152179458Y-94517487D01*
X152058231Y-94499214D01*
X151927440Y-94479500D01*
X151927435Y-94479500D01*
X151672565Y-94479500D01*
X151672559Y-94479500D01*
X151515609Y-94503157D01*
X151420542Y-94517487D01*
X151420539Y-94517488D01*
X151420533Y-94517489D01*
X151176992Y-94592612D01*
X150947373Y-94703190D01*
X150947372Y-94703191D01*
X150736782Y-94846768D01*
X150549952Y-95020121D01*
X150549950Y-95020123D01*
X150391041Y-95219388D01*
X150263608Y-95440109D01*
X150170492Y-95677362D01*
X150170490Y-95677369D01*
X150113777Y-95925845D01*
X150094732Y-96179995D01*
X150094732Y-96180004D01*
X150113777Y-96434154D01*
X150113778Y-96434157D01*
X150170492Y-96682637D01*
X150263607Y-96919888D01*
X150391041Y-97140612D01*
X150549950Y-97339877D01*
X150736783Y-97513232D01*
X150947366Y-97656805D01*
X150947371Y-97656807D01*
X150947372Y-97656808D01*
X150947373Y-97656809D01*
X151069328Y-97715538D01*
X151176992Y-97767387D01*
X151176993Y-97767387D01*
X151176996Y-97767389D01*
X151420542Y-97842513D01*
X151672565Y-97880500D01*
X151680664Y-97880500D01*
X151747703Y-97900185D01*
X151768345Y-97916819D01*
X157313181Y-103461655D01*
X157346666Y-103522978D01*
X157349500Y-103549336D01*
X157349500Y-110217297D01*
X157329815Y-110284336D01*
X157322447Y-110294610D01*
X157191041Y-110459388D01*
X157063608Y-110680109D01*
X156970492Y-110917362D01*
X156970490Y-110917369D01*
X156913777Y-111165845D01*
X156894732Y-111419995D01*
X156894732Y-111420004D01*
X156913777Y-111674154D01*
X156913778Y-111674157D01*
X156970492Y-111922637D01*
X157063607Y-112159888D01*
X157191041Y-112380612D01*
X157349950Y-112579877D01*
X157471147Y-112692331D01*
X157473930Y-112694913D01*
X157509685Y-112754942D01*
X157507310Y-112824771D01*
X157477270Y-112873493D01*
X150387584Y-119963181D01*
X150326261Y-119996666D01*
X150299903Y-119999500D01*
X138500098Y-119999500D01*
X138433059Y-119979815D01*
X138412417Y-119963181D01*
X136601892Y-118152656D01*
X136568407Y-118091333D01*
X136573391Y-118021641D01*
X136601890Y-117977295D01*
X136720047Y-117859139D01*
X136850568Y-117672734D01*
X136877618Y-117614724D01*
X136923790Y-117562285D01*
X136990983Y-117543133D01*
X137057865Y-117563348D01*
X137102382Y-117614725D01*
X137129429Y-117672728D01*
X137129432Y-117672734D01*
X137259954Y-117859141D01*
X137420858Y-118020045D01*
X137420861Y-118020047D01*
X137607266Y-118150568D01*
X137813504Y-118246739D01*
X138033308Y-118305635D01*
X138195230Y-118319801D01*
X138259998Y-118325468D01*
X138260000Y-118325468D01*
X138260002Y-118325468D01*
X138316807Y-118320498D01*
X138486692Y-118305635D01*
X138706496Y-118246739D01*
X138912734Y-118150568D01*
X139099139Y-118020047D01*
X139260047Y-117859139D01*
X139390568Y-117672734D01*
X139417618Y-117614724D01*
X139463790Y-117562285D01*
X139530983Y-117543133D01*
X139597865Y-117563348D01*
X139642382Y-117614725D01*
X139669429Y-117672728D01*
X139669432Y-117672734D01*
X139799954Y-117859141D01*
X139960858Y-118020045D01*
X139960861Y-118020047D01*
X140147266Y-118150568D01*
X140353504Y-118246739D01*
X140573308Y-118305635D01*
X140735230Y-118319801D01*
X140799998Y-118325468D01*
X140800000Y-118325468D01*
X140800002Y-118325468D01*
X140856807Y-118320498D01*
X141026692Y-118305635D01*
X141246496Y-118246739D01*
X141452734Y-118150568D01*
X141639139Y-118020047D01*
X141800047Y-117859139D01*
X141930568Y-117672734D01*
X142026739Y-117466496D01*
X142085635Y-117246692D01*
X142105468Y-117020000D01*
X142104830Y-117012712D01*
X142085635Y-116793313D01*
X142085635Y-116793308D01*
X142026739Y-116573504D01*
X141930568Y-116367266D01*
X141800047Y-116180861D01*
X141800045Y-116180858D01*
X141639140Y-116019953D01*
X141453377Y-115889881D01*
X141409752Y-115835304D01*
X141400500Y-115788306D01*
X141400500Y-113924694D01*
X141400501Y-113924681D01*
X141400501Y-113756580D01*
X141400501Y-113756578D01*
X141359577Y-113603850D01*
X141330639Y-113553730D01*
X141280520Y-113466919D01*
X141168716Y-113355115D01*
X141168715Y-113355114D01*
X141164385Y-113350784D01*
X141164374Y-113350774D01*
X139233595Y-111419995D01*
X150094732Y-111419995D01*
X150094732Y-111420004D01*
X150113777Y-111674154D01*
X150113778Y-111674157D01*
X150170492Y-111922637D01*
X150263607Y-112159888D01*
X150391041Y-112380612D01*
X150549950Y-112579877D01*
X150736783Y-112753232D01*
X150947366Y-112896805D01*
X150947371Y-112896807D01*
X150947372Y-112896808D01*
X150947373Y-112896809D01*
X151034906Y-112938962D01*
X151176992Y-113007387D01*
X151176993Y-113007387D01*
X151176996Y-113007389D01*
X151420542Y-113082513D01*
X151672565Y-113120500D01*
X151927435Y-113120500D01*
X152179458Y-113082513D01*
X152423004Y-113007389D01*
X152652634Y-112896805D01*
X152863217Y-112753232D01*
X153050050Y-112579877D01*
X153208959Y-112380612D01*
X153336393Y-112159888D01*
X153429508Y-111922637D01*
X153486222Y-111674157D01*
X153505268Y-111420000D01*
X153504186Y-111405565D01*
X153486222Y-111165845D01*
X153429509Y-110917369D01*
X153429508Y-110917363D01*
X153336393Y-110680112D01*
X153208959Y-110459388D01*
X153050050Y-110260123D01*
X152863217Y-110086768D01*
X152652634Y-109943195D01*
X152652630Y-109943193D01*
X152652627Y-109943191D01*
X152652626Y-109943190D01*
X152423006Y-109832612D01*
X152423008Y-109832612D01*
X152179466Y-109757489D01*
X152179462Y-109757488D01*
X152179458Y-109757487D01*
X152058231Y-109739214D01*
X151927440Y-109719500D01*
X151927435Y-109719500D01*
X151672565Y-109719500D01*
X151672559Y-109719500D01*
X151515609Y-109743157D01*
X151420542Y-109757487D01*
X151420539Y-109757488D01*
X151420533Y-109757489D01*
X151176992Y-109832612D01*
X150947373Y-109943190D01*
X150947372Y-109943191D01*
X150736782Y-110086768D01*
X150549952Y-110260121D01*
X150549950Y-110260123D01*
X150391041Y-110459388D01*
X150263608Y-110680109D01*
X150170492Y-110917362D01*
X150170490Y-110917369D01*
X150113777Y-111165845D01*
X150094732Y-111419995D01*
X139233595Y-111419995D01*
X138648453Y-110834853D01*
X138614968Y-110773530D01*
X138619952Y-110703838D01*
X138661824Y-110647905D01*
X138701428Y-110628666D01*
X138701402Y-110628593D01*
X138702107Y-110628336D01*
X138704041Y-110627396D01*
X138706496Y-110626739D01*
X138912734Y-110530568D01*
X139099139Y-110400047D01*
X139260047Y-110239139D01*
X139390568Y-110052734D01*
X139417618Y-109994724D01*
X139463790Y-109942285D01*
X139530983Y-109923133D01*
X139597865Y-109943348D01*
X139642382Y-109994725D01*
X139669429Y-110052728D01*
X139669432Y-110052734D01*
X139799954Y-110239141D01*
X139960858Y-110400045D01*
X139960861Y-110400047D01*
X140147266Y-110530568D01*
X140353504Y-110626739D01*
X140353509Y-110626740D01*
X140353511Y-110626741D01*
X140406415Y-110640916D01*
X140573308Y-110685635D01*
X140735230Y-110699801D01*
X140799998Y-110705468D01*
X140800000Y-110705468D01*
X140800002Y-110705468D01*
X140856673Y-110700509D01*
X141026692Y-110685635D01*
X141246496Y-110626739D01*
X141452734Y-110530568D01*
X141639139Y-110400047D01*
X141800047Y-110239139D01*
X141930568Y-110052734D01*
X142026739Y-109846496D01*
X142085635Y-109626692D01*
X142105468Y-109400000D01*
X142085635Y-109173308D01*
X142026739Y-108953504D01*
X141930568Y-108747266D01*
X141800047Y-108560861D01*
X141800045Y-108560858D01*
X141639141Y-108399954D01*
X141452734Y-108269432D01*
X141452732Y-108269431D01*
X141246497Y-108173261D01*
X141246488Y-108173258D01*
X141026697Y-108114366D01*
X141026693Y-108114365D01*
X141026692Y-108114365D01*
X141026691Y-108114364D01*
X141026686Y-108114364D01*
X140800002Y-108094532D01*
X140799998Y-108094532D01*
X140573313Y-108114364D01*
X140573302Y-108114366D01*
X140353511Y-108173258D01*
X140353502Y-108173261D01*
X140147267Y-108269431D01*
X140147265Y-108269432D01*
X139960858Y-108399954D01*
X139799954Y-108560858D01*
X139669432Y-108747265D01*
X139669431Y-108747267D01*
X139642382Y-108805275D01*
X139596209Y-108857714D01*
X139529016Y-108876866D01*
X139462135Y-108856650D01*
X139417618Y-108805275D01*
X139390568Y-108747267D01*
X139390567Y-108747265D01*
X139370426Y-108718501D01*
X139260047Y-108560861D01*
X139260045Y-108560858D01*
X139099141Y-108399954D01*
X138912734Y-108269432D01*
X138912732Y-108269431D01*
X138706497Y-108173261D01*
X138706488Y-108173258D01*
X138486697Y-108114366D01*
X138486693Y-108114365D01*
X138486692Y-108114365D01*
X138486691Y-108114364D01*
X138486686Y-108114364D01*
X138260002Y-108094532D01*
X138259998Y-108094532D01*
X138033313Y-108114364D01*
X138033302Y-108114366D01*
X137813511Y-108173258D01*
X137813502Y-108173261D01*
X137607261Y-108269434D01*
X137606493Y-108269878D01*
X137606111Y-108269970D01*
X137602360Y-108271720D01*
X137602008Y-108270965D01*
X137538592Y-108286346D01*
X137472567Y-108263490D01*
X137429380Y-108208566D01*
X137420500Y-108162487D01*
X137420500Y-107338231D01*
X146332670Y-107338231D01*
X146332670Y-107338238D01*
X146352865Y-107517484D01*
X146352866Y-107517489D01*
X146412446Y-107687758D01*
X146506108Y-107836819D01*
X146508419Y-107840497D01*
X146635973Y-107968051D01*
X146726315Y-108024817D01*
X146754594Y-108042586D01*
X146788713Y-108064024D01*
X146932579Y-108114365D01*
X146958980Y-108123603D01*
X146958985Y-108123604D01*
X147138231Y-108143800D01*
X147138235Y-108143800D01*
X147138239Y-108143800D01*
X147317484Y-108123604D01*
X147317487Y-108123603D01*
X147317490Y-108123603D01*
X147487757Y-108064024D01*
X147640497Y-107968051D01*
X147768051Y-107840497D01*
X147768051Y-107840496D01*
X147771729Y-107836819D01*
X147833052Y-107803334D01*
X147859410Y-107800500D01*
X152699903Y-107800500D01*
X152766942Y-107820185D01*
X152787584Y-107836819D01*
X154930482Y-109979717D01*
X154963967Y-110041040D01*
X154958983Y-110110732D01*
X154947795Y-110133370D01*
X154874211Y-110250476D01*
X154814631Y-110420745D01*
X154814630Y-110420750D01*
X154794435Y-110599996D01*
X154794435Y-110600003D01*
X154814630Y-110779249D01*
X154814631Y-110779254D01*
X154874211Y-110949523D01*
X154970184Y-111102262D01*
X155097738Y-111229816D01*
X155250478Y-111325789D01*
X155420745Y-111385368D01*
X155420750Y-111385369D01*
X155599996Y-111405565D01*
X155600000Y-111405565D01*
X155600004Y-111405565D01*
X155779249Y-111385369D01*
X155779252Y-111385368D01*
X155779255Y-111385368D01*
X155949522Y-111325789D01*
X156102262Y-111229816D01*
X156229816Y-111102262D01*
X156325789Y-110949522D01*
X156385368Y-110779255D01*
X156393682Y-110705468D01*
X156405565Y-110600003D01*
X156405565Y-110599996D01*
X156385369Y-110420750D01*
X156385368Y-110420745D01*
X156325788Y-110250476D01*
X156252086Y-110133181D01*
X156229816Y-110097738D01*
X156229814Y-110097736D01*
X156229813Y-110097734D01*
X156227550Y-110094896D01*
X156226659Y-110092715D01*
X156226111Y-110091842D01*
X156226264Y-110091745D01*
X156201144Y-110030209D01*
X156200500Y-110017587D01*
X156200500Y-109720941D01*
X156200121Y-109719525D01*
X156200121Y-109719526D01*
X156190099Y-109682123D01*
X156159577Y-109568215D01*
X156130639Y-109518095D01*
X156080520Y-109431284D01*
X155968716Y-109319480D01*
X155968715Y-109319479D01*
X155964385Y-109315149D01*
X155964374Y-109315139D01*
X153487590Y-106838355D01*
X153487588Y-106838352D01*
X153368717Y-106719481D01*
X153368716Y-106719480D01*
X153281904Y-106669360D01*
X153281904Y-106669359D01*
X153281900Y-106669358D01*
X153231785Y-106640423D01*
X153079057Y-106599499D01*
X152920943Y-106599499D01*
X152913347Y-106599499D01*
X152913331Y-106599500D01*
X147471826Y-106599500D01*
X147430871Y-106592541D01*
X147317492Y-106552867D01*
X147317481Y-106552865D01*
X147138239Y-106532670D01*
X147138231Y-106532670D01*
X146958985Y-106552865D01*
X146958980Y-106552866D01*
X146788711Y-106612446D01*
X146635972Y-106708419D01*
X146508419Y-106835972D01*
X146412446Y-106988711D01*
X146352866Y-107158980D01*
X146352865Y-107158985D01*
X146332670Y-107338231D01*
X137420500Y-107338231D01*
X137420500Y-104552812D01*
X137439506Y-104486840D01*
X137525789Y-104349522D01*
X137585368Y-104179255D01*
X137585369Y-104179249D01*
X137605565Y-104000003D01*
X137605565Y-103999996D01*
X137585369Y-103820750D01*
X137585368Y-103820745D01*
X137536003Y-103679669D01*
X137525789Y-103650478D01*
X137429816Y-103497738D01*
X137302262Y-103370184D01*
X137149523Y-103274211D01*
X136979254Y-103214631D01*
X136979249Y-103214630D01*
X136800004Y-103194435D01*
X136799996Y-103194435D01*
X136620750Y-103214630D01*
X136620745Y-103214631D01*
X136450476Y-103274211D01*
X136297737Y-103370184D01*
X136170184Y-103497737D01*
X136074211Y-103650476D01*
X136014631Y-103820745D01*
X136014630Y-103820750D01*
X135994435Y-103999996D01*
X135994435Y-104000003D01*
X136014630Y-104179249D01*
X136014631Y-104179254D01*
X136074211Y-104349523D01*
X136170184Y-104502262D01*
X136183181Y-104515259D01*
X136216666Y-104576582D01*
X136219500Y-104602940D01*
X136219500Y-108025863D01*
X136199815Y-108092902D01*
X136147011Y-108138657D01*
X136077853Y-108148601D01*
X136063407Y-108145638D01*
X135946697Y-108114366D01*
X135946693Y-108114365D01*
X135946692Y-108114365D01*
X135946691Y-108114364D01*
X135946686Y-108114364D01*
X135720002Y-108094532D01*
X135719998Y-108094532D01*
X135493313Y-108114364D01*
X135493302Y-108114366D01*
X135273511Y-108173258D01*
X135273502Y-108173261D01*
X135067267Y-108269431D01*
X135067265Y-108269432D01*
X134880858Y-108399954D01*
X134719954Y-108560858D01*
X134589432Y-108747265D01*
X134589431Y-108747267D01*
X134562382Y-108805275D01*
X134516209Y-108857714D01*
X134449016Y-108876866D01*
X134382135Y-108856650D01*
X134337618Y-108805275D01*
X134310568Y-108747267D01*
X134310567Y-108747265D01*
X134290426Y-108718501D01*
X134180047Y-108560861D01*
X134180045Y-108560858D01*
X134019141Y-108399954D01*
X133832734Y-108269432D01*
X133832732Y-108269431D01*
X133626497Y-108173261D01*
X133626488Y-108173258D01*
X133406697Y-108114366D01*
X133406693Y-108114365D01*
X133406692Y-108114365D01*
X133406691Y-108114364D01*
X133406686Y-108114364D01*
X133180002Y-108094532D01*
X133179998Y-108094532D01*
X132953313Y-108114364D01*
X132953302Y-108114366D01*
X132733511Y-108173258D01*
X132733502Y-108173261D01*
X132527267Y-108269431D01*
X132527265Y-108269432D01*
X132340858Y-108399954D01*
X132179954Y-108560858D01*
X132049432Y-108747265D01*
X132049431Y-108747267D01*
X131953261Y-108953502D01*
X131953258Y-108953511D01*
X131894366Y-109173302D01*
X131894364Y-109173313D01*
X131874532Y-109399998D01*
X118700500Y-109399998D01*
X118700500Y-98519994D01*
X121694357Y-98519994D01*
X121694357Y-98520005D01*
X121714890Y-98767812D01*
X121714892Y-98767824D01*
X121775936Y-99008881D01*
X121875826Y-99236606D01*
X122007019Y-99437412D01*
X122027206Y-99504301D01*
X122008026Y-99571487D01*
X121962644Y-99614061D01*
X121957912Y-99616644D01*
X121842812Y-99702809D01*
X121842809Y-99702812D01*
X121756649Y-99817906D01*
X121756645Y-99817913D01*
X121706403Y-99952620D01*
X121706401Y-99952627D01*
X121700000Y-100012155D01*
X121700000Y-100810000D01*
X122651518Y-100810000D01*
X122640889Y-100828409D01*
X122600000Y-100981009D01*
X122600000Y-101138991D01*
X122640889Y-101291591D01*
X122651518Y-101310000D01*
X121700000Y-101310000D01*
X121700000Y-102107844D01*
X121706401Y-102167372D01*
X121706403Y-102167379D01*
X121756645Y-102302086D01*
X121756649Y-102302093D01*
X121842809Y-102417187D01*
X121842812Y-102417190D01*
X121957906Y-102503350D01*
X121957913Y-102503354D01*
X122092620Y-102553596D01*
X122092627Y-102553598D01*
X122152155Y-102559999D01*
X122152172Y-102560000D01*
X122950000Y-102560000D01*
X122950000Y-101608482D01*
X122968409Y-101619111D01*
X123121009Y-101660000D01*
X123278991Y-101660000D01*
X123431591Y-101619111D01*
X123450000Y-101608482D01*
X123450000Y-102560000D01*
X124247828Y-102560000D01*
X124247844Y-102559999D01*
X124307372Y-102553598D01*
X124307379Y-102553596D01*
X124442086Y-102503354D01*
X124442093Y-102503350D01*
X124557187Y-102417190D01*
X124557190Y-102417187D01*
X124643350Y-102302093D01*
X124643354Y-102302086D01*
X124693596Y-102167379D01*
X124693598Y-102167372D01*
X124699999Y-102107844D01*
X124700000Y-102107827D01*
X124700000Y-101310000D01*
X123748482Y-101310000D01*
X123759111Y-101291591D01*
X123800000Y-101138991D01*
X123800000Y-100981009D01*
X123759111Y-100828409D01*
X123748482Y-100810000D01*
X124700000Y-100810000D01*
X124700000Y-100012172D01*
X124699999Y-100012155D01*
X124693598Y-99952627D01*
X124693596Y-99952620D01*
X124643354Y-99817913D01*
X124643350Y-99817906D01*
X124557190Y-99702812D01*
X124557187Y-99702809D01*
X124442088Y-99616645D01*
X124437359Y-99614063D01*
X124387955Y-99564657D01*
X124373105Y-99496383D01*
X124392981Y-99437412D01*
X124524173Y-99236607D01*
X124624063Y-99008881D01*
X124685108Y-98767821D01*
X124705643Y-98520000D01*
X124685108Y-98272179D01*
X124624063Y-98031119D01*
X124573926Y-97916819D01*
X124524173Y-97803393D01*
X124388166Y-97595217D01*
X124312692Y-97513231D01*
X124219744Y-97412262D01*
X124023509Y-97259526D01*
X124023507Y-97259525D01*
X124023506Y-97259524D01*
X123804811Y-97141172D01*
X123804802Y-97141169D01*
X123569616Y-97060429D01*
X123324335Y-97019500D01*
X123075665Y-97019500D01*
X122830383Y-97060429D01*
X122595197Y-97141169D01*
X122595188Y-97141172D01*
X122376493Y-97259524D01*
X122180257Y-97412261D01*
X122011833Y-97595217D01*
X121875826Y-97803393D01*
X121775936Y-98031118D01*
X121714892Y-98272175D01*
X121714890Y-98272187D01*
X121694357Y-98519994D01*
X118700500Y-98519994D01*
X118700500Y-88119994D01*
X121694357Y-88119994D01*
X121694357Y-88120005D01*
X121714890Y-88367812D01*
X121714892Y-88367824D01*
X121775936Y-88608881D01*
X121875826Y-88836606D01*
X122011833Y-89044782D01*
X122011836Y-89044785D01*
X122180256Y-89227738D01*
X122263008Y-89292147D01*
X122303821Y-89348857D01*
X122307496Y-89418630D01*
X122272864Y-89479313D01*
X122263014Y-89487848D01*
X122204400Y-89533469D01*
X122180257Y-89552261D01*
X122011833Y-89735217D01*
X121875826Y-89943393D01*
X121775936Y-90171118D01*
X121714892Y-90412175D01*
X121714890Y-90412187D01*
X121694357Y-90659994D01*
X121694357Y-90660005D01*
X121714890Y-90907812D01*
X121714892Y-90907824D01*
X121775936Y-91148881D01*
X121875826Y-91376606D01*
X122007019Y-91577412D01*
X122027206Y-91644301D01*
X122008026Y-91711487D01*
X121962644Y-91754061D01*
X121957912Y-91756644D01*
X121842812Y-91842809D01*
X121842809Y-91842812D01*
X121756649Y-91957906D01*
X121756645Y-91957913D01*
X121706403Y-92092620D01*
X121706401Y-92092627D01*
X121700000Y-92152155D01*
X121700000Y-92950000D01*
X122651518Y-92950000D01*
X122640889Y-92968409D01*
X122600000Y-93121009D01*
X122600000Y-93278991D01*
X122640889Y-93431591D01*
X122651518Y-93450000D01*
X121700000Y-93450000D01*
X121700000Y-94247844D01*
X121706401Y-94307372D01*
X121706403Y-94307379D01*
X121756645Y-94442086D01*
X121756649Y-94442093D01*
X121842809Y-94557187D01*
X121842812Y-94557190D01*
X121957906Y-94643350D01*
X121957913Y-94643354D01*
X122092620Y-94693596D01*
X122092627Y-94693598D01*
X122152155Y-94699999D01*
X122152172Y-94700000D01*
X122950000Y-94700000D01*
X122950000Y-93748482D01*
X122968409Y-93759111D01*
X123121009Y-93800000D01*
X123278991Y-93800000D01*
X123431591Y-93759111D01*
X123450000Y-93748482D01*
X123450000Y-94700000D01*
X124247828Y-94700000D01*
X124247844Y-94699999D01*
X124307372Y-94693598D01*
X124307379Y-94693596D01*
X124442086Y-94643354D01*
X124442093Y-94643350D01*
X124557187Y-94557190D01*
X124557190Y-94557187D01*
X124643350Y-94442093D01*
X124643354Y-94442086D01*
X124693596Y-94307379D01*
X124693598Y-94307372D01*
X124699999Y-94247844D01*
X124700000Y-94247827D01*
X124700000Y-93450000D01*
X123748482Y-93450000D01*
X123759111Y-93431591D01*
X123800000Y-93278991D01*
X123800000Y-93121009D01*
X123759111Y-92968409D01*
X123748482Y-92950000D01*
X124700000Y-92950000D01*
X124700000Y-92152172D01*
X124699999Y-92152155D01*
X124693598Y-92092627D01*
X124693596Y-92092620D01*
X124643354Y-91957913D01*
X124643350Y-91957906D01*
X124557190Y-91842812D01*
X124557187Y-91842809D01*
X124442088Y-91756645D01*
X124437359Y-91754063D01*
X124387955Y-91704657D01*
X124373105Y-91636383D01*
X124392981Y-91577412D01*
X124524173Y-91376607D01*
X124624063Y-91148881D01*
X124685108Y-90907821D01*
X124690769Y-90839501D01*
X124705643Y-90660005D01*
X124705643Y-90659994D01*
X124685109Y-90412187D01*
X124685107Y-90412175D01*
X124624063Y-90171118D01*
X124524173Y-89943393D01*
X124388166Y-89735217D01*
X124366557Y-89711744D01*
X124219744Y-89552262D01*
X124136991Y-89487852D01*
X124096179Y-89431143D01*
X124092504Y-89361370D01*
X124127136Y-89300687D01*
X124136985Y-89292151D01*
X124219744Y-89227738D01*
X124388164Y-89044785D01*
X124524173Y-88836607D01*
X124624063Y-88608881D01*
X124685108Y-88367821D01*
X124685109Y-88367812D01*
X124704224Y-88137135D01*
X164799500Y-88137135D01*
X164799500Y-89942870D01*
X164799501Y-89942876D01*
X164805908Y-90002483D01*
X164856202Y-90137328D01*
X164856206Y-90137335D01*
X164942452Y-90252544D01*
X164942455Y-90252547D01*
X165047075Y-90330866D01*
X165088946Y-90386799D01*
X165093930Y-90456491D01*
X165073082Y-90503017D01*
X164995675Y-90609559D01*
X164898810Y-90799664D01*
X164832877Y-91002585D01*
X164799500Y-91213320D01*
X164799500Y-91426679D01*
X164832877Y-91637414D01*
X164898810Y-91840335D01*
X164958720Y-91957913D01*
X164995673Y-92030437D01*
X165121083Y-92203049D01*
X165271951Y-92353917D01*
X165279889Y-92359684D01*
X165322553Y-92415016D01*
X165328529Y-92484629D01*
X165295922Y-92546423D01*
X165279889Y-92560316D01*
X165271948Y-92566085D01*
X165121085Y-92716948D01*
X165121085Y-92716949D01*
X165121083Y-92716951D01*
X165067224Y-92791081D01*
X164995673Y-92889562D01*
X164898810Y-93079664D01*
X164834045Y-93278991D01*
X164832877Y-93282586D01*
X164799500Y-93493320D01*
X164799500Y-93706680D01*
X164819680Y-93834091D01*
X164832877Y-93917414D01*
X164898810Y-94120335D01*
X164963780Y-94247844D01*
X164995673Y-94310437D01*
X165121083Y-94483049D01*
X165271951Y-94633917D01*
X165444563Y-94759327D01*
X165534379Y-94805090D01*
X165634664Y-94856189D01*
X165634666Y-94856189D01*
X165634669Y-94856191D01*
X165837586Y-94922123D01*
X166048320Y-94955500D01*
X166048321Y-94955500D01*
X166351679Y-94955500D01*
X166351680Y-94955500D01*
X166562414Y-94922123D01*
X166765331Y-94856191D01*
X166955437Y-94759327D01*
X167128049Y-94633917D01*
X167187819Y-94574147D01*
X167249142Y-94540662D01*
X167318834Y-94545646D01*
X167374767Y-94587518D01*
X167399184Y-94652982D01*
X167399500Y-94661828D01*
X167399500Y-102343933D01*
X167379815Y-102410972D01*
X167327011Y-102456727D01*
X167257853Y-102466671D01*
X167232168Y-102460115D01*
X167207485Y-102450909D01*
X167207483Y-102450908D01*
X167147883Y-102444501D01*
X167147881Y-102444500D01*
X167147873Y-102444500D01*
X167147864Y-102444500D01*
X165252129Y-102444500D01*
X165252123Y-102444501D01*
X165192516Y-102450908D01*
X165057671Y-102501202D01*
X165057664Y-102501206D01*
X164942455Y-102587452D01*
X164942452Y-102587455D01*
X164856206Y-102702664D01*
X164856202Y-102702671D01*
X164805908Y-102837517D01*
X164799501Y-102897116D01*
X164799500Y-102897135D01*
X164799500Y-104702870D01*
X164799501Y-104702876D01*
X164805908Y-104762483D01*
X164856202Y-104897328D01*
X164856206Y-104897335D01*
X164942452Y-105012544D01*
X164942455Y-105012547D01*
X165047075Y-105090866D01*
X165088946Y-105146799D01*
X165093930Y-105216491D01*
X165073082Y-105263017D01*
X164995675Y-105369559D01*
X164898810Y-105559664D01*
X164832877Y-105762585D01*
X164799500Y-105973320D01*
X164799500Y-106186679D01*
X164832877Y-106397414D01*
X164898810Y-106600335D01*
X164959519Y-106719481D01*
X164995673Y-106790437D01*
X165121083Y-106963049D01*
X165271951Y-107113917D01*
X165279889Y-107119684D01*
X165322553Y-107175016D01*
X165328529Y-107244629D01*
X165295922Y-107306423D01*
X165279889Y-107320316D01*
X165271948Y-107326085D01*
X165121085Y-107476948D01*
X165121085Y-107476949D01*
X165121083Y-107476951D01*
X165091630Y-107517490D01*
X164995673Y-107649562D01*
X164898810Y-107839664D01*
X164832877Y-108042585D01*
X164812181Y-108173258D01*
X164799500Y-108253320D01*
X164799500Y-108466680D01*
X164814416Y-108560858D01*
X164832877Y-108677414D01*
X164898810Y-108880335D01*
X164995671Y-109070434D01*
X164995673Y-109070437D01*
X165121083Y-109243049D01*
X165271951Y-109393917D01*
X165444563Y-109519327D01*
X165534379Y-109565090D01*
X165634664Y-109616189D01*
X165634666Y-109616189D01*
X165634669Y-109616191D01*
X165837586Y-109682123D01*
X166048320Y-109715500D01*
X166048321Y-109715500D01*
X166351679Y-109715500D01*
X166351680Y-109715500D01*
X166562414Y-109682123D01*
X166765331Y-109616191D01*
X166955437Y-109519327D01*
X167128049Y-109393917D01*
X167278917Y-109243049D01*
X167404327Y-109070437D01*
X167468442Y-108944602D01*
X167501394Y-108909710D01*
X167509595Y-108898757D01*
X167515284Y-108895004D01*
X167516412Y-108893810D01*
X167516432Y-108893798D01*
X167521904Y-108890639D01*
X167608716Y-108840520D01*
X167720520Y-108728716D01*
X167720520Y-108728714D01*
X167730728Y-108718507D01*
X167730730Y-108718504D01*
X168358506Y-108090728D01*
X168358511Y-108090724D01*
X168368714Y-108080520D01*
X168368716Y-108080520D01*
X168480520Y-107968716D01*
X168544945Y-107857128D01*
X168559577Y-107831785D01*
X168600500Y-107679058D01*
X168600500Y-107520943D01*
X168600500Y-92489060D01*
X168600501Y-92489047D01*
X168600501Y-92320944D01*
X168568911Y-92203050D01*
X168559577Y-92168216D01*
X168504041Y-92072024D01*
X168480524Y-92031290D01*
X168480518Y-92031282D01*
X167617310Y-91168075D01*
X167583825Y-91106752D01*
X167582525Y-91099834D01*
X167567123Y-91002586D01*
X167501191Y-90799669D01*
X167501189Y-90799666D01*
X167501189Y-90799664D01*
X167450090Y-90699379D01*
X167404327Y-90609563D01*
X167326916Y-90503016D01*
X167303437Y-90437211D01*
X167319262Y-90369157D01*
X167352921Y-90330868D01*
X167457546Y-90252546D01*
X167543796Y-90137331D01*
X167594091Y-90002483D01*
X167600500Y-89942873D01*
X167600499Y-88137128D01*
X167594091Y-88077517D01*
X167543796Y-87942669D01*
X167543795Y-87942668D01*
X167543793Y-87942664D01*
X167457547Y-87827455D01*
X167457544Y-87827452D01*
X167342335Y-87741206D01*
X167342328Y-87741202D01*
X167207482Y-87690908D01*
X167207483Y-87690908D01*
X167147883Y-87684501D01*
X167147881Y-87684500D01*
X167147873Y-87684500D01*
X167147864Y-87684500D01*
X165252129Y-87684500D01*
X165252123Y-87684501D01*
X165192516Y-87690908D01*
X165057671Y-87741202D01*
X165057664Y-87741206D01*
X164942455Y-87827452D01*
X164942452Y-87827455D01*
X164856206Y-87942664D01*
X164856202Y-87942671D01*
X164805908Y-88077517D01*
X164799501Y-88137116D01*
X164799501Y-88137123D01*
X164799500Y-88137135D01*
X124704224Y-88137135D01*
X124705643Y-88120005D01*
X124705643Y-88119994D01*
X124685109Y-87872187D01*
X124685107Y-87872175D01*
X124624063Y-87631118D01*
X124524173Y-87403393D01*
X124388166Y-87195217D01*
X124366557Y-87171744D01*
X124219744Y-87012262D01*
X124023509Y-86859526D01*
X124023507Y-86859525D01*
X124023506Y-86859524D01*
X123804811Y-86741172D01*
X123804802Y-86741169D01*
X123569616Y-86660429D01*
X123324335Y-86619500D01*
X123075665Y-86619500D01*
X122830383Y-86660429D01*
X122595197Y-86741169D01*
X122595188Y-86741172D01*
X122376493Y-86859524D01*
X122180257Y-87012261D01*
X122011833Y-87195217D01*
X121875826Y-87403393D01*
X121775936Y-87631118D01*
X121714892Y-87872175D01*
X121714890Y-87872187D01*
X121694357Y-88119994D01*
X118700500Y-88119994D01*
X118700500Y-85199996D01*
X148994435Y-85199996D01*
X148994435Y-85200003D01*
X149014630Y-85379249D01*
X149014631Y-85379254D01*
X149074211Y-85549523D01*
X149170184Y-85702262D01*
X149297738Y-85829816D01*
X149450478Y-85925789D01*
X149620745Y-85985368D01*
X149620750Y-85985369D01*
X149799996Y-86005565D01*
X149800000Y-86005565D01*
X149800004Y-86005565D01*
X149979249Y-85985369D01*
X149979252Y-85985368D01*
X149979255Y-85985368D01*
X150149522Y-85925789D01*
X150302262Y-85829816D01*
X150302267Y-85829810D01*
X150305097Y-85827555D01*
X150307275Y-85826665D01*
X150308158Y-85826111D01*
X150308255Y-85826265D01*
X150369783Y-85801145D01*
X150382412Y-85800500D01*
X155417588Y-85800500D01*
X155484627Y-85820185D01*
X155494903Y-85827555D01*
X155497736Y-85829814D01*
X155497738Y-85829816D01*
X155650478Y-85925789D01*
X155820745Y-85985368D01*
X155820750Y-85985369D01*
X155999996Y-86005565D01*
X156000000Y-86005565D01*
X156000004Y-86005565D01*
X156179249Y-85985369D01*
X156179252Y-85985368D01*
X156179255Y-85985368D01*
X156349522Y-85925789D01*
X156502262Y-85829816D01*
X156629816Y-85702262D01*
X156725789Y-85549522D01*
X156785368Y-85379255D01*
X156805565Y-85200000D01*
X156785368Y-85020745D01*
X156725789Y-84850478D01*
X156629816Y-84697738D01*
X156502262Y-84570184D01*
X156349523Y-84474211D01*
X156179254Y-84414631D01*
X156179249Y-84414630D01*
X156000004Y-84394435D01*
X155999996Y-84394435D01*
X155820750Y-84414630D01*
X155820745Y-84414631D01*
X155650476Y-84474211D01*
X155497736Y-84570185D01*
X155494903Y-84572445D01*
X155492724Y-84573334D01*
X155491842Y-84573889D01*
X155491744Y-84573734D01*
X155430217Y-84598855D01*
X155417588Y-84599500D01*
X150382412Y-84599500D01*
X150315373Y-84579815D01*
X150305097Y-84572445D01*
X150302263Y-84570185D01*
X150302262Y-84570184D01*
X150199708Y-84505745D01*
X150149523Y-84474211D01*
X149979254Y-84414631D01*
X149979249Y-84414630D01*
X149800004Y-84394435D01*
X149799996Y-84394435D01*
X149620750Y-84414630D01*
X149620745Y-84414631D01*
X149450476Y-84474211D01*
X149297737Y-84570184D01*
X149170184Y-84697737D01*
X149074211Y-84850476D01*
X149014631Y-85020745D01*
X149014630Y-85020750D01*
X148994435Y-85199996D01*
X118700500Y-85199996D01*
X118700500Y-81904227D01*
X118720185Y-81837188D01*
X118772989Y-81791433D01*
X118842147Y-81781489D01*
X118905703Y-81810514D01*
X118943477Y-81869292D01*
X118946973Y-81884829D01*
X118975886Y-82067379D01*
X118975887Y-82067386D01*
X119076262Y-82441992D01*
X119215244Y-82804050D01*
X119391310Y-83149599D01*
X119602523Y-83474839D01*
X119602525Y-83474841D01*
X119811096Y-83732404D01*
X121305747Y-82237753D01*
X121379588Y-82339386D01*
X121557670Y-82517468D01*
X121659301Y-82591307D01*
X120164650Y-84085958D01*
X120422214Y-84294531D01*
X120422216Y-84294532D01*
X120747456Y-84505745D01*
X121093005Y-84681811D01*
X121455063Y-84820793D01*
X121829669Y-84921168D01*
X121829676Y-84921169D01*
X122212712Y-84981836D01*
X122599999Y-85002134D01*
X122600001Y-85002134D01*
X122987287Y-84981836D01*
X123370323Y-84921169D01*
X123370330Y-84921168D01*
X123744936Y-84820793D01*
X124106994Y-84681811D01*
X124452543Y-84505745D01*
X124777771Y-84294540D01*
X124777784Y-84294530D01*
X125035348Y-84085958D01*
X123540698Y-82591308D01*
X123642330Y-82517468D01*
X123820412Y-82339386D01*
X123894252Y-82237754D01*
X125388902Y-83732404D01*
X125597474Y-83474840D01*
X125597484Y-83474827D01*
X125808689Y-83149599D01*
X125984755Y-82804050D01*
X126123737Y-82441992D01*
X126224112Y-82067386D01*
X126224113Y-82067379D01*
X126284780Y-81684343D01*
X126305078Y-81297056D01*
X126305078Y-81297055D01*
X126284780Y-80909768D01*
X126251090Y-80697055D01*
X184797866Y-80697055D01*
X184797866Y-80697056D01*
X184818163Y-81084343D01*
X184878830Y-81467379D01*
X184878831Y-81467386D01*
X184979206Y-81841992D01*
X185118188Y-82204050D01*
X185294254Y-82549599D01*
X185505467Y-82874839D01*
X185505469Y-82874841D01*
X185714040Y-83132404D01*
X187208691Y-81637753D01*
X187282532Y-81739386D01*
X187460614Y-81917468D01*
X187562245Y-81991307D01*
X186067594Y-83485958D01*
X186325158Y-83694531D01*
X186325160Y-83694532D01*
X186650400Y-83905745D01*
X186995949Y-84081811D01*
X187358007Y-84220793D01*
X187732613Y-84321168D01*
X187732620Y-84321169D01*
X188115656Y-84381836D01*
X188502943Y-84402134D01*
X188502945Y-84402134D01*
X188890231Y-84381836D01*
X189273267Y-84321169D01*
X189273274Y-84321168D01*
X189647880Y-84220793D01*
X190009938Y-84081811D01*
X190355487Y-83905745D01*
X190680715Y-83694540D01*
X190680728Y-83694530D01*
X190938292Y-83485958D01*
X189443642Y-81991308D01*
X189545274Y-81917468D01*
X189723356Y-81739386D01*
X189797196Y-81637754D01*
X191291846Y-83132404D01*
X191500418Y-82874840D01*
X191500428Y-82874827D01*
X191711633Y-82549599D01*
X191887699Y-82204050D01*
X192026681Y-81841992D01*
X192127056Y-81467386D01*
X192127057Y-81467379D01*
X192187724Y-81084343D01*
X192208022Y-80697056D01*
X192208022Y-80697055D01*
X192187724Y-80309768D01*
X192127057Y-79926732D01*
X192127056Y-79926725D01*
X192026681Y-79552119D01*
X191887699Y-79190061D01*
X191711633Y-78844512D01*
X191500420Y-78519272D01*
X191500419Y-78519270D01*
X191291846Y-78261706D01*
X189797195Y-79756357D01*
X189723356Y-79654726D01*
X189545274Y-79476644D01*
X189443642Y-79402804D01*
X190938293Y-77908152D01*
X190680729Y-77699581D01*
X190680727Y-77699579D01*
X190355487Y-77488366D01*
X190009938Y-77312300D01*
X189647880Y-77173318D01*
X189273274Y-77072943D01*
X189273267Y-77072942D01*
X188890231Y-77012275D01*
X188502945Y-76991978D01*
X188502943Y-76991978D01*
X188115656Y-77012275D01*
X187732620Y-77072942D01*
X187732613Y-77072943D01*
X187358007Y-77173318D01*
X186995949Y-77312300D01*
X186650400Y-77488366D01*
X186325150Y-77699587D01*
X186067593Y-77908151D01*
X186067593Y-77908152D01*
X187562245Y-79402804D01*
X187460614Y-79476644D01*
X187282532Y-79654726D01*
X187208692Y-79756357D01*
X185714040Y-78261705D01*
X185714039Y-78261705D01*
X185505475Y-78519262D01*
X185294254Y-78844512D01*
X185118188Y-79190061D01*
X184979206Y-79552119D01*
X184878831Y-79926725D01*
X184878830Y-79926732D01*
X184818163Y-80309768D01*
X184797866Y-80697055D01*
X126251090Y-80697055D01*
X126224113Y-80526732D01*
X126224112Y-80526725D01*
X126123737Y-80152119D01*
X125984755Y-79790061D01*
X125808689Y-79444512D01*
X125597476Y-79119272D01*
X125597475Y-79119270D01*
X125388902Y-78861706D01*
X123894251Y-80356357D01*
X123820412Y-80254726D01*
X123642330Y-80076644D01*
X123540698Y-80002804D01*
X125035349Y-78508152D01*
X124777785Y-78299581D01*
X124777783Y-78299579D01*
X124452543Y-78088366D01*
X124106994Y-77912300D01*
X123744936Y-77773318D01*
X123370330Y-77672943D01*
X123370323Y-77672942D01*
X122987287Y-77612275D01*
X122600001Y-77591978D01*
X122599999Y-77591978D01*
X122212712Y-77612275D01*
X121829676Y-77672942D01*
X121829669Y-77672943D01*
X121455063Y-77773318D01*
X121093005Y-77912300D01*
X120747456Y-78088366D01*
X120422206Y-78299587D01*
X120164649Y-78508151D01*
X120164649Y-78508152D01*
X121659301Y-80002804D01*
X121557670Y-80076644D01*
X121379588Y-80254726D01*
X121305748Y-80356357D01*
X119811096Y-78861705D01*
X119811095Y-78861705D01*
X119602531Y-79119262D01*
X119391310Y-79444512D01*
X119215244Y-79790061D01*
X119076262Y-80152119D01*
X118975887Y-80526725D01*
X118975886Y-80526732D01*
X118946973Y-80709282D01*
X118917044Y-80772417D01*
X118857732Y-80809348D01*
X118787870Y-80808350D01*
X118729637Y-80769740D01*
X118701523Y-80705776D01*
X118700500Y-80689884D01*
X118700500Y-76824500D01*
X118720185Y-76757461D01*
X118772989Y-76711706D01*
X118824500Y-76700500D01*
X192775500Y-76700500D01*
X192842539Y-76720185D01*
G37*
%TD.AperFunction*%
%TA.AperFunction,Conductor*%
G36*
X191988902Y-120435348D02*
G01*
X192197474Y-120177784D01*
X192197484Y-120177771D01*
X192408689Y-119852543D01*
X192584755Y-119506994D01*
X192659736Y-119311664D01*
X192702138Y-119256132D01*
X192767832Y-119232339D01*
X192835960Y-119247841D01*
X192884893Y-119297714D01*
X192899500Y-119356102D01*
X192899500Y-121775500D01*
X192879815Y-121842539D01*
X192827011Y-121888294D01*
X192775500Y-121899500D01*
X189807171Y-121899500D01*
X189740132Y-121879815D01*
X189694377Y-121827011D01*
X189684433Y-121757853D01*
X189713458Y-121694297D01*
X189772236Y-121656523D01*
X189787773Y-121653027D01*
X189970323Y-121624113D01*
X189970330Y-121624112D01*
X190344936Y-121523737D01*
X190706994Y-121384755D01*
X191052543Y-121208689D01*
X191377771Y-120997484D01*
X191377784Y-120997474D01*
X191635348Y-120788902D01*
X190140698Y-119294252D01*
X190242330Y-119220412D01*
X190420412Y-119042330D01*
X190494252Y-118940698D01*
X191988902Y-120435348D01*
G37*
%TD.AperFunction*%
%TD*%
D23*
X138200000Y-102600000D03*
X133000000Y-99400000D03*
X128600000Y-95800000D03*
X142400000Y-90400000D03*
X147800000Y-96400000D03*
X149800000Y-93200000D03*
X154800000Y-81600000D03*
X146000000Y-78400000D03*
X170000000Y-81200000D03*
X182800000Y-90200000D03*
X189200000Y-97600000D03*
X172600000Y-103000000D03*
X163200000Y-99600000D03*
X177400000Y-110600000D03*
X169800000Y-120000000D03*
X159600000Y-116400000D03*
X148000000Y-116200000D03*
X125400000Y-107600000D03*
X139800000Y-96800000D03*
X137200000Y-93000000D03*
X137200000Y-89000000D03*
X135400000Y-82400000D03*
X166800000Y-115000000D03*
X155600000Y-110600000D03*
X147138235Y-107338235D03*
X149800000Y-85200000D03*
X156000000Y-85200000D03*
X136800000Y-104000000D03*
X138200000Y-112600000D03*
D24*
X133180000Y-117020000D03*
X135720000Y-117020000D03*
X138260000Y-117020000D03*
X140800000Y-117020000D03*
X140800000Y-109400000D03*
X138260000Y-109400000D03*
X135720000Y-109400000D03*
X133180000Y-109400000D03*
X151800000Y-96180000D03*
X151800000Y-111420000D03*
X158600000Y-96180000D03*
X158600000Y-111420000D03*
X189200000Y-108760000D03*
X189200000Y-106480000D03*
X189200000Y-104200000D03*
X166200000Y-103800000D03*
X166200000Y-106080000D03*
X166200000Y-108360000D03*
X166200000Y-93600000D03*
X166200000Y-91320000D03*
X166200000Y-89040000D03*
X123200000Y-93200000D03*
X123200000Y-90660000D03*
X123200000Y-88120000D03*
X189400000Y-92340000D03*
X189400000Y-89800000D03*
X123200000Y-101060000D03*
X123200000Y-98520000D03*
X186800000Y-118000000D03*
X187502944Y-116302944D03*
X187502944Y-119697056D03*
X189200000Y-115600000D03*
X189200000Y-118000000D03*
X189200000Y-120400000D03*
X190897056Y-116302944D03*
X190897056Y-119697056D03*
X191600000Y-118000000D03*
X186102944Y-80697056D03*
X186805888Y-79000000D03*
X186805888Y-82394112D03*
X188502944Y-78297056D03*
X188502944Y-80697056D03*
X188502944Y-83097056D03*
X190200000Y-79000000D03*
X190200000Y-82394112D03*
X190902944Y-80697056D03*
X120400000Y-117400000D03*
X121102944Y-115702944D03*
X121102944Y-119097056D03*
X122800000Y-115000000D03*
X122800000Y-117400000D03*
X122800000Y-119800000D03*
X124497056Y-115702944D03*
X124497056Y-119097056D03*
X125200000Y-117400000D03*
X125000000Y-81297056D03*
X124297056Y-82994112D03*
X124297056Y-79600000D03*
X122600000Y-83697056D03*
X122600000Y-81297056D03*
X122600000Y-78897056D03*
X120902944Y-82994112D03*
X120902944Y-79600000D03*
X120200000Y-81297056D03*
M02*
