%TF.GenerationSoftware,KiCad,Pcbnew,8.0.8*%
%TF.CreationDate,2025-01-31T21:35:17+01:00*%
%TF.ProjectId,BufferCorrente,42756666-6572-4436-9f72-72656e74652e,rev?*%
%TF.SameCoordinates,Original*%
%TF.FileFunction,Copper,L1,Top*%
%TF.FilePolarity,Positive*%
%FSLAX46Y46*%
G04 Gerber Fmt 4.6, Leading zero omitted, Abs format (unit mm)*
G04 Created by KiCad (PCBNEW 8.0.8) date 2025-01-31 21:35:17*
%MOMM*%
%LPD*%
G01*
G04 APERTURE LIST*
G04 Aperture macros list*
%AMRoundRect*
0 Rectangle with rounded corners*
0 $1 Rounding radius*
0 $2 $3 $4 $5 $6 $7 $8 $9 X,Y pos of 4 corners*
0 Add a 4 corners polygon primitive as box body*
4,1,4,$2,$3,$4,$5,$6,$7,$8,$9,$2,$3,0*
0 Add four circle primitives for the rounded corners*
1,1,$1+$1,$2,$3*
1,1,$1+$1,$4,$5*
1,1,$1+$1,$6,$7*
1,1,$1+$1,$8,$9*
0 Add four rect primitives between the rounded corners*
20,1,$1+$1,$2,$3,$4,$5,0*
20,1,$1+$1,$4,$5,$6,$7,0*
20,1,$1+$1,$6,$7,$8,$9,0*
20,1,$1+$1,$8,$9,$2,$3,0*%
G04 Aperture macros list end*
%TA.AperFunction,ComponentPad*%
%ADD10R,1.600000X1.600000*%
%TD*%
%TA.AperFunction,ComponentPad*%
%ADD11O,1.600000X1.600000*%
%TD*%
%TA.AperFunction,ComponentPad*%
%ADD12C,2.400000*%
%TD*%
%TA.AperFunction,ComponentPad*%
%ADD13O,2.400000X2.400000*%
%TD*%
%TA.AperFunction,SMDPad,CuDef*%
%ADD14RoundRect,0.250000X0.625000X-0.312500X0.625000X0.312500X-0.625000X0.312500X-0.625000X-0.312500X0*%
%TD*%
%TA.AperFunction,SMDPad,CuDef*%
%ADD15RoundRect,0.250000X-0.312500X-0.625000X0.312500X-0.625000X0.312500X0.625000X-0.312500X0.625000X0*%
%TD*%
%TA.AperFunction,SMDPad,CuDef*%
%ADD16RoundRect,0.100000X0.100000X-0.130000X0.100000X0.130000X-0.100000X0.130000X-0.100000X-0.130000X0*%
%TD*%
%TA.AperFunction,ComponentPad*%
%ADD17R,1.800000X1.710000*%
%TD*%
%TA.AperFunction,ComponentPad*%
%ADD18O,1.800000X1.710000*%
%TD*%
%TA.AperFunction,ComponentPad*%
%ADD19R,2.000000X2.000000*%
%TD*%
%TA.AperFunction,ComponentPad*%
%ADD20C,2.000000*%
%TD*%
%TA.AperFunction,ComponentPad*%
%ADD21C,0.800000*%
%TD*%
%TA.AperFunction,ComponentPad*%
%ADD22C,6.400000*%
%TD*%
%TA.AperFunction,SMDPad,CuDef*%
%ADD23RoundRect,0.250000X-0.300000X-0.300000X0.300000X-0.300000X0.300000X0.300000X-0.300000X0.300000X0*%
%TD*%
%TA.AperFunction,SMDPad,CuDef*%
%ADD24RoundRect,0.225000X0.375000X-0.225000X0.375000X0.225000X-0.375000X0.225000X-0.375000X-0.225000X0*%
%TD*%
%TA.AperFunction,SMDPad,CuDef*%
%ADD25RoundRect,0.250000X-1.000000X-0.650000X1.000000X-0.650000X1.000000X0.650000X-1.000000X0.650000X0*%
%TD*%
%TA.AperFunction,SMDPad,CuDef*%
%ADD26RoundRect,0.225000X-0.225000X-0.375000X0.225000X-0.375000X0.225000X0.375000X-0.225000X0.375000X0*%
%TD*%
%TA.AperFunction,SMDPad,CuDef*%
%ADD27RoundRect,0.250000X-0.450000X-0.425000X0.450000X-0.425000X0.450000X0.425000X-0.450000X0.425000X0*%
%TD*%
%TA.AperFunction,SMDPad,CuDef*%
%ADD28RoundRect,0.140000X-0.170000X0.140000X-0.170000X-0.140000X0.170000X-0.140000X0.170000X0.140000X0*%
%TD*%
%TA.AperFunction,SMDPad,CuDef*%
%ADD29RoundRect,0.250000X0.650000X-0.325000X0.650000X0.325000X-0.650000X0.325000X-0.650000X-0.325000X0*%
%TD*%
%TA.AperFunction,SMDPad,CuDef*%
%ADD30RoundRect,0.140000X-0.140000X-0.170000X0.140000X-0.170000X0.140000X0.170000X-0.140000X0.170000X0*%
%TD*%
%TA.AperFunction,SMDPad,CuDef*%
%ADD31RoundRect,0.140000X0.170000X-0.140000X0.170000X0.140000X-0.170000X0.140000X-0.170000X-0.140000X0*%
%TD*%
%TA.AperFunction,SMDPad,CuDef*%
%ADD32RoundRect,0.250000X-0.412500X-0.925000X0.412500X-0.925000X0.412500X0.925000X-0.412500X0.925000X0*%
%TD*%
%TA.AperFunction,SMDPad,CuDef*%
%ADD33RoundRect,0.250000X0.412500X0.925000X-0.412500X0.925000X-0.412500X-0.925000X0.412500X-0.925000X0*%
%TD*%
%TA.AperFunction,SMDPad,CuDef*%
%ADD34RoundRect,0.140000X0.140000X0.170000X-0.140000X0.170000X-0.140000X-0.170000X0.140000X-0.170000X0*%
%TD*%
%TA.AperFunction,ViaPad*%
%ADD35C,0.600000*%
%TD*%
%TA.AperFunction,Conductor*%
%ADD36C,0.200000*%
%TD*%
%TA.AperFunction,Conductor*%
%ADD37C,1.000000*%
%TD*%
%TA.AperFunction,Conductor*%
%ADD38C,1.500000*%
%TD*%
%ADD39C,0.300000*%
%ADD40C,0.350000*%
G04 APERTURE END LIST*
D10*
%TO.P,U1,1,VOS*%
%TO.N,unconnected-(U1-VOS-Pad1)*%
X133180000Y-117020000D03*
D11*
%TO.P,U1,2,-*%
%TO.N,Net-(J2-Pin_1)*%
X135720000Y-117020000D03*
%TO.P,U1,3,+*%
%TO.N,Net-(D1-A)*%
X138260000Y-117020000D03*
%TO.P,U1,4,V-*%
%TO.N,-16V*%
X140800000Y-117020000D03*
%TO.P,U1,5,NC*%
%TO.N,unconnected-(U1-NC-Pad5)*%
X140800000Y-109400000D03*
%TO.P,U1,6*%
%TO.N,Net-(Q1-C)*%
X138260000Y-109400000D03*
%TO.P,U1,7,V+*%
%TO.N,+16V*%
X135720000Y-109400000D03*
%TO.P,U1,8,VOS*%
%TO.N,unconnected-(U1-VOS-Pad8)*%
X133180000Y-109400000D03*
%TD*%
D12*
%TO.P,R11,1*%
%TO.N,Net-(J2-Pin_1)*%
X151800000Y-96180000D03*
D13*
%TO.P,R11,2*%
%TO.N,Net-(Q2-E)*%
X151800000Y-111420000D03*
%TD*%
D12*
%TO.P,R10,1*%
%TO.N,Net-(Q3-E)*%
X158600000Y-96180000D03*
D13*
%TO.P,R10,2*%
%TO.N,Net-(J2-Pin_1)*%
X158600000Y-111420000D03*
%TD*%
D14*
%TO.P,R9,1*%
%TO.N,Net-(C16-Pad2)*%
X145290000Y-101125000D03*
%TO.P,R9,2*%
%TO.N,-16V*%
X145290000Y-98200000D03*
%TD*%
%TO.P,R8,1*%
%TO.N,Net-(Q1-C)*%
X141600000Y-101125000D03*
%TO.P,R8,2*%
%TO.N,Net-(C16-Pad2)*%
X141600000Y-98200000D03*
%TD*%
D15*
%TO.P,R7,1*%
%TO.N,+16V*%
X156875000Y-86720000D03*
%TO.P,R7,2*%
%TO.N,Net-(C12-Pad1)*%
X159800000Y-86720000D03*
%TD*%
%TO.P,R6,2*%
%TO.N,Net-(D5-K)*%
X154800000Y-86720000D03*
%TO.P,R6,1*%
%TO.N,Net-(C12-Pad1)*%
X151875000Y-86720000D03*
%TD*%
D14*
%TO.P,R5,1*%
%TO.N,Net-(D5-A)*%
X143800000Y-111525000D03*
%TO.P,R5,2*%
%TO.N,Net-(Q1-C)*%
X143800000Y-108600000D03*
%TD*%
%TO.P,R4,1*%
%TO.N,Net-(D5-K)*%
X162200000Y-91845000D03*
%TO.P,R4,2*%
%TO.N,Net-(D5-A)*%
X162200000Y-88920000D03*
%TD*%
D16*
%TO.P,R2,1*%
%TO.N,Net-(D1-A)*%
X131100000Y-99775000D03*
%TO.P,R2,2*%
%TO.N,GND*%
X131100000Y-99135000D03*
%TD*%
%TO.P,R1,2*%
%TO.N,Net-(D1-A)*%
X129300000Y-99135000D03*
%TO.P,R1,1*%
%TO.N,Net-(J1-Pin_2)*%
X129300000Y-99775000D03*
%TD*%
D17*
%TO.P,Q3,1,E*%
%TO.N,Net-(Q3-E)*%
X189200000Y-108760000D03*
D18*
%TO.P,Q3,2,C*%
%TO.N,+16V*%
X189200000Y-106480000D03*
%TO.P,Q3,3,B*%
%TO.N,Net-(D5-K)*%
X189200000Y-104200000D03*
%TD*%
D17*
%TO.P,Q2,1,E*%
%TO.N,Net-(Q2-E)*%
X166200000Y-103800000D03*
D18*
%TO.P,Q2,2,C*%
%TO.N,-16V*%
X166200000Y-106080000D03*
%TO.P,Q2,3,B*%
%TO.N,Net-(Q1-C)*%
X166200000Y-108360000D03*
%TD*%
%TO.P,Q1,3,B*%
%TO.N,Net-(D5-A)*%
X166200000Y-93600000D03*
%TO.P,Q1,2,C*%
%TO.N,Net-(Q1-C)*%
X166200000Y-91320000D03*
D17*
%TO.P,Q1,1,E*%
%TO.N,Net-(D5-K)*%
X166200000Y-89040000D03*
%TD*%
D19*
%TO.P,Power,1,Pin_1*%
%TO.N,GND*%
X123200000Y-93200000D03*
D20*
%TO.P,Power,2,Pin_2*%
%TO.N,VEE*%
X123200000Y-90660000D03*
%TO.P,Power,3,Pin_3*%
%TO.N,VCC*%
X123200000Y-88120000D03*
%TD*%
D19*
%TO.P,OUT,1,Pin_1*%
%TO.N,Net-(J2-Pin_1)*%
X189400000Y-92340000D03*
D20*
%TO.P,OUT,2,Pin_2*%
%TO.N,GND*%
X189400000Y-89800000D03*
%TD*%
D19*
%TO.P,SIG,1,Pin_1*%
%TO.N,GND*%
X123200000Y-101060000D03*
D20*
%TO.P,SIG,2,Pin_2*%
%TO.N,Net-(J1-Pin_2)*%
X123200000Y-98520000D03*
%TD*%
D21*
%TO.P,M3,1,1*%
%TO.N,GND*%
X186800000Y-118000000D03*
X187502944Y-116302944D03*
X187502944Y-119697056D03*
X189200000Y-115600000D03*
D22*
X189200000Y-118000000D03*
D21*
X189200000Y-120400000D03*
X190897056Y-116302944D03*
X190897056Y-119697056D03*
X191600000Y-118000000D03*
%TD*%
%TO.P,M3,1,1*%
%TO.N,GND*%
X186102944Y-80697056D03*
X186805888Y-79000000D03*
X186805888Y-82394112D03*
X188502944Y-78297056D03*
D22*
X188502944Y-80697056D03*
D21*
X188502944Y-83097056D03*
X190200000Y-79000000D03*
X190200000Y-82394112D03*
X190902944Y-80697056D03*
%TD*%
%TO.P,M3,1,1*%
%TO.N,GND*%
X120400000Y-117400000D03*
X121102944Y-115702944D03*
X121102944Y-119097056D03*
X122800000Y-115000000D03*
D22*
X122800000Y-117400000D03*
D21*
X122800000Y-119800000D03*
X124497056Y-115702944D03*
X124497056Y-119097056D03*
X125200000Y-117400000D03*
%TD*%
%TO.P,M3,1,1*%
%TO.N,GND*%
X125000000Y-81297056D03*
X124297056Y-82994112D03*
X124297056Y-79600000D03*
X122600000Y-83697056D03*
D22*
X122600000Y-81297056D03*
D21*
X122600000Y-78897056D03*
X120902944Y-82994112D03*
X120902944Y-79600000D03*
X120200000Y-81297056D03*
%TD*%
D23*
%TO.P,D7,1,K*%
%TO.N,+16V*%
X163000000Y-113000000D03*
%TO.P,D7,2,A*%
%TO.N,Net-(D6-K)*%
X165800000Y-113000000D03*
%TD*%
%TO.P,D6,1,K*%
%TO.N,Net-(D6-K)*%
X167800000Y-113000000D03*
%TO.P,D6,2,A*%
%TO.N,-16V*%
X170600000Y-113000000D03*
%TD*%
D24*
%TO.P,D5,1,K*%
%TO.N,Net-(D5-K)*%
X158000000Y-92020000D03*
%TO.P,D5,2,A*%
%TO.N,Net-(D5-A)*%
X158000000Y-88720000D03*
%TD*%
D25*
%TO.P,D4,2,A*%
%TO.N,-16V*%
X135200000Y-93000000D03*
%TO.P,D4,1,K*%
%TO.N,VEE*%
X131200000Y-93000000D03*
%TD*%
%TO.P,D3,2,A*%
%TO.N,VCC*%
X135200000Y-88000000D03*
%TO.P,D3,1,K*%
%TO.N,+16V*%
X131200000Y-88000000D03*
%TD*%
D26*
%TO.P,D2,2,A*%
%TO.N,-16V*%
X136300000Y-101400000D03*
%TO.P,D2,1,K*%
%TO.N,Net-(D1-A)*%
X133000000Y-101400000D03*
%TD*%
%TO.P,D1,2,A*%
%TO.N,Net-(D1-A)*%
X136300000Y-97450000D03*
%TO.P,D1,1,K*%
%TO.N,+16V*%
X133000000Y-97450000D03*
%TD*%
D27*
%TO.P,C17,1*%
%TO.N,Net-(J2-Pin_1)*%
X141250000Y-104440000D03*
%TO.P,C17,2*%
%TO.N,Net-(C16-Pad2)*%
X143950000Y-104440000D03*
%TD*%
D28*
%TO.P,C16,1*%
%TO.N,Net-(J2-Pin_1)*%
X145800000Y-103840000D03*
%TO.P,C16,2*%
%TO.N,Net-(C16-Pad2)*%
X145800000Y-104800000D03*
%TD*%
D29*
%TO.P,C15,1*%
%TO.N,-16V*%
X145400000Y-94350000D03*
%TO.P,C15,2*%
%TO.N,GND*%
X145400000Y-91400000D03*
%TD*%
D30*
%TO.P,C14,1*%
%TO.N,-16V*%
X142640000Y-95200000D03*
%TO.P,C14,2*%
%TO.N,GND*%
X143600000Y-95200000D03*
%TD*%
D27*
%TO.P,C13,1*%
%TO.N,Net-(C12-Pad1)*%
X151400000Y-90400000D03*
%TO.P,C13,2*%
%TO.N,Net-(J2-Pin_1)*%
X154100000Y-90400000D03*
%TD*%
D31*
%TO.P,C12,1*%
%TO.N,Net-(C12-Pad1)*%
X149500000Y-90960000D03*
%TO.P,C12,2*%
%TO.N,Net-(J2-Pin_1)*%
X149500000Y-90000000D03*
%TD*%
D30*
%TO.P,C11,1*%
%TO.N,GND*%
X142600000Y-85600000D03*
%TO.P,C11,2*%
%TO.N,+16V*%
X143560000Y-85600000D03*
%TD*%
D29*
%TO.P,C10,1*%
%TO.N,+16V*%
X145400000Y-89350000D03*
%TO.P,C10,2*%
%TO.N,GND*%
X145400000Y-86400000D03*
%TD*%
D30*
%TO.P,C9,1*%
%TO.N,Net-(D5-K)*%
X161840000Y-87320000D03*
%TO.P,C9,2*%
%TO.N,Net-(D5-A)*%
X162800000Y-87320000D03*
%TD*%
D32*
%TO.P,C8,1*%
%TO.N,GND*%
X138800000Y-93000000D03*
%TO.P,C8,2*%
%TO.N,-16V*%
X141875000Y-93000000D03*
%TD*%
D33*
%TO.P,C7,1*%
%TO.N,+16V*%
X141875000Y-88000000D03*
%TO.P,C7,2*%
%TO.N,GND*%
X138800000Y-88000000D03*
%TD*%
D16*
%TO.P,C6,1*%
%TO.N,GND*%
X129000000Y-92040000D03*
%TO.P,C6,2*%
%TO.N,VEE*%
X129000000Y-91400000D03*
%TD*%
%TO.P,C5,1*%
%TO.N,VCC*%
X129000000Y-89865000D03*
%TO.P,C5,2*%
%TO.N,GND*%
X129000000Y-89225000D03*
%TD*%
D34*
%TO.P,C2,1*%
%TO.N,-16V*%
X141360000Y-119200000D03*
%TO.P,C2,2*%
%TO.N,GND*%
X140400000Y-119200000D03*
%TD*%
D30*
%TO.P,C1,1*%
%TO.N,+16V*%
X134800000Y-107000000D03*
%TO.P,C1,2*%
%TO.N,GND*%
X135760000Y-107000000D03*
%TD*%
D35*
%TO.N,GND*%
X138200000Y-102600000D03*
X133000000Y-99400000D03*
X128600000Y-95800000D03*
X142400000Y-90400000D03*
X147800000Y-96400000D03*
X149800000Y-93200000D03*
X154800000Y-81600000D03*
X146000000Y-78400000D03*
X170000000Y-81200000D03*
X182800000Y-90200000D03*
X189200000Y-97600000D03*
X172600000Y-103000000D03*
X163200000Y-99600000D03*
X177400000Y-110600000D03*
X169800000Y-120000000D03*
X159600000Y-116400000D03*
X148000000Y-116200000D03*
X125400000Y-107600000D03*
X139800000Y-96800000D03*
X137200000Y-93000000D03*
X137200000Y-89000000D03*
X135400000Y-82400000D03*
%TO.N,+16V*%
X166800000Y-115000000D03*
%TO.N,Net-(Q1-C)*%
X155600000Y-110600000D03*
X147138235Y-107338235D03*
%TO.N,+16V*%
X149800000Y-85200000D03*
X156000000Y-85200000D03*
%TO.N,-16V*%
X136800000Y-104000000D03*
%TO.N,+16V*%
X138200000Y-112600000D03*
%TD*%
D36*
%TO.N,Net-(D5-A)*%
X158000000Y-88720000D02*
X157100000Y-89620000D01*
X157100000Y-89620000D02*
X157100000Y-92770661D01*
X157100000Y-92770661D02*
X157929339Y-93600000D01*
%TO.N,+16V*%
X165000000Y-115000000D02*
X166800000Y-115000000D01*
X163000000Y-113000000D02*
X165000000Y-115000000D01*
%TO.N,-16V*%
X170600000Y-113000000D02*
X170600000Y-110480000D01*
X170600000Y-110480000D02*
X166200000Y-106080000D01*
%TO.N,Net-(Q1-C)*%
X155600000Y-110600000D02*
X155600000Y-111200000D01*
X155600000Y-111200000D02*
X157600000Y-113200000D01*
X157600000Y-113200000D02*
X161360000Y-113200000D01*
X161360000Y-113200000D02*
X166200000Y-108360000D01*
%TO.N,+16V*%
X163000000Y-113000000D02*
X162400000Y-113600000D01*
X162400000Y-113600000D02*
X139200000Y-113600000D01*
X139200000Y-113600000D02*
X138200000Y-112600000D01*
%TO.N,Net-(Q1-C)*%
X147138235Y-107338235D02*
X145876470Y-108600000D01*
X145876470Y-108600000D02*
X143800000Y-108600000D01*
%TO.N,+16V*%
X149800000Y-85200000D02*
X149550000Y-85200000D01*
X149550000Y-85200000D02*
X145400000Y-89350000D01*
X156875000Y-86720000D02*
X156875000Y-86075000D01*
X156875000Y-86075000D02*
X156000000Y-85200000D01*
%TO.N,Net-(C12-Pad1)*%
X151875000Y-86720000D02*
X151875000Y-85325000D01*
X158400000Y-84600000D02*
X159800000Y-86000000D01*
X151875000Y-85325000D02*
X152600000Y-84600000D01*
X152600000Y-84600000D02*
X158400000Y-84600000D01*
X159800000Y-86000000D02*
X159800000Y-86720000D01*
%TO.N,Net-(J2-Pin_1)*%
X145800000Y-103840000D02*
X145800000Y-103600000D01*
X145800000Y-103600000D02*
X151800000Y-97600000D01*
X151800000Y-97600000D02*
X151800000Y-96180000D01*
X154100000Y-90400000D02*
X154100000Y-93880000D01*
X154100000Y-93880000D02*
X151800000Y-96180000D01*
%TO.N,Net-(C12-Pad1)*%
X151875000Y-86720000D02*
X150280000Y-86720000D01*
X150280000Y-86720000D02*
X148890000Y-88110000D01*
X148890000Y-88110000D02*
X148890000Y-90350000D01*
X148890000Y-90350000D02*
X149500000Y-90960000D01*
%TO.N,Net-(J2-Pin_1)*%
X154100000Y-90400000D02*
X153125000Y-89425000D01*
X150075000Y-89425000D02*
X149500000Y-90000000D01*
X153125000Y-89425000D02*
X150075000Y-89425000D01*
%TO.N,Net-(D5-K)*%
X162200000Y-91845000D02*
X161025000Y-90670000D01*
X161025000Y-90670000D02*
X161025000Y-88135000D01*
X161025000Y-88135000D02*
X161190000Y-87970000D01*
X158000000Y-92020000D02*
X162025000Y-92020000D01*
X162025000Y-92020000D02*
X162200000Y-91845000D01*
X154800000Y-86720000D02*
X156050000Y-87970000D01*
X156050000Y-87970000D02*
X161190000Y-87970000D01*
X161190000Y-87970000D02*
X161840000Y-87320000D01*
%TO.N,Net-(Q1-C)*%
X141600000Y-101125000D02*
X138800000Y-103925000D01*
X138800000Y-103925000D02*
X138800000Y-108860000D01*
X138800000Y-108860000D02*
X138260000Y-109400000D01*
X138260000Y-109400000D02*
X138600000Y-109400000D01*
X139800000Y-108200000D02*
X143400000Y-108200000D01*
X138600000Y-109400000D02*
X139800000Y-108200000D01*
X143400000Y-108200000D02*
X143800000Y-108600000D01*
%TO.N,-16V*%
X136800000Y-104000000D02*
X136800000Y-101900000D01*
X136300000Y-101400000D02*
X136800000Y-101900000D01*
X136800000Y-101900000D02*
X136820000Y-101920000D01*
%TO.N,Net-(D1-A)*%
X138260000Y-117020000D02*
X131600000Y-110360000D01*
X131600000Y-110360000D02*
X131600000Y-103600000D01*
X131600000Y-103600000D02*
X133000000Y-102200000D01*
X133000000Y-102200000D02*
X133000000Y-101400000D01*
%TO.N,-16V*%
X170600000Y-113000000D02*
X164400000Y-119200000D01*
X164400000Y-119200000D02*
X141360000Y-119200000D01*
%TO.N,Net-(J2-Pin_1)*%
X158600000Y-112600000D02*
X158600000Y-111420000D01*
%TO.N,-16V*%
X141360000Y-119200000D02*
X141360000Y-117580000D01*
X141360000Y-117580000D02*
X140800000Y-117020000D01*
%TO.N,+16V*%
X137200000Y-99151304D02*
X134800000Y-101551304D01*
X134250000Y-96200000D02*
X136400000Y-96200000D01*
X136400000Y-96200000D02*
X137200000Y-97000000D01*
X133000000Y-97450000D02*
X134250000Y-96200000D01*
X137200000Y-97000000D02*
X137200000Y-99151304D01*
X134800000Y-101551304D02*
X134800000Y-107000000D01*
%TO.N,-16V*%
X135200000Y-93000000D02*
X135600000Y-93000000D01*
X137800000Y-100200000D02*
X136600000Y-101400000D01*
X135600000Y-93000000D02*
X137800000Y-95200000D01*
X137800000Y-95200000D02*
X137800000Y-100200000D01*
X136600000Y-101400000D02*
X136300000Y-101400000D01*
%TO.N,+16V*%
X134800000Y-107000000D02*
X134800000Y-108480000D01*
%TO.N,Net-(J2-Pin_1)*%
X146800000Y-105400000D02*
X146800000Y-104600000D01*
X142610000Y-105800000D02*
X146400000Y-105800000D01*
X141250000Y-104440000D02*
X142610000Y-105800000D01*
X146400000Y-105800000D02*
X146800000Y-105400000D01*
X146800000Y-104600000D02*
X146040000Y-103840000D01*
X146040000Y-103840000D02*
X145800000Y-103840000D01*
%TO.N,Net-(C16-Pad2)*%
X141600000Y-98200000D02*
X144525000Y-101125000D01*
X144525000Y-101125000D02*
X145290000Y-101125000D01*
X143950000Y-104440000D02*
X143950000Y-102465000D01*
X143950000Y-102465000D02*
X145290000Y-101125000D01*
X143950000Y-104440000D02*
X145440000Y-104440000D01*
X145440000Y-104440000D02*
X145800000Y-104800000D01*
%TO.N,Net-(D5-A)*%
X143800000Y-111525000D02*
X155800000Y-99525000D01*
X155800000Y-95729339D02*
X157929339Y-93600000D01*
X155800000Y-99525000D02*
X155800000Y-95729339D01*
X157929339Y-93600000D02*
X166200000Y-93600000D01*
D37*
%TO.N,Net-(D6-K)*%
X165800000Y-113000000D02*
X167800000Y-113000000D01*
D36*
%TO.N,Net-(D5-K)*%
X166200000Y-89040000D02*
X174040000Y-89040000D01*
X174040000Y-89040000D02*
X189200000Y-104200000D01*
D38*
%TO.N,Net-(Q2-E)*%
X151800000Y-111420000D02*
X159420000Y-103800000D01*
X159420000Y-103800000D02*
X166200000Y-103800000D01*
D36*
%TO.N,Net-(D5-A)*%
X162800000Y-87320000D02*
X162800000Y-88320000D01*
X162800000Y-88320000D02*
X162200000Y-88920000D01*
X158200000Y-88920000D02*
X158000000Y-88720000D01*
%TO.N,Net-(D5-K)*%
X161840000Y-87320000D02*
X161863866Y-87320000D01*
X162473866Y-86710000D02*
X163870000Y-86710000D01*
X161863866Y-87320000D02*
X162473866Y-86710000D01*
X163870000Y-86710000D02*
X166200000Y-89040000D01*
%TO.N,Net-(C12-Pad1)*%
X151875000Y-89925000D02*
X151400000Y-90400000D01*
X149500000Y-90960000D02*
X150840000Y-90960000D01*
X150840000Y-90960000D02*
X151400000Y-90400000D01*
%TO.N,+16V*%
X134800000Y-108480000D02*
X135720000Y-109400000D01*
%TO.N,Net-(D1-A)*%
X136300000Y-97450000D02*
X136300000Y-98100000D01*
X136300000Y-98100000D02*
X133000000Y-101400000D01*
X131100000Y-99775000D02*
X131375000Y-99775000D01*
X131375000Y-99775000D02*
X133000000Y-101400000D01*
X129300000Y-99135000D02*
X130301544Y-99135000D01*
X130301544Y-99135000D02*
X130941544Y-99775000D01*
X130941544Y-99775000D02*
X131100000Y-99775000D01*
%TO.N,Net-(J1-Pin_2)*%
X123200000Y-98520000D02*
X124455000Y-99775000D01*
X124455000Y-99775000D02*
X129300000Y-99775000D01*
%TO.N,+16V*%
X133000000Y-97450000D02*
X133000000Y-92765256D01*
X135565256Y-90200000D02*
X139675000Y-90200000D01*
X133000000Y-92765256D02*
X135565256Y-90200000D01*
X139675000Y-90200000D02*
X141875000Y-88000000D01*
%TO.N,-16V*%
X145400000Y-94350000D02*
X145400000Y-98090000D01*
X145400000Y-98090000D02*
X145290000Y-98200000D01*
X141875000Y-93000000D02*
X141875000Y-94435000D01*
X141875000Y-94435000D02*
X142640000Y-95200000D01*
X141875000Y-93000000D02*
X143225000Y-94350000D01*
X143225000Y-94350000D02*
X145400000Y-94350000D01*
%TO.N,+16V*%
X143560000Y-85600000D02*
X143560000Y-86315000D01*
X143560000Y-86315000D02*
X141875000Y-88000000D01*
X141875000Y-88000000D02*
X143225000Y-89350000D01*
X143225000Y-89350000D02*
X145400000Y-89350000D01*
%TO.N,-16V*%
X135200000Y-93000000D02*
X136675000Y-91525000D01*
X136675000Y-91525000D02*
X140400000Y-91525000D01*
X140400000Y-91525000D02*
X141875000Y-93000000D01*
%TO.N,+16V*%
X131200000Y-88000000D02*
X132675000Y-86525000D01*
X132675000Y-86525000D02*
X140400000Y-86525000D01*
X140400000Y-86525000D02*
X141875000Y-88000000D01*
%TO.N,VEE*%
X129000000Y-91400000D02*
X129600000Y-91400000D01*
X129600000Y-91400000D02*
X131200000Y-93000000D01*
%TO.N,VCC*%
X129000000Y-89865000D02*
X133335000Y-89865000D01*
X133335000Y-89865000D02*
X135200000Y-88000000D01*
X129000000Y-89865000D02*
X124945000Y-89865000D01*
X124945000Y-89865000D02*
X123200000Y-88120000D01*
%TO.N,VEE*%
X129000000Y-91400000D02*
X123940000Y-91400000D01*
X123940000Y-91400000D02*
X123200000Y-90660000D01*
%TO.N,Net-(D5-A)*%
X162200000Y-88920000D02*
X162200000Y-89600000D01*
X162200000Y-89600000D02*
X166200000Y-93600000D01*
D38*
%TO.N,Net-(Q3-E)*%
X189200000Y-108760000D02*
X183360000Y-108760000D01*
X170780000Y-96180000D02*
X158600000Y-96180000D01*
X183360000Y-108760000D02*
X170780000Y-96180000D01*
%TD*%
%TA.AperFunction,Conductor*%
%TO.N,GND*%
G36*
X149745885Y-85999467D02*
G01*
X149799998Y-86005565D01*
X149800000Y-86005565D01*
X149800001Y-86005565D01*
X149809944Y-86004444D01*
X149851101Y-85999807D01*
X149919922Y-86011861D01*
X149971302Y-86059209D01*
X149988927Y-86126820D01*
X149967201Y-86193226D01*
X149926987Y-86230413D01*
X149911287Y-86239477D01*
X149911282Y-86239481D01*
X148409481Y-87741282D01*
X148409475Y-87741290D01*
X148359730Y-87827453D01*
X148359730Y-87827454D01*
X148330423Y-87878215D01*
X148289499Y-88030943D01*
X148289499Y-88030945D01*
X148289499Y-88199046D01*
X148289500Y-88199059D01*
X148289500Y-90263330D01*
X148289499Y-90263348D01*
X148289499Y-90429054D01*
X148289498Y-90429054D01*
X148330423Y-90581786D01*
X148341227Y-90600497D01*
X148341228Y-90600502D01*
X148341229Y-90600502D01*
X148409475Y-90718709D01*
X148409481Y-90718717D01*
X148528349Y-90837585D01*
X148528355Y-90837590D01*
X148653181Y-90962416D01*
X148686666Y-91023739D01*
X148689500Y-91050097D01*
X148689500Y-91164697D01*
X148692356Y-91200991D01*
X148692357Y-91200997D01*
X148737504Y-91356390D01*
X148737505Y-91356393D01*
X148737506Y-91356395D01*
X148763975Y-91401152D01*
X148819881Y-91495684D01*
X148819887Y-91495692D01*
X148934307Y-91610112D01*
X148934311Y-91610115D01*
X148934313Y-91610117D01*
X149073605Y-91692494D01*
X149114587Y-91704400D01*
X149229002Y-91737642D01*
X149229005Y-91737642D01*
X149229007Y-91737643D01*
X149265310Y-91740500D01*
X149265318Y-91740500D01*
X149734682Y-91740500D01*
X149734690Y-91740500D01*
X149770993Y-91737643D01*
X149770995Y-91737642D01*
X149770997Y-91737642D01*
X149861021Y-91711487D01*
X149926395Y-91692494D01*
X150065687Y-91610117D01*
X150069462Y-91606342D01*
X150078986Y-91596819D01*
X150140309Y-91563334D01*
X150166667Y-91560500D01*
X150753331Y-91560500D01*
X150753347Y-91560501D01*
X150760943Y-91560501D01*
X150763620Y-91560501D01*
X150790323Y-91564809D01*
X150790586Y-91563582D01*
X150797201Y-91564998D01*
X150797203Y-91564999D01*
X150899991Y-91575500D01*
X151900008Y-91575499D01*
X151900016Y-91575498D01*
X151900019Y-91575498D01*
X151956302Y-91569748D01*
X152002797Y-91564999D01*
X152169334Y-91509814D01*
X152318656Y-91417712D01*
X152442712Y-91293656D01*
X152534814Y-91144334D01*
X152589999Y-90977797D01*
X152600500Y-90875009D01*
X152600499Y-90149499D01*
X152620183Y-90082461D01*
X152672987Y-90036706D01*
X152724499Y-90025500D01*
X152775500Y-90025500D01*
X152842539Y-90045185D01*
X152888294Y-90097989D01*
X152899500Y-90149500D01*
X152899500Y-90875001D01*
X152899501Y-90875019D01*
X152910000Y-90977796D01*
X152910001Y-90977797D01*
X152965185Y-91144331D01*
X152965187Y-91144336D01*
X152977746Y-91164697D01*
X153057288Y-91293656D01*
X153181344Y-91417712D01*
X153330666Y-91509814D01*
X153414505Y-91537595D01*
X153471948Y-91577366D01*
X153498772Y-91641882D01*
X153499500Y-91655300D01*
X153499500Y-93579902D01*
X153479815Y-93646941D01*
X153463181Y-93667583D01*
X152562937Y-94567826D01*
X152501614Y-94601311D01*
X152431922Y-94596327D01*
X152425523Y-94593600D01*
X152423008Y-94592612D01*
X152179466Y-94517489D01*
X152179462Y-94517488D01*
X152179458Y-94517487D01*
X152058231Y-94499214D01*
X151927440Y-94479500D01*
X151927435Y-94479500D01*
X151672565Y-94479500D01*
X151672559Y-94479500D01*
X151515609Y-94503157D01*
X151420542Y-94517487D01*
X151420539Y-94517488D01*
X151420533Y-94517489D01*
X151176992Y-94592612D01*
X150947373Y-94703190D01*
X150947372Y-94703191D01*
X150736782Y-94846768D01*
X150549952Y-95020121D01*
X150549950Y-95020123D01*
X150391041Y-95219388D01*
X150263608Y-95440109D01*
X150170492Y-95677362D01*
X150170490Y-95677369D01*
X150113777Y-95925845D01*
X150094732Y-96179995D01*
X150094732Y-96180004D01*
X150113777Y-96434154D01*
X150156642Y-96621959D01*
X150170492Y-96682637D01*
X150245200Y-96872989D01*
X150263608Y-96919890D01*
X150267882Y-96927292D01*
X150391041Y-97140612D01*
X150549950Y-97339877D01*
X150699072Y-97478241D01*
X150736786Y-97513235D01*
X150791953Y-97550847D01*
X150836255Y-97604876D01*
X150844313Y-97674279D01*
X150813570Y-97737022D01*
X150809782Y-97740981D01*
X146866704Y-101684059D01*
X146805381Y-101717544D01*
X146735689Y-101712560D01*
X146679756Y-101670688D01*
X146655339Y-101605224D01*
X146655665Y-101583775D01*
X146656310Y-101577468D01*
X146665500Y-101487509D01*
X146665499Y-100762492D01*
X146662491Y-100733050D01*
X146654999Y-100659703D01*
X146654998Y-100659700D01*
X146641500Y-100618966D01*
X146599814Y-100493166D01*
X146507712Y-100343844D01*
X146383656Y-100219788D01*
X146234334Y-100127686D01*
X146067797Y-100072501D01*
X146067795Y-100072500D01*
X145965010Y-100062000D01*
X144614998Y-100062000D01*
X144614981Y-100062001D01*
X144512203Y-100072500D01*
X144512196Y-100072502D01*
X144441743Y-100095848D01*
X144371915Y-100098249D01*
X144315059Y-100065823D01*
X143001986Y-98752750D01*
X142968501Y-98691427D01*
X142966309Y-98652470D01*
X142975500Y-98562509D01*
X142975499Y-97837492D01*
X142968498Y-97768961D01*
X142964999Y-97734703D01*
X142964998Y-97734700D01*
X142939186Y-97656805D01*
X142909814Y-97568166D01*
X142817712Y-97418844D01*
X142693656Y-97294788D01*
X142544334Y-97202686D01*
X142377797Y-97147501D01*
X142377795Y-97147500D01*
X142275010Y-97137000D01*
X140924998Y-97137000D01*
X140924981Y-97137001D01*
X140822203Y-97147500D01*
X140822200Y-97147501D01*
X140655668Y-97202685D01*
X140655663Y-97202687D01*
X140506342Y-97294789D01*
X140382289Y-97418842D01*
X140290187Y-97568163D01*
X140290186Y-97568166D01*
X140235001Y-97734703D01*
X140235001Y-97734704D01*
X140235000Y-97734704D01*
X140224500Y-97837483D01*
X140224500Y-98562501D01*
X140224501Y-98562519D01*
X140235000Y-98665296D01*
X140235001Y-98665299D01*
X140290185Y-98831831D01*
X140290187Y-98831836D01*
X140307075Y-98859216D01*
X140382288Y-98981156D01*
X140506344Y-99105212D01*
X140655666Y-99197314D01*
X140822203Y-99252499D01*
X140924991Y-99263000D01*
X141762402Y-99262999D01*
X141829441Y-99282683D01*
X141850083Y-99299318D01*
X142404733Y-99853968D01*
X142438218Y-99915291D01*
X142433234Y-99984983D01*
X142391362Y-100040916D01*
X142325898Y-100065333D01*
X142304452Y-100065007D01*
X142275023Y-100062001D01*
X142275014Y-100062000D01*
X142275009Y-100062000D01*
X142275003Y-100062000D01*
X140924998Y-100062000D01*
X140924981Y-100062001D01*
X140822203Y-100072500D01*
X140822200Y-100072501D01*
X140655668Y-100127685D01*
X140655663Y-100127687D01*
X140506342Y-100219789D01*
X140382289Y-100343842D01*
X140290187Y-100493163D01*
X140290185Y-100493168D01*
X140274064Y-100541818D01*
X140235001Y-100659703D01*
X140235001Y-100659704D01*
X140235000Y-100659704D01*
X140224500Y-100762483D01*
X140224500Y-101487501D01*
X140224501Y-101487519D01*
X140233690Y-101577468D01*
X140220920Y-101646161D01*
X140198013Y-101677750D01*
X138431286Y-103444478D01*
X138319481Y-103556282D01*
X138319477Y-103556287D01*
X138273855Y-103635309D01*
X138273855Y-103635310D01*
X138240423Y-103693214D01*
X138235459Y-103711741D01*
X138199499Y-103845943D01*
X138199499Y-103845945D01*
X138199499Y-104014046D01*
X138199500Y-104014059D01*
X138199500Y-107986200D01*
X138179815Y-108053239D01*
X138127011Y-108098994D01*
X138086308Y-108109728D01*
X138033312Y-108114364D01*
X138033302Y-108114366D01*
X137813511Y-108173258D01*
X137813502Y-108173261D01*
X137607267Y-108269431D01*
X137607265Y-108269432D01*
X137420858Y-108399954D01*
X137259954Y-108560858D01*
X137129432Y-108747265D01*
X137129431Y-108747267D01*
X137110310Y-108788272D01*
X137104200Y-108801377D01*
X137102382Y-108805275D01*
X137056209Y-108857714D01*
X136989016Y-108876866D01*
X136922135Y-108856650D01*
X136877618Y-108805275D01*
X136850568Y-108747266D01*
X136720047Y-108560861D01*
X136720045Y-108560858D01*
X136559141Y-108399954D01*
X136372734Y-108269432D01*
X136372732Y-108269431D01*
X136166497Y-108173261D01*
X136166488Y-108173258D01*
X135946697Y-108114366D01*
X135946693Y-108114365D01*
X135946692Y-108114365D01*
X135946691Y-108114364D01*
X135946686Y-108114364D01*
X135720002Y-108094532D01*
X135719998Y-108094532D01*
X135535307Y-108110690D01*
X135466807Y-108096923D01*
X135416624Y-108048308D01*
X135400500Y-107987162D01*
X135400500Y-107937845D01*
X135420185Y-107870806D01*
X135472989Y-107825051D01*
X135484919Y-107823335D01*
X135510000Y-107804504D01*
X135510000Y-107804503D01*
X136010000Y-107804503D01*
X136156195Y-107762031D01*
X136295374Y-107679721D01*
X136295383Y-107679714D01*
X136409714Y-107565383D01*
X136409721Y-107565374D01*
X136492031Y-107426195D01*
X136492033Y-107426190D01*
X136537144Y-107270918D01*
X136537145Y-107270912D01*
X136538790Y-107250000D01*
X136010000Y-107250000D01*
X136010000Y-107804503D01*
X135510000Y-107804503D01*
X135510000Y-107498352D01*
X135527267Y-107435233D01*
X135532494Y-107426395D01*
X135577643Y-107270993D01*
X135580500Y-107234690D01*
X135580500Y-106765310D01*
X135577643Y-106729007D01*
X135570597Y-106704756D01*
X135532495Y-106573608D01*
X135532492Y-106573600D01*
X135527266Y-106564763D01*
X135510000Y-106501645D01*
X135510000Y-106195494D01*
X136010000Y-106195494D01*
X136010000Y-106750000D01*
X136538790Y-106750000D01*
X136537145Y-106729089D01*
X136492031Y-106573804D01*
X136409721Y-106434625D01*
X136409714Y-106434616D01*
X136295383Y-106320285D01*
X136295374Y-106320278D01*
X136156193Y-106237967D01*
X136156190Y-106237965D01*
X136010001Y-106195493D01*
X136010000Y-106195494D01*
X135510000Y-106195494D01*
X135490738Y-106181032D01*
X135489219Y-106181028D01*
X135430551Y-106143082D01*
X135401711Y-106079442D01*
X135400500Y-106062153D01*
X135400500Y-102425874D01*
X135420185Y-102358835D01*
X135472989Y-102313080D01*
X135542147Y-102303136D01*
X135605703Y-102332161D01*
X135612181Y-102338193D01*
X135621955Y-102347967D01*
X135621959Y-102347970D01*
X135766294Y-102436998D01*
X135766297Y-102436999D01*
X135766303Y-102437003D01*
X135927292Y-102490349D01*
X136026655Y-102500500D01*
X136075500Y-102500499D01*
X136142537Y-102520182D01*
X136188293Y-102572985D01*
X136199500Y-102624499D01*
X136199500Y-103417587D01*
X136179815Y-103484626D01*
X136172450Y-103494896D01*
X136170186Y-103497734D01*
X136074211Y-103650476D01*
X136014631Y-103820745D01*
X136014630Y-103820750D01*
X135994435Y-103999996D01*
X135994435Y-104000003D01*
X136014630Y-104179249D01*
X136014631Y-104179254D01*
X136074211Y-104349523D01*
X136170184Y-104502262D01*
X136297738Y-104629816D01*
X136388080Y-104686582D01*
X136441791Y-104720331D01*
X136450478Y-104725789D01*
X136620745Y-104785368D01*
X136620750Y-104785369D01*
X136799996Y-104805565D01*
X136800000Y-104805565D01*
X136800004Y-104805565D01*
X136979249Y-104785369D01*
X136979252Y-104785368D01*
X136979255Y-104785368D01*
X137149522Y-104725789D01*
X137302262Y-104629816D01*
X137429816Y-104502262D01*
X137525789Y-104349522D01*
X137585368Y-104179255D01*
X137585990Y-104173735D01*
X137605565Y-104000003D01*
X137605565Y-103999996D01*
X137585369Y-103820750D01*
X137585368Y-103820745D01*
X137554061Y-103731276D01*
X137525789Y-103650478D01*
X137429816Y-103497738D01*
X137429814Y-103497736D01*
X137429813Y-103497734D01*
X137427550Y-103494896D01*
X137426659Y-103492715D01*
X137426111Y-103491842D01*
X137426264Y-103491745D01*
X137401144Y-103430209D01*
X137400500Y-103417587D01*
X137400500Y-102090023D01*
X137404725Y-102057930D01*
X137407926Y-102045983D01*
X137420500Y-101999057D01*
X137420500Y-101840942D01*
X137379577Y-101688215D01*
X137379576Y-101688214D01*
X137379576Y-101688212D01*
X137347154Y-101632058D01*
X137330680Y-101564158D01*
X137353532Y-101498130D01*
X137366853Y-101482380D01*
X138158506Y-100690727D01*
X138158511Y-100690724D01*
X138168714Y-100680520D01*
X138168716Y-100680520D01*
X138280520Y-100568716D01*
X138284131Y-100562460D01*
X138347886Y-100452035D01*
X138347887Y-100452033D01*
X138352630Y-100443816D01*
X138359577Y-100431785D01*
X138400500Y-100279058D01*
X138400500Y-100120943D01*
X138400500Y-95289059D01*
X138400501Y-95289046D01*
X138400501Y-95120945D01*
X138400501Y-95120943D01*
X138359577Y-94968215D01*
X138359575Y-94968212D01*
X138359575Y-94968210D01*
X138359574Y-94968209D01*
X138325723Y-94909578D01*
X138325721Y-94909576D01*
X138318113Y-94896399D01*
X138297674Y-94860997D01*
X138281203Y-94793098D01*
X138304056Y-94727071D01*
X138358978Y-94683881D01*
X138405063Y-94674999D01*
X138549999Y-94674999D01*
X139050000Y-94674999D01*
X139262472Y-94674999D01*
X139262486Y-94674998D01*
X139365197Y-94664505D01*
X139531619Y-94609358D01*
X139531624Y-94609356D01*
X139680845Y-94517315D01*
X139804815Y-94393345D01*
X139896856Y-94244124D01*
X139896858Y-94244119D01*
X139952005Y-94077697D01*
X139952006Y-94077690D01*
X139962499Y-93974986D01*
X139962500Y-93974973D01*
X139962500Y-93250000D01*
X139050000Y-93250000D01*
X139050000Y-94674999D01*
X138549999Y-94674999D01*
X138550000Y-94674998D01*
X138550000Y-93250000D01*
X137637501Y-93250000D01*
X137637501Y-93888904D01*
X137617816Y-93955943D01*
X137565012Y-94001698D01*
X137495854Y-94011642D01*
X137432298Y-93982617D01*
X137425820Y-93976585D01*
X136986818Y-93537583D01*
X136953333Y-93476260D01*
X136950499Y-93449902D01*
X136950499Y-92299998D01*
X136950499Y-92299992D01*
X136948769Y-92283059D01*
X136946629Y-92262100D01*
X136959399Y-92193407D01*
X137007281Y-92142524D01*
X137069987Y-92125500D01*
X137513500Y-92125500D01*
X137580539Y-92145185D01*
X137626294Y-92197989D01*
X137637500Y-92249500D01*
X137637500Y-92750000D01*
X139962499Y-92750000D01*
X139962499Y-92249500D01*
X139982184Y-92182461D01*
X140034988Y-92136706D01*
X140086499Y-92125500D01*
X140099903Y-92125500D01*
X140166942Y-92145185D01*
X140187584Y-92161819D01*
X140675681Y-92649916D01*
X140709166Y-92711239D01*
X140712000Y-92737597D01*
X140712000Y-93975001D01*
X140712001Y-93975018D01*
X140722500Y-94077796D01*
X140722501Y-94077799D01*
X140777685Y-94244331D01*
X140777687Y-94244336D01*
X140779851Y-94247844D01*
X140869788Y-94393656D01*
X140993844Y-94517712D01*
X141143166Y-94609814D01*
X141270712Y-94652078D01*
X141328155Y-94691849D01*
X141339093Y-94707783D01*
X141394477Y-94803712D01*
X141394481Y-94803717D01*
X141513349Y-94922585D01*
X141513355Y-94922590D01*
X141823181Y-95232416D01*
X141856666Y-95293739D01*
X141859500Y-95320097D01*
X141859500Y-95434697D01*
X141862356Y-95470991D01*
X141862357Y-95470997D01*
X141907504Y-95626390D01*
X141907505Y-95626393D01*
X141989881Y-95765684D01*
X141989887Y-95765692D01*
X142104307Y-95880112D01*
X142104311Y-95880115D01*
X142104313Y-95880117D01*
X142243605Y-95962494D01*
X142247746Y-95963697D01*
X142399002Y-96007642D01*
X142399005Y-96007642D01*
X142399007Y-96007643D01*
X142435310Y-96010500D01*
X142435318Y-96010500D01*
X142844682Y-96010500D01*
X142844690Y-96010500D01*
X142880993Y-96007643D01*
X142880995Y-96007642D01*
X142880997Y-96007642D01*
X142921975Y-95995736D01*
X143036395Y-95962494D01*
X143057369Y-95950089D01*
X143125088Y-95932906D01*
X143183613Y-95950090D01*
X143203803Y-95962031D01*
X143350000Y-96004504D01*
X143350000Y-95698352D01*
X143367267Y-95635233D01*
X143372494Y-95626395D01*
X143409188Y-95500097D01*
X143417642Y-95470997D01*
X143417643Y-95470991D01*
X143420500Y-95434690D01*
X143420500Y-95324000D01*
X143440185Y-95256961D01*
X143492989Y-95211206D01*
X143544500Y-95200000D01*
X143726000Y-95200000D01*
X143793039Y-95219685D01*
X143838794Y-95272489D01*
X143850000Y-95324000D01*
X143850000Y-96004503D01*
X143996195Y-95962031D01*
X144135374Y-95879721D01*
X144135383Y-95879714D01*
X144249714Y-95765383D01*
X144249721Y-95765374D01*
X144332031Y-95626195D01*
X144375379Y-95476988D01*
X144412985Y-95418102D01*
X144476458Y-95388895D01*
X144533457Y-95393875D01*
X144597203Y-95414999D01*
X144688103Y-95424285D01*
X144752794Y-95450681D01*
X144792945Y-95507861D01*
X144799500Y-95547643D01*
X144799500Y-97013000D01*
X144779815Y-97080039D01*
X144727011Y-97125794D01*
X144675502Y-97137000D01*
X144614999Y-97137000D01*
X144614980Y-97137001D01*
X144512203Y-97147500D01*
X144512200Y-97147501D01*
X144345668Y-97202685D01*
X144345663Y-97202687D01*
X144196342Y-97294789D01*
X144072289Y-97418842D01*
X143980187Y-97568163D01*
X143980186Y-97568166D01*
X143925001Y-97734703D01*
X143925001Y-97734704D01*
X143925000Y-97734704D01*
X143914500Y-97837483D01*
X143914500Y-98562501D01*
X143914501Y-98562519D01*
X143925000Y-98665296D01*
X143925001Y-98665299D01*
X143980185Y-98831831D01*
X143980187Y-98831836D01*
X143997075Y-98859216D01*
X144072288Y-98981156D01*
X144196344Y-99105212D01*
X144345666Y-99197314D01*
X144512203Y-99252499D01*
X144614991Y-99263000D01*
X145965008Y-99262999D01*
X146067797Y-99252499D01*
X146234334Y-99197314D01*
X146383656Y-99105212D01*
X146507712Y-98981156D01*
X146599814Y-98831834D01*
X146654999Y-98665297D01*
X146665500Y-98562509D01*
X146665499Y-97837492D01*
X146658498Y-97768961D01*
X146654999Y-97734703D01*
X146654998Y-97734700D01*
X146629186Y-97656805D01*
X146599814Y-97568166D01*
X146507712Y-97418844D01*
X146383656Y-97294788D01*
X146234334Y-97202686D01*
X146085495Y-97153365D01*
X146028051Y-97113593D01*
X146001228Y-97049077D01*
X146000500Y-97035660D01*
X146000500Y-95547642D01*
X146020185Y-95480603D01*
X146072989Y-95434848D01*
X146111897Y-95424284D01*
X146202797Y-95414999D01*
X146369334Y-95359814D01*
X146518656Y-95267712D01*
X146642712Y-95143656D01*
X146734814Y-94994334D01*
X146789999Y-94827797D01*
X146800500Y-94725009D01*
X146800499Y-93974992D01*
X146798871Y-93959058D01*
X146789999Y-93872203D01*
X146789998Y-93872200D01*
X146777370Y-93834091D01*
X146734814Y-93705666D01*
X146642712Y-93556344D01*
X146518656Y-93432288D01*
X146369334Y-93340186D01*
X146202797Y-93285001D01*
X146202795Y-93285000D01*
X146100010Y-93274500D01*
X144699998Y-93274500D01*
X144699981Y-93274501D01*
X144597203Y-93285000D01*
X144597200Y-93285001D01*
X144430668Y-93340185D01*
X144430663Y-93340187D01*
X144281342Y-93432289D01*
X144157289Y-93556342D01*
X144157288Y-93556344D01*
X144080944Y-93680119D01*
X144074481Y-93690597D01*
X144022533Y-93737321D01*
X143968942Y-93749500D01*
X143525097Y-93749500D01*
X143458058Y-93729815D01*
X143437416Y-93713181D01*
X143074318Y-93350083D01*
X143040833Y-93288760D01*
X143037999Y-93262402D01*
X143037999Y-92024998D01*
X143037998Y-92024981D01*
X143027499Y-91922203D01*
X143027498Y-91922200D01*
X143022374Y-91906737D01*
X142978716Y-91774986D01*
X144000001Y-91774986D01*
X144010494Y-91877697D01*
X144065641Y-92044119D01*
X144065643Y-92044124D01*
X144157684Y-92193345D01*
X144281654Y-92317315D01*
X144430875Y-92409356D01*
X144430880Y-92409358D01*
X144597302Y-92464505D01*
X144597309Y-92464506D01*
X144700019Y-92474999D01*
X145149999Y-92474999D01*
X145650000Y-92474999D01*
X146099972Y-92474999D01*
X146099986Y-92474998D01*
X146202697Y-92464505D01*
X146369119Y-92409358D01*
X146369124Y-92409356D01*
X146518345Y-92317315D01*
X146642315Y-92193345D01*
X146734356Y-92044124D01*
X146734358Y-92044119D01*
X146789505Y-91877697D01*
X146789506Y-91877690D01*
X146799999Y-91774986D01*
X146800000Y-91774973D01*
X146800000Y-91650000D01*
X145650000Y-91650000D01*
X145650000Y-92474999D01*
X145149999Y-92474999D01*
X145150000Y-92474998D01*
X145150000Y-91650000D01*
X144000001Y-91650000D01*
X144000001Y-91774986D01*
X142978716Y-91774986D01*
X142972314Y-91755666D01*
X142880212Y-91606344D01*
X142756156Y-91482288D01*
X142606834Y-91390186D01*
X142440297Y-91335001D01*
X142440295Y-91335000D01*
X142337510Y-91324500D01*
X141412498Y-91324500D01*
X141412480Y-91324501D01*
X141309703Y-91335000D01*
X141309700Y-91335001D01*
X141194177Y-91373282D01*
X141124348Y-91375684D01*
X141067492Y-91343257D01*
X140887590Y-91163355D01*
X140887588Y-91163352D01*
X140768717Y-91044481D01*
X140768709Y-91044475D01*
X140653218Y-90977797D01*
X140653217Y-90977796D01*
X140638152Y-90969099D01*
X140631785Y-90965423D01*
X140479057Y-90924499D01*
X140320943Y-90924499D01*
X140313347Y-90924499D01*
X140313331Y-90924500D01*
X140083904Y-90924500D01*
X140016865Y-90904815D01*
X139971110Y-90852011D01*
X139961166Y-90782853D01*
X139990191Y-90719297D01*
X140021906Y-90693112D01*
X140027329Y-90689980D01*
X140043716Y-90680520D01*
X140155520Y-90568716D01*
X140155520Y-90568714D01*
X140165724Y-90558511D01*
X140165728Y-90558506D01*
X141067493Y-89656740D01*
X141128814Y-89623257D01*
X141194175Y-89626716D01*
X141309703Y-89664999D01*
X141412491Y-89675500D01*
X142337508Y-89675499D01*
X142337516Y-89675498D01*
X142337519Y-89675498D01*
X142393802Y-89669748D01*
X142440297Y-89664999D01*
X142555824Y-89626716D01*
X142625650Y-89624315D01*
X142682507Y-89656742D01*
X142740139Y-89714374D01*
X142740149Y-89714385D01*
X142744479Y-89718715D01*
X142744480Y-89718716D01*
X142856284Y-89830520D01*
X142923767Y-89869481D01*
X142993215Y-89909577D01*
X143145942Y-89950500D01*
X143145943Y-89950500D01*
X143968942Y-89950500D01*
X144035981Y-89970185D01*
X144074479Y-90009401D01*
X144157288Y-90143656D01*
X144281344Y-90267712D01*
X144284628Y-90269737D01*
X144284653Y-90269753D01*
X144286445Y-90271746D01*
X144287011Y-90272193D01*
X144286934Y-90272289D01*
X144331379Y-90321699D01*
X144342603Y-90390661D01*
X144314761Y-90454744D01*
X144284665Y-90480826D01*
X144281660Y-90482679D01*
X144281655Y-90482683D01*
X144157684Y-90606654D01*
X144065643Y-90755875D01*
X144065641Y-90755880D01*
X144010494Y-90922302D01*
X144010493Y-90922309D01*
X144000000Y-91025013D01*
X144000000Y-91150000D01*
X146799999Y-91150000D01*
X146799999Y-91025028D01*
X146799998Y-91025013D01*
X146789505Y-90922302D01*
X146734358Y-90755880D01*
X146734356Y-90755875D01*
X146642315Y-90606654D01*
X146518344Y-90482683D01*
X146518341Y-90482681D01*
X146515339Y-90480829D01*
X146513713Y-90479021D01*
X146512677Y-90478202D01*
X146512817Y-90478024D01*
X146468617Y-90428880D01*
X146457397Y-90359917D01*
X146485243Y-90295836D01*
X146515344Y-90269754D01*
X146518656Y-90267712D01*
X146642712Y-90143656D01*
X146734814Y-89994334D01*
X146789999Y-89827797D01*
X146800500Y-89725009D01*
X146800499Y-88974992D01*
X146790150Y-88873686D01*
X146802919Y-88804996D01*
X146825824Y-88773409D01*
X149572339Y-86026894D01*
X149633660Y-85993411D01*
X149673900Y-85991357D01*
X149745885Y-85999467D01*
G37*
%TD.AperFunction*%
%TA.AperFunction,Conductor*%
G36*
X137580539Y-87145185D02*
G01*
X137626294Y-87197989D01*
X137637500Y-87249500D01*
X137637500Y-87750000D01*
X139962499Y-87750000D01*
X139962499Y-87249500D01*
X139982184Y-87182461D01*
X140034988Y-87136706D01*
X140086499Y-87125500D01*
X140099903Y-87125500D01*
X140166942Y-87145185D01*
X140187584Y-87161819D01*
X140675681Y-87649916D01*
X140709166Y-87711239D01*
X140712000Y-87737597D01*
X140712000Y-88262402D01*
X140692315Y-88329441D01*
X140675681Y-88350083D01*
X140174181Y-88851583D01*
X140112858Y-88885068D01*
X140043166Y-88880084D01*
X139987233Y-88838212D01*
X139962816Y-88772748D01*
X139962500Y-88763902D01*
X139962500Y-88250000D01*
X137637501Y-88250000D01*
X137637501Y-88974986D01*
X137647994Y-89077697D01*
X137703141Y-89244119D01*
X137703143Y-89244124D01*
X137795184Y-89393345D01*
X137799332Y-89398591D01*
X137825471Y-89463387D01*
X137812429Y-89532029D01*
X137764347Y-89582723D01*
X137702064Y-89599500D01*
X136488989Y-89599500D01*
X136421950Y-89579815D01*
X136376195Y-89527011D01*
X136366251Y-89457853D01*
X136395276Y-89394297D01*
X136449982Y-89357794D01*
X136519334Y-89334814D01*
X136668656Y-89242712D01*
X136792712Y-89118656D01*
X136884814Y-88969334D01*
X136939999Y-88802797D01*
X136950500Y-88700009D01*
X136950499Y-87299992D01*
X136946629Y-87262104D01*
X136946629Y-87262100D01*
X136959399Y-87193407D01*
X137007281Y-87142524D01*
X137069987Y-87125500D01*
X137513500Y-87125500D01*
X137580539Y-87145185D01*
G37*
%TD.AperFunction*%
%TA.AperFunction,Conductor*%
G36*
X192842539Y-76720185D02*
G01*
X192888294Y-76772989D01*
X192899500Y-76824500D01*
X192899500Y-116643897D01*
X192879815Y-116710936D01*
X192827011Y-116756691D01*
X192757853Y-116766635D01*
X192694297Y-116737610D01*
X192659736Y-116688335D01*
X192584755Y-116493005D01*
X192408689Y-116147456D01*
X192197476Y-115822216D01*
X192197475Y-115822214D01*
X191988902Y-115564650D01*
X190494251Y-117059301D01*
X190420412Y-116957670D01*
X190242330Y-116779588D01*
X190140698Y-116705748D01*
X191635349Y-115211096D01*
X191377785Y-115002525D01*
X191377783Y-115002523D01*
X191052543Y-114791310D01*
X190706994Y-114615244D01*
X190344936Y-114476262D01*
X189970330Y-114375887D01*
X189970323Y-114375886D01*
X189587287Y-114315219D01*
X189200001Y-114294922D01*
X189199999Y-114294922D01*
X188812712Y-114315219D01*
X188429676Y-114375886D01*
X188429669Y-114375887D01*
X188055063Y-114476262D01*
X187693005Y-114615244D01*
X187347456Y-114791310D01*
X187022206Y-115002531D01*
X186764649Y-115211095D01*
X186764649Y-115211096D01*
X188259301Y-116705748D01*
X188157670Y-116779588D01*
X187979588Y-116957670D01*
X187905748Y-117059301D01*
X186411096Y-115564649D01*
X186411095Y-115564649D01*
X186202531Y-115822206D01*
X185991310Y-116147456D01*
X185815244Y-116493005D01*
X185676262Y-116855063D01*
X185575887Y-117229669D01*
X185575886Y-117229676D01*
X185515219Y-117612712D01*
X185494922Y-117999999D01*
X185494922Y-118000000D01*
X185515219Y-118387287D01*
X185575886Y-118770323D01*
X185575887Y-118770330D01*
X185676262Y-119144936D01*
X185815244Y-119506994D01*
X185991310Y-119852543D01*
X186202523Y-120177783D01*
X186202525Y-120177785D01*
X186411096Y-120435348D01*
X187905747Y-118940697D01*
X187979588Y-119042330D01*
X188157670Y-119220412D01*
X188259301Y-119294251D01*
X186764650Y-120788902D01*
X187022214Y-120997475D01*
X187022216Y-120997476D01*
X187347456Y-121208689D01*
X187693005Y-121384755D01*
X188055063Y-121523737D01*
X188429669Y-121624112D01*
X188429676Y-121624113D01*
X188612227Y-121653027D01*
X188675362Y-121682956D01*
X188712293Y-121742268D01*
X188711295Y-121812130D01*
X188672685Y-121870363D01*
X188608722Y-121898477D01*
X188592829Y-121899500D01*
X118824500Y-121899500D01*
X118757461Y-121879815D01*
X118711706Y-121827011D01*
X118700500Y-121775500D01*
X118700500Y-117399999D01*
X119094922Y-117399999D01*
X119094922Y-117400000D01*
X119115219Y-117787287D01*
X119175886Y-118170323D01*
X119175887Y-118170330D01*
X119276262Y-118544936D01*
X119415244Y-118906994D01*
X119591310Y-119252543D01*
X119802523Y-119577783D01*
X119802525Y-119577785D01*
X120011096Y-119835348D01*
X121505747Y-118340697D01*
X121579588Y-118442330D01*
X121757670Y-118620412D01*
X121859301Y-118694251D01*
X120364650Y-120188902D01*
X120622214Y-120397475D01*
X120622216Y-120397476D01*
X120947456Y-120608689D01*
X121293005Y-120784755D01*
X121655063Y-120923737D01*
X122029669Y-121024112D01*
X122029676Y-121024113D01*
X122412712Y-121084780D01*
X122799999Y-121105078D01*
X122800001Y-121105078D01*
X123187287Y-121084780D01*
X123570323Y-121024113D01*
X123570330Y-121024112D01*
X123944936Y-120923737D01*
X124306994Y-120784755D01*
X124652543Y-120608689D01*
X124977771Y-120397484D01*
X124977784Y-120397474D01*
X125235348Y-120188902D01*
X123740698Y-118694252D01*
X123842330Y-118620412D01*
X124020412Y-118442330D01*
X124094252Y-118340698D01*
X125588902Y-119835348D01*
X125797474Y-119577784D01*
X125797484Y-119577771D01*
X125880459Y-119450000D01*
X139621210Y-119450000D01*
X139622854Y-119470910D01*
X139667968Y-119626195D01*
X139750278Y-119765374D01*
X139750285Y-119765383D01*
X139864616Y-119879714D01*
X139864625Y-119879721D01*
X140003804Y-119962031D01*
X140150000Y-120004504D01*
X140150000Y-119450000D01*
X139621210Y-119450000D01*
X125880459Y-119450000D01*
X126008689Y-119252543D01*
X126184755Y-118906994D01*
X126323737Y-118544936D01*
X126424112Y-118170330D01*
X126424113Y-118170323D01*
X126484780Y-117787287D01*
X126505078Y-117400000D01*
X126505078Y-117399999D01*
X126484780Y-117012712D01*
X126424113Y-116629676D01*
X126424112Y-116629669D01*
X126323737Y-116255063D01*
X126184755Y-115893005D01*
X126008689Y-115547456D01*
X125797476Y-115222216D01*
X125797475Y-115222214D01*
X125588902Y-114964650D01*
X124094251Y-116459301D01*
X124020412Y-116357670D01*
X123842330Y-116179588D01*
X123740698Y-116105748D01*
X125235349Y-114611096D01*
X124977785Y-114402525D01*
X124977783Y-114402523D01*
X124652543Y-114191310D01*
X124306994Y-114015244D01*
X123944936Y-113876262D01*
X123570330Y-113775887D01*
X123570323Y-113775886D01*
X123187287Y-113715219D01*
X122800001Y-113694922D01*
X122799999Y-113694922D01*
X122412712Y-113715219D01*
X122029676Y-113775886D01*
X122029669Y-113775887D01*
X121655063Y-113876262D01*
X121293005Y-114015244D01*
X120947456Y-114191310D01*
X120622206Y-114402531D01*
X120364649Y-114611095D01*
X120364649Y-114611096D01*
X121859301Y-116105748D01*
X121757670Y-116179588D01*
X121579588Y-116357670D01*
X121505748Y-116459301D01*
X120011096Y-114964649D01*
X120011095Y-114964649D01*
X119802531Y-115222206D01*
X119591310Y-115547456D01*
X119415244Y-115893005D01*
X119276262Y-116255063D01*
X119175887Y-116629669D01*
X119175886Y-116629676D01*
X119115219Y-117012712D01*
X119094922Y-117399999D01*
X118700500Y-117399999D01*
X118700500Y-88119994D01*
X121694357Y-88119994D01*
X121694357Y-88120005D01*
X121714890Y-88367812D01*
X121714892Y-88367824D01*
X121775936Y-88608881D01*
X121875826Y-88836606D01*
X122011833Y-89044782D01*
X122022423Y-89056286D01*
X122180256Y-89227738D01*
X122263008Y-89292147D01*
X122303821Y-89348857D01*
X122307496Y-89418630D01*
X122272864Y-89479313D01*
X122263014Y-89487848D01*
X122206251Y-89532029D01*
X122180257Y-89552261D01*
X122011833Y-89735217D01*
X121875826Y-89943393D01*
X121775936Y-90171118D01*
X121714892Y-90412175D01*
X121714890Y-90412187D01*
X121694357Y-90659994D01*
X121694357Y-90660005D01*
X121714890Y-90907812D01*
X121714892Y-90907824D01*
X121775936Y-91148881D01*
X121875826Y-91376606D01*
X122007019Y-91577412D01*
X122027206Y-91644301D01*
X122008026Y-91711487D01*
X121962644Y-91754061D01*
X121957912Y-91756644D01*
X121842812Y-91842809D01*
X121842809Y-91842812D01*
X121756649Y-91957906D01*
X121756645Y-91957913D01*
X121706403Y-92092620D01*
X121706401Y-92092627D01*
X121700000Y-92152155D01*
X121700000Y-92950000D01*
X122651518Y-92950000D01*
X122640889Y-92968409D01*
X122600000Y-93121009D01*
X122600000Y-93278991D01*
X122640889Y-93431591D01*
X122651518Y-93450000D01*
X121700000Y-93450000D01*
X121700000Y-94247844D01*
X121706401Y-94307372D01*
X121706403Y-94307379D01*
X121756645Y-94442086D01*
X121756649Y-94442093D01*
X121842809Y-94557187D01*
X121842812Y-94557190D01*
X121957906Y-94643350D01*
X121957913Y-94643354D01*
X122092620Y-94693596D01*
X122092627Y-94693598D01*
X122152155Y-94699999D01*
X122152172Y-94700000D01*
X122950000Y-94700000D01*
X122950000Y-93748482D01*
X122968409Y-93759111D01*
X123121009Y-93800000D01*
X123278991Y-93800000D01*
X123431591Y-93759111D01*
X123450000Y-93748482D01*
X123450000Y-94700000D01*
X124247828Y-94700000D01*
X124247844Y-94699999D01*
X124307372Y-94693598D01*
X124307379Y-94693596D01*
X124442086Y-94643354D01*
X124442093Y-94643350D01*
X124557187Y-94557190D01*
X124557190Y-94557187D01*
X124643350Y-94442093D01*
X124643354Y-94442086D01*
X124693596Y-94307379D01*
X124693598Y-94307372D01*
X124699999Y-94247844D01*
X124700000Y-94247819D01*
X124700000Y-93450000D01*
X123748482Y-93450000D01*
X123759111Y-93431591D01*
X123800000Y-93278991D01*
X123800000Y-93121009D01*
X123759111Y-92968409D01*
X123748482Y-92950000D01*
X124700000Y-92950000D01*
X124700000Y-92152172D01*
X124699999Y-92152171D01*
X124698450Y-92137755D01*
X124710856Y-92068996D01*
X124758466Y-92017858D01*
X124821740Y-92000500D01*
X128240403Y-92000500D01*
X128307442Y-92020185D01*
X128353197Y-92072989D01*
X128363141Y-92142147D01*
X128334116Y-92205703D01*
X128333630Y-92206260D01*
X128304039Y-92240000D01*
X128315442Y-92326627D01*
X128315444Y-92326633D01*
X128375899Y-92472585D01*
X128472075Y-92597924D01*
X128597414Y-92694100D01*
X128743366Y-92754555D01*
X128743372Y-92754557D01*
X128799998Y-92762011D01*
X128800000Y-92762010D01*
X128800000Y-92254499D01*
X128819685Y-92187460D01*
X128872489Y-92141705D01*
X128923996Y-92130499D01*
X129076000Y-92130499D01*
X129143039Y-92150184D01*
X129188794Y-92202988D01*
X129200000Y-92254499D01*
X129200000Y-92762010D01*
X129200001Y-92762011D01*
X129256627Y-92754557D01*
X129256633Y-92754555D01*
X129278046Y-92745686D01*
X129347515Y-92738216D01*
X129409995Y-92769490D01*
X129445648Y-92829578D01*
X129449500Y-92860246D01*
X129449500Y-93700001D01*
X129449501Y-93700019D01*
X129460000Y-93802796D01*
X129460001Y-93802799D01*
X129515185Y-93969331D01*
X129515187Y-93969336D01*
X129518681Y-93975001D01*
X129607288Y-94118656D01*
X129731344Y-94242712D01*
X129880666Y-94334814D01*
X130047203Y-94389999D01*
X130149991Y-94400500D01*
X132250008Y-94400499D01*
X132262897Y-94399182D01*
X132331589Y-94411950D01*
X132382474Y-94459830D01*
X132399500Y-94522540D01*
X132399500Y-96384995D01*
X132379815Y-96452034D01*
X132340600Y-96490532D01*
X132321954Y-96502033D01*
X132202029Y-96621959D01*
X132113001Y-96766294D01*
X132112996Y-96766305D01*
X132059651Y-96927290D01*
X132049500Y-97026647D01*
X132049500Y-97873337D01*
X132049501Y-97873355D01*
X132059650Y-97972707D01*
X132059651Y-97972710D01*
X132112996Y-98133694D01*
X132113001Y-98133705D01*
X132202029Y-98278040D01*
X132202032Y-98278044D01*
X132321955Y-98397967D01*
X132321959Y-98397970D01*
X132466294Y-98486998D01*
X132466297Y-98486999D01*
X132466303Y-98487003D01*
X132627292Y-98540349D01*
X132726655Y-98550500D01*
X133273344Y-98550499D01*
X133273352Y-98550498D01*
X133273355Y-98550498D01*
X133327760Y-98544940D01*
X133372708Y-98540349D01*
X133533697Y-98487003D01*
X133678044Y-98397968D01*
X133797968Y-98278044D01*
X133887003Y-98133697D01*
X133940349Y-97972708D01*
X133950500Y-97873345D01*
X133950499Y-97400095D01*
X133970183Y-97333057D01*
X133986813Y-97312420D01*
X134462416Y-96836819D01*
X134523739Y-96803334D01*
X134550097Y-96800500D01*
X135235291Y-96800500D01*
X135302330Y-96820185D01*
X135348085Y-96872989D01*
X135358649Y-96937103D01*
X135349500Y-97026647D01*
X135349500Y-97873337D01*
X135349501Y-97873355D01*
X135359650Y-97972707D01*
X135359652Y-97972714D01*
X135389951Y-98064152D01*
X135392352Y-98133980D01*
X135359926Y-98190836D01*
X133287583Y-100263181D01*
X133226260Y-100296666D01*
X133199902Y-100299500D01*
X132800097Y-100299500D01*
X132733058Y-100279815D01*
X132712416Y-100263181D01*
X131862590Y-99413355D01*
X131862588Y-99413352D01*
X131837836Y-99388600D01*
X131829370Y-99373096D01*
X131782213Y-99319324D01*
X131768559Y-99315315D01*
X131747917Y-99298681D01*
X131743717Y-99294481D01*
X131743716Y-99294480D01*
X131664955Y-99249007D01*
X131634343Y-99222159D01*
X131634034Y-99222469D01*
X131629310Y-99217746D01*
X131628577Y-99217102D01*
X131628282Y-99216718D01*
X131550943Y-99157374D01*
X131509743Y-99100948D01*
X131505588Y-99031202D01*
X131539801Y-98970281D01*
X131601518Y-98937529D01*
X131626432Y-98935000D01*
X131795959Y-98935000D01*
X131795960Y-98934998D01*
X131784557Y-98848372D01*
X131784555Y-98848366D01*
X131724100Y-98702414D01*
X131627924Y-98577075D01*
X131502586Y-98480899D01*
X131356631Y-98420444D01*
X131300000Y-98412987D01*
X131300000Y-98920500D01*
X131280315Y-98987539D01*
X131227511Y-99033294D01*
X131176000Y-99044500D01*
X131111642Y-99044500D01*
X131044603Y-99024815D01*
X131023961Y-99008181D01*
X130936319Y-98920539D01*
X130902834Y-98859216D01*
X130900000Y-98832858D01*
X130900000Y-98412987D01*
X130843368Y-98420444D01*
X130697412Y-98480900D01*
X130697410Y-98480901D01*
X130612155Y-98546320D01*
X130546986Y-98571514D01*
X130504579Y-98567719D01*
X130380601Y-98534499D01*
X130222487Y-98534499D01*
X130214891Y-98534499D01*
X130214875Y-98534500D01*
X129815354Y-98534500D01*
X129748315Y-98514815D01*
X129739881Y-98508886D01*
X129702841Y-98480464D01*
X129702838Y-98480463D01*
X129702836Y-98480461D01*
X129556765Y-98419957D01*
X129556760Y-98419955D01*
X129439361Y-98404500D01*
X129160636Y-98404500D01*
X129043246Y-98419953D01*
X129043237Y-98419956D01*
X128897160Y-98480463D01*
X128771718Y-98576718D01*
X128675463Y-98702160D01*
X128614956Y-98848237D01*
X128614955Y-98848239D01*
X128599500Y-98965638D01*
X128599500Y-99050500D01*
X128579815Y-99117539D01*
X128527011Y-99163294D01*
X128475500Y-99174500D01*
X124755097Y-99174500D01*
X124688058Y-99154815D01*
X124667416Y-99138181D01*
X124656516Y-99127281D01*
X124623031Y-99065958D01*
X124623992Y-99009159D01*
X124624061Y-99008884D01*
X124624063Y-99008881D01*
X124685108Y-98767821D01*
X124685235Y-98766286D01*
X124705643Y-98520005D01*
X124705643Y-98519994D01*
X124685109Y-98272187D01*
X124685107Y-98272175D01*
X124624063Y-98031118D01*
X124524173Y-97803393D01*
X124388166Y-97595217D01*
X124269967Y-97466819D01*
X124219744Y-97412262D01*
X124023509Y-97259526D01*
X124023507Y-97259525D01*
X124023506Y-97259524D01*
X123804811Y-97141172D01*
X123804802Y-97141169D01*
X123569616Y-97060429D01*
X123324335Y-97019500D01*
X123075665Y-97019500D01*
X122830383Y-97060429D01*
X122595197Y-97141169D01*
X122595188Y-97141172D01*
X122376493Y-97259524D01*
X122180257Y-97412261D01*
X122011833Y-97595217D01*
X121875826Y-97803393D01*
X121775936Y-98031118D01*
X121714892Y-98272175D01*
X121714890Y-98272187D01*
X121694357Y-98519994D01*
X121694357Y-98520005D01*
X121714890Y-98767812D01*
X121714892Y-98767824D01*
X121775936Y-99008881D01*
X121875826Y-99236606D01*
X122007019Y-99437412D01*
X122027206Y-99504301D01*
X122008026Y-99571487D01*
X121962644Y-99614061D01*
X121957912Y-99616644D01*
X121842812Y-99702809D01*
X121842809Y-99702812D01*
X121756649Y-99817906D01*
X121756645Y-99817913D01*
X121706403Y-99952620D01*
X121706401Y-99952627D01*
X121700000Y-100012155D01*
X121700000Y-100810000D01*
X122651518Y-100810000D01*
X122640889Y-100828409D01*
X122600000Y-100981009D01*
X122600000Y-101138991D01*
X122640889Y-101291591D01*
X122651518Y-101310000D01*
X121700000Y-101310000D01*
X121700000Y-102107844D01*
X121706401Y-102167372D01*
X121706403Y-102167379D01*
X121756645Y-102302086D01*
X121756649Y-102302093D01*
X121842809Y-102417187D01*
X121842812Y-102417190D01*
X121957906Y-102503350D01*
X121957913Y-102503354D01*
X122092620Y-102553596D01*
X122092627Y-102553598D01*
X122152155Y-102559999D01*
X122152172Y-102560000D01*
X122950000Y-102560000D01*
X122950000Y-101608482D01*
X122968409Y-101619111D01*
X123121009Y-101660000D01*
X123278991Y-101660000D01*
X123431591Y-101619111D01*
X123450000Y-101608482D01*
X123450000Y-102560000D01*
X124247828Y-102560000D01*
X124247844Y-102559999D01*
X124307372Y-102553598D01*
X124307379Y-102553596D01*
X124442086Y-102503354D01*
X124442093Y-102503350D01*
X124557187Y-102417190D01*
X124557190Y-102417187D01*
X124643350Y-102302093D01*
X124643354Y-102302086D01*
X124693596Y-102167379D01*
X124693598Y-102167372D01*
X124699999Y-102107844D01*
X124700000Y-102107827D01*
X124700000Y-101310000D01*
X123748482Y-101310000D01*
X123759111Y-101291591D01*
X123800000Y-101138991D01*
X123800000Y-100981009D01*
X123759111Y-100828409D01*
X123748482Y-100810000D01*
X124700000Y-100810000D01*
X124700000Y-100499500D01*
X124719685Y-100432461D01*
X124772489Y-100386706D01*
X124824000Y-100375500D01*
X128784646Y-100375500D01*
X128851685Y-100395185D01*
X128860118Y-100401113D01*
X128897159Y-100429536D01*
X128897162Y-100429537D01*
X128897163Y-100429538D01*
X128951469Y-100452032D01*
X129043238Y-100490044D01*
X129160639Y-100505500D01*
X129439360Y-100505499D01*
X129439363Y-100505499D01*
X129556753Y-100490046D01*
X129556757Y-100490044D01*
X129556762Y-100490044D01*
X129702841Y-100429536D01*
X129828282Y-100333282D01*
X129924536Y-100207841D01*
X129985044Y-100061762D01*
X129998063Y-99962869D01*
X130026329Y-99898973D01*
X130084654Y-99860502D01*
X130154518Y-99859671D01*
X130208682Y-99891373D01*
X130329463Y-100012155D01*
X130422889Y-100105581D01*
X130449769Y-100145809D01*
X130475462Y-100207838D01*
X130543621Y-100296666D01*
X130571718Y-100333282D01*
X130697159Y-100429536D01*
X130843238Y-100490044D01*
X130960639Y-100505500D01*
X131204902Y-100505499D01*
X131271941Y-100525183D01*
X131292583Y-100541818D01*
X132013181Y-101262416D01*
X132046666Y-101323739D01*
X132049500Y-101350097D01*
X132049500Y-101823337D01*
X132049501Y-101823355D01*
X132059650Y-101922707D01*
X132059651Y-101922710D01*
X132112996Y-102083694D01*
X132113001Y-102083704D01*
X132120304Y-102095545D01*
X132138742Y-102162938D01*
X132117817Y-102229601D01*
X132102444Y-102248319D01*
X131231286Y-103119478D01*
X131119481Y-103231282D01*
X131119479Y-103231284D01*
X131108935Y-103249548D01*
X131091110Y-103280423D01*
X131040423Y-103368215D01*
X130999499Y-103520943D01*
X130999499Y-103520945D01*
X130999499Y-103689046D01*
X130999500Y-103689059D01*
X130999500Y-110273330D01*
X130999499Y-110273348D01*
X130999499Y-110439054D01*
X130999498Y-110439054D01*
X131034333Y-110569060D01*
X131040423Y-110591785D01*
X131056590Y-110619787D01*
X131056591Y-110619789D01*
X131056592Y-110619789D01*
X131101783Y-110698063D01*
X131119479Y-110728714D01*
X131119481Y-110728717D01*
X131238349Y-110847585D01*
X131238355Y-110847590D01*
X135901336Y-115510571D01*
X135934821Y-115571894D01*
X135929837Y-115641586D01*
X135887965Y-115697519D01*
X135822501Y-115721936D01*
X135802848Y-115721780D01*
X135720002Y-115714532D01*
X135719998Y-115714532D01*
X135493313Y-115734364D01*
X135493302Y-115734366D01*
X135273511Y-115793258D01*
X135273502Y-115793261D01*
X135067267Y-115889431D01*
X135067265Y-115889432D01*
X134880858Y-116019954D01*
X134719954Y-116180858D01*
X134702725Y-116205464D01*
X134648147Y-116249088D01*
X134578648Y-116256280D01*
X134516294Y-116224757D01*
X134480882Y-116164526D01*
X134477861Y-116147591D01*
X134477846Y-116147456D01*
X134474091Y-116112517D01*
X134439567Y-116019954D01*
X134423797Y-115977671D01*
X134423793Y-115977664D01*
X134337547Y-115862455D01*
X134337544Y-115862452D01*
X134222335Y-115776206D01*
X134222328Y-115776202D01*
X134087482Y-115725908D01*
X134087483Y-115725908D01*
X134027883Y-115719501D01*
X134027881Y-115719500D01*
X134027873Y-115719500D01*
X134027864Y-115719500D01*
X132332129Y-115719500D01*
X132332123Y-115719501D01*
X132272516Y-115725908D01*
X132137671Y-115776202D01*
X132137664Y-115776206D01*
X132022455Y-115862452D01*
X132022452Y-115862455D01*
X131936206Y-115977664D01*
X131936202Y-115977671D01*
X131885908Y-116112517D01*
X131879501Y-116172116D01*
X131879500Y-116172135D01*
X131879500Y-117867870D01*
X131879501Y-117867876D01*
X131885908Y-117927483D01*
X131936202Y-118062328D01*
X131936206Y-118062335D01*
X132022452Y-118177544D01*
X132022455Y-118177547D01*
X132137664Y-118263793D01*
X132137671Y-118263797D01*
X132272517Y-118314091D01*
X132272516Y-118314091D01*
X132279444Y-118314835D01*
X132332127Y-118320500D01*
X134027872Y-118320499D01*
X134087483Y-118314091D01*
X134222331Y-118263796D01*
X134337546Y-118177546D01*
X134423796Y-118062331D01*
X134474091Y-117927483D01*
X134477862Y-117892401D01*
X134504599Y-117827855D01*
X134561990Y-117788006D01*
X134631816Y-117785511D01*
X134691905Y-117821163D01*
X134702726Y-117834536D01*
X134719956Y-117859143D01*
X134880858Y-118020045D01*
X134880861Y-118020047D01*
X135067266Y-118150568D01*
X135273504Y-118246739D01*
X135493308Y-118305635D01*
X135655230Y-118319801D01*
X135719998Y-118325468D01*
X135720000Y-118325468D01*
X135720002Y-118325468D01*
X135776807Y-118320498D01*
X135946692Y-118305635D01*
X136166496Y-118246739D01*
X136372734Y-118150568D01*
X136559139Y-118020047D01*
X136720047Y-117859139D01*
X136850568Y-117672734D01*
X136877618Y-117614724D01*
X136923790Y-117562285D01*
X136990983Y-117543133D01*
X137057865Y-117563348D01*
X137102381Y-117614724D01*
X137116517Y-117645038D01*
X137129429Y-117672728D01*
X137129432Y-117672734D01*
X137259954Y-117859141D01*
X137420858Y-118020045D01*
X137420861Y-118020047D01*
X137607266Y-118150568D01*
X137813504Y-118246739D01*
X138033308Y-118305635D01*
X138195230Y-118319801D01*
X138259998Y-118325468D01*
X138260000Y-118325468D01*
X138260002Y-118325468D01*
X138316807Y-118320498D01*
X138486692Y-118305635D01*
X138706496Y-118246739D01*
X138912734Y-118150568D01*
X139099139Y-118020047D01*
X139260047Y-117859139D01*
X139390568Y-117672734D01*
X139417618Y-117614724D01*
X139463790Y-117562285D01*
X139530983Y-117543133D01*
X139597865Y-117563348D01*
X139642381Y-117614724D01*
X139656517Y-117645038D01*
X139669429Y-117672728D01*
X139669432Y-117672734D01*
X139799954Y-117859141D01*
X139960858Y-118020045D01*
X139960861Y-118020047D01*
X140147266Y-118150568D01*
X140172948Y-118162543D01*
X140225386Y-118208714D01*
X140244539Y-118275907D01*
X140224324Y-118342789D01*
X140171159Y-118388124D01*
X140155138Y-118394001D01*
X140003810Y-118437966D01*
X140003804Y-118437968D01*
X139864625Y-118520278D01*
X139864616Y-118520285D01*
X139750285Y-118634616D01*
X139750278Y-118634625D01*
X139667968Y-118773804D01*
X139667966Y-118773809D01*
X139622855Y-118929081D01*
X139622854Y-118929087D01*
X139621209Y-118949999D01*
X139621210Y-118950000D01*
X140276000Y-118950000D01*
X140343039Y-118969685D01*
X140388794Y-119022489D01*
X140400000Y-119074000D01*
X140400000Y-119200000D01*
X140455500Y-119200000D01*
X140522539Y-119219685D01*
X140568294Y-119272489D01*
X140579500Y-119324000D01*
X140579500Y-119434697D01*
X140582356Y-119470991D01*
X140582357Y-119470997D01*
X140627503Y-119626389D01*
X140627505Y-119626393D01*
X140627506Y-119626395D01*
X140632732Y-119635233D01*
X140650000Y-119698352D01*
X140650000Y-120004503D01*
X140796194Y-119962032D01*
X140816384Y-119950091D01*
X140884108Y-119932906D01*
X140942629Y-119950089D01*
X140963605Y-119962494D01*
X141004587Y-119974400D01*
X141119002Y-120007642D01*
X141119005Y-120007642D01*
X141119007Y-120007643D01*
X141155310Y-120010500D01*
X141155318Y-120010500D01*
X141564682Y-120010500D01*
X141564690Y-120010500D01*
X141600993Y-120007643D01*
X141600995Y-120007642D01*
X141600997Y-120007642D01*
X141641975Y-119995736D01*
X141756395Y-119962494D01*
X141895687Y-119880117D01*
X141938984Y-119836820D01*
X142000307Y-119803334D01*
X142026666Y-119800500D01*
X164313331Y-119800500D01*
X164313347Y-119800501D01*
X164320943Y-119800501D01*
X164479054Y-119800501D01*
X164479057Y-119800501D01*
X164631785Y-119759577D01*
X164681904Y-119730639D01*
X164768716Y-119680520D01*
X164880520Y-119568716D01*
X164880520Y-119568714D01*
X164890728Y-119558507D01*
X164890730Y-119558504D01*
X170362416Y-114086818D01*
X170423739Y-114053333D01*
X170450097Y-114050499D01*
X170950002Y-114050499D01*
X170950008Y-114050499D01*
X171052797Y-114039999D01*
X171219334Y-113984814D01*
X171368656Y-113892712D01*
X171492712Y-113768656D01*
X171584814Y-113619334D01*
X171639999Y-113452797D01*
X171650500Y-113350009D01*
X171650499Y-112649992D01*
X171644166Y-112588000D01*
X171639999Y-112547203D01*
X171639998Y-112547200D01*
X171633308Y-112527011D01*
X171584814Y-112380666D01*
X171492712Y-112231344D01*
X171368656Y-112107288D01*
X171259402Y-112039900D01*
X171212679Y-111987953D01*
X171200500Y-111934362D01*
X171200500Y-110569060D01*
X171200501Y-110569047D01*
X171200501Y-110400944D01*
X171200260Y-110400045D01*
X171159577Y-110248216D01*
X171154338Y-110239141D01*
X171080524Y-110111290D01*
X171080518Y-110111282D01*
X167571690Y-106602454D01*
X167538205Y-106541131D01*
X167541439Y-106476457D01*
X167567123Y-106397414D01*
X167600500Y-106186680D01*
X167600500Y-105973320D01*
X167567123Y-105762586D01*
X167501191Y-105559669D01*
X167501189Y-105559666D01*
X167501189Y-105559664D01*
X167440379Y-105440319D01*
X167404327Y-105369563D01*
X167326916Y-105263016D01*
X167303437Y-105197211D01*
X167319262Y-105129157D01*
X167352921Y-105090868D01*
X167457546Y-105012546D01*
X167543796Y-104897331D01*
X167594091Y-104762483D01*
X167600500Y-104702873D01*
X167600499Y-102897128D01*
X167594091Y-102837517D01*
X167554167Y-102730476D01*
X167543797Y-102702671D01*
X167543793Y-102702664D01*
X167457547Y-102587455D01*
X167457544Y-102587452D01*
X167342335Y-102501206D01*
X167342328Y-102501202D01*
X167207482Y-102450908D01*
X167207483Y-102450908D01*
X167147883Y-102444501D01*
X167147881Y-102444500D01*
X167147873Y-102444500D01*
X167147864Y-102444500D01*
X165252129Y-102444500D01*
X165252123Y-102444501D01*
X165192516Y-102450908D01*
X165057671Y-102501202D01*
X165057669Y-102501204D01*
X165026193Y-102524767D01*
X164960729Y-102549184D01*
X164951882Y-102549500D01*
X159321578Y-102549500D01*
X159127172Y-102580291D01*
X159066348Y-102600053D01*
X159066348Y-102600054D01*
X159023103Y-102614105D01*
X158939970Y-102641117D01*
X158862640Y-102680520D01*
X158764594Y-102730476D01*
X158673741Y-102796485D01*
X158605354Y-102846172D01*
X158605352Y-102846174D01*
X158605351Y-102846174D01*
X151768345Y-109683181D01*
X151707022Y-109716666D01*
X151680664Y-109719500D01*
X151672559Y-109719500D01*
X151515609Y-109743157D01*
X151420542Y-109757487D01*
X151420539Y-109757488D01*
X151420533Y-109757489D01*
X151176992Y-109832612D01*
X150947373Y-109943190D01*
X150947372Y-109943191D01*
X150736782Y-110086768D01*
X150549952Y-110260121D01*
X150549950Y-110260123D01*
X150391041Y-110459388D01*
X150263608Y-110680109D01*
X150170492Y-110917362D01*
X150170490Y-110917369D01*
X150113777Y-111165845D01*
X150094732Y-111419995D01*
X150094732Y-111420004D01*
X150113777Y-111674154D01*
X150163192Y-111890657D01*
X150170492Y-111922637D01*
X150263607Y-112159888D01*
X150391041Y-112380612D01*
X150549950Y-112579877D01*
X150736783Y-112753232D01*
X150765845Y-112773046D01*
X150810147Y-112827075D01*
X150818207Y-112896478D01*
X150787464Y-112959221D01*
X150727680Y-112995383D01*
X150695994Y-112999500D01*
X139500098Y-112999500D01*
X139433059Y-112979815D01*
X139412417Y-112963181D01*
X139030700Y-112581465D01*
X138997215Y-112520142D01*
X138995163Y-112507686D01*
X138985368Y-112420745D01*
X138925789Y-112250478D01*
X138829816Y-112097738D01*
X138702262Y-111970184D01*
X138645252Y-111934362D01*
X138549523Y-111874211D01*
X138379254Y-111814631D01*
X138379249Y-111814630D01*
X138200004Y-111794435D01*
X138199996Y-111794435D01*
X138020750Y-111814630D01*
X138020745Y-111814631D01*
X137850476Y-111874211D01*
X137697737Y-111970184D01*
X137570184Y-112097737D01*
X137474211Y-112250476D01*
X137414631Y-112420745D01*
X137414630Y-112420750D01*
X137394435Y-112599996D01*
X137394435Y-112600003D01*
X137414630Y-112779249D01*
X137414631Y-112779254D01*
X137474211Y-112949523D01*
X137505614Y-112999500D01*
X137570184Y-113102262D01*
X137697738Y-113229816D01*
X137850478Y-113325789D01*
X138020745Y-113385368D01*
X138107669Y-113395161D01*
X138172080Y-113422226D01*
X138181464Y-113430699D01*
X138831284Y-114080520D01*
X138831286Y-114080521D01*
X138831290Y-114080524D01*
X138938026Y-114142147D01*
X138968216Y-114159577D01*
X139120943Y-114200501D01*
X139120945Y-114200501D01*
X139286654Y-114200501D01*
X139286670Y-114200500D01*
X162313331Y-114200500D01*
X162313347Y-114200501D01*
X162320943Y-114200501D01*
X162479054Y-114200501D01*
X162479057Y-114200501D01*
X162631785Y-114159577D01*
X162681904Y-114130639D01*
X162768716Y-114080520D01*
X162768719Y-114080516D01*
X162774448Y-114076122D01*
X162839618Y-114050929D01*
X162849933Y-114050499D01*
X163149902Y-114050499D01*
X163216941Y-114070184D01*
X163237583Y-114086818D01*
X164515139Y-115364374D01*
X164515149Y-115364385D01*
X164519479Y-115368715D01*
X164519480Y-115368716D01*
X164631284Y-115480520D01*
X164718095Y-115530639D01*
X164718097Y-115530641D01*
X164756151Y-115552611D01*
X164768215Y-115559577D01*
X164920943Y-115600500D01*
X165079057Y-115600500D01*
X166217588Y-115600500D01*
X166284627Y-115620185D01*
X166294903Y-115627555D01*
X166297736Y-115629814D01*
X166297738Y-115629816D01*
X166405487Y-115697519D01*
X166444097Y-115721780D01*
X166450478Y-115725789D01*
X166548682Y-115760152D01*
X166620745Y-115785368D01*
X166620749Y-115785369D01*
X166674625Y-115791439D01*
X166739039Y-115818505D01*
X166778594Y-115876099D01*
X166780733Y-115945936D01*
X166748423Y-116002340D01*
X164187584Y-118563181D01*
X164126261Y-118596666D01*
X164099903Y-118599500D01*
X142084500Y-118599500D01*
X142017461Y-118579815D01*
X141971706Y-118527011D01*
X141960500Y-118475500D01*
X141960500Y-117669060D01*
X141960501Y-117669047D01*
X141960501Y-117636032D01*
X141972119Y-117583627D01*
X142026739Y-117466496D01*
X142085635Y-117246692D01*
X142105468Y-117020000D01*
X142104830Y-117012712D01*
X142085635Y-116793313D01*
X142085635Y-116793308D01*
X142026739Y-116573504D01*
X141930568Y-116367266D01*
X141800047Y-116180861D01*
X141800045Y-116180858D01*
X141639141Y-116019954D01*
X141452734Y-115889432D01*
X141452732Y-115889431D01*
X141246497Y-115793261D01*
X141246488Y-115793258D01*
X141026697Y-115734366D01*
X141026693Y-115734365D01*
X141026692Y-115734365D01*
X141026691Y-115734364D01*
X141026686Y-115734364D01*
X140800002Y-115714532D01*
X140799998Y-115714532D01*
X140573313Y-115734364D01*
X140573302Y-115734366D01*
X140353511Y-115793258D01*
X140353502Y-115793261D01*
X140147267Y-115889431D01*
X140147265Y-115889432D01*
X139960858Y-116019954D01*
X139799954Y-116180858D01*
X139669432Y-116367265D01*
X139669431Y-116367267D01*
X139642382Y-116425275D01*
X139596209Y-116477714D01*
X139529016Y-116496866D01*
X139462135Y-116476650D01*
X139417618Y-116425275D01*
X139390568Y-116367267D01*
X139390567Y-116367265D01*
X139260045Y-116180858D01*
X139099141Y-116019954D01*
X138912734Y-115889432D01*
X138912732Y-115889431D01*
X138706497Y-115793261D01*
X138706488Y-115793258D01*
X138486697Y-115734366D01*
X138486693Y-115734365D01*
X138486692Y-115734365D01*
X138486691Y-115734364D01*
X138486686Y-115734364D01*
X138260002Y-115714532D01*
X138259998Y-115714532D01*
X138033313Y-115734364D01*
X138033302Y-115734366D01*
X137937067Y-115760152D01*
X137867217Y-115758489D01*
X137817293Y-115728058D01*
X132998663Y-110909428D01*
X132965178Y-110848105D01*
X132970162Y-110778413D01*
X133012034Y-110722480D01*
X133077498Y-110698063D01*
X133097142Y-110698218D01*
X133180000Y-110705468D01*
X133180002Y-110705468D01*
X133236673Y-110700509D01*
X133406692Y-110685635D01*
X133626496Y-110626739D01*
X133832734Y-110530568D01*
X134019139Y-110400047D01*
X134180047Y-110239139D01*
X134310568Y-110052734D01*
X134337618Y-109994724D01*
X134383790Y-109942285D01*
X134450983Y-109923133D01*
X134517865Y-109943348D01*
X134562382Y-109994725D01*
X134589429Y-110052728D01*
X134589432Y-110052734D01*
X134719954Y-110239141D01*
X134880858Y-110400045D01*
X134882142Y-110400944D01*
X135067266Y-110530568D01*
X135273504Y-110626739D01*
X135493308Y-110685635D01*
X135635361Y-110698063D01*
X135719998Y-110705468D01*
X135720000Y-110705468D01*
X135720002Y-110705468D01*
X135776673Y-110700509D01*
X135946692Y-110685635D01*
X136166496Y-110626739D01*
X136372734Y-110530568D01*
X136559139Y-110400047D01*
X136720047Y-110239139D01*
X136850568Y-110052734D01*
X136877618Y-109994724D01*
X136923790Y-109942285D01*
X136990983Y-109923133D01*
X137057865Y-109943348D01*
X137102382Y-109994725D01*
X137129429Y-110052728D01*
X137129432Y-110052734D01*
X137259954Y-110239141D01*
X137420858Y-110400045D01*
X137422142Y-110400944D01*
X137607266Y-110530568D01*
X137813504Y-110626739D01*
X138033308Y-110685635D01*
X138175361Y-110698063D01*
X138259998Y-110705468D01*
X138260000Y-110705468D01*
X138260002Y-110705468D01*
X138316673Y-110700509D01*
X138486692Y-110685635D01*
X138706496Y-110626739D01*
X138912734Y-110530568D01*
X139099139Y-110400047D01*
X139260047Y-110239139D01*
X139390568Y-110052734D01*
X139417618Y-109994724D01*
X139463790Y-109942285D01*
X139530983Y-109923133D01*
X139597865Y-109943348D01*
X139642382Y-109994725D01*
X139669429Y-110052728D01*
X139669432Y-110052734D01*
X139799954Y-110239141D01*
X139960858Y-110400045D01*
X139962142Y-110400944D01*
X140147266Y-110530568D01*
X140353504Y-110626739D01*
X140573308Y-110685635D01*
X140715361Y-110698063D01*
X140799998Y-110705468D01*
X140800000Y-110705468D01*
X140800002Y-110705468D01*
X140856673Y-110700509D01*
X141026692Y-110685635D01*
X141246496Y-110626739D01*
X141452734Y-110530568D01*
X141639139Y-110400047D01*
X141800047Y-110239139D01*
X141930568Y-110052734D01*
X142026739Y-109846496D01*
X142085635Y-109626692D01*
X142105468Y-109400000D01*
X142103819Y-109381157D01*
X142099801Y-109335230D01*
X142085635Y-109173308D01*
X142041319Y-109007916D01*
X142027567Y-108956593D01*
X142029230Y-108886743D01*
X142068393Y-108828881D01*
X142132621Y-108801377D01*
X142147342Y-108800500D01*
X142300501Y-108800500D01*
X142367540Y-108820185D01*
X142413295Y-108872989D01*
X142424501Y-108924500D01*
X142424501Y-108962518D01*
X142435000Y-109065296D01*
X142435001Y-109065299D01*
X142490185Y-109231831D01*
X142490187Y-109231836D01*
X142525069Y-109288388D01*
X142582288Y-109381156D01*
X142706344Y-109505212D01*
X142855666Y-109597314D01*
X143022203Y-109652499D01*
X143124991Y-109663000D01*
X144475008Y-109662999D01*
X144504451Y-109659991D01*
X144573143Y-109672760D01*
X144624028Y-109720640D01*
X144640949Y-109788430D01*
X144618534Y-109854606D01*
X144604734Y-109871030D01*
X144050082Y-110425681D01*
X143988759Y-110459166D01*
X143962401Y-110462000D01*
X143124998Y-110462000D01*
X143124980Y-110462001D01*
X143022203Y-110472500D01*
X143022200Y-110472501D01*
X142855668Y-110527685D01*
X142855663Y-110527687D01*
X142706342Y-110619789D01*
X142582289Y-110743842D01*
X142490187Y-110893163D01*
X142490186Y-110893166D01*
X142435001Y-111059703D01*
X142435001Y-111059704D01*
X142435000Y-111059704D01*
X142424500Y-111162483D01*
X142424500Y-111887501D01*
X142424501Y-111887519D01*
X142435000Y-111990296D01*
X142435001Y-111990299D01*
X142490185Y-112156831D01*
X142490187Y-112156836D01*
X142492071Y-112159890D01*
X142582288Y-112306156D01*
X142706344Y-112430212D01*
X142855666Y-112522314D01*
X143022203Y-112577499D01*
X143124991Y-112588000D01*
X144475008Y-112587999D01*
X144577797Y-112577499D01*
X144744334Y-112522314D01*
X144893656Y-112430212D01*
X145017712Y-112306156D01*
X145109814Y-112156834D01*
X145164999Y-111990297D01*
X145175500Y-111887509D01*
X145175499Y-111162492D01*
X145166309Y-111072528D01*
X145179079Y-111003837D01*
X145201983Y-110972250D01*
X156280520Y-99893716D01*
X156359577Y-99756784D01*
X156400501Y-99604057D01*
X156400501Y-99445942D01*
X156400501Y-99438347D01*
X156400500Y-99438329D01*
X156400500Y-96029436D01*
X156420185Y-95962397D01*
X156436819Y-95941755D01*
X156589991Y-95788583D01*
X156745783Y-95632790D01*
X156807105Y-95599306D01*
X156876796Y-95604290D01*
X156932730Y-95646161D01*
X156957147Y-95711626D01*
X156954354Y-95748064D01*
X156913777Y-95925842D01*
X156913777Y-95925844D01*
X156894732Y-96179995D01*
X156894732Y-96180004D01*
X156913777Y-96434154D01*
X156956642Y-96621959D01*
X156970492Y-96682637D01*
X157045200Y-96872989D01*
X157063608Y-96919890D01*
X157067882Y-96927292D01*
X157191041Y-97140612D01*
X157349950Y-97339877D01*
X157536783Y-97513232D01*
X157747366Y-97656805D01*
X157747371Y-97656807D01*
X157747372Y-97656808D01*
X157747373Y-97656809D01*
X157869328Y-97715538D01*
X157976992Y-97767387D01*
X157976993Y-97767387D01*
X157976996Y-97767389D01*
X158220542Y-97842513D01*
X158472565Y-97880500D01*
X158727435Y-97880500D01*
X158979458Y-97842513D01*
X159223004Y-97767389D01*
X159452634Y-97656805D01*
X159663217Y-97513232D01*
X159716707Y-97463600D01*
X159779238Y-97432433D01*
X159801047Y-97430500D01*
X170210664Y-97430500D01*
X170277703Y-97450185D01*
X170298345Y-97466819D01*
X182545355Y-109713829D01*
X182704595Y-109829524D01*
X182879974Y-109918884D01*
X183005211Y-109959576D01*
X183036192Y-109969642D01*
X183067173Y-109979709D01*
X183261578Y-110010500D01*
X183261583Y-110010500D01*
X183261584Y-110010500D01*
X183458417Y-110010500D01*
X187951882Y-110010500D01*
X188018921Y-110030185D01*
X188026192Y-110035232D01*
X188057669Y-110058796D01*
X188057670Y-110058796D01*
X188057671Y-110058797D01*
X188192517Y-110109091D01*
X188192516Y-110109091D01*
X188199444Y-110109835D01*
X188252127Y-110115500D01*
X190147872Y-110115499D01*
X190207483Y-110109091D01*
X190342331Y-110058796D01*
X190457546Y-109972546D01*
X190543796Y-109857331D01*
X190594091Y-109722483D01*
X190600500Y-109662873D01*
X190600499Y-107857128D01*
X190594091Y-107797517D01*
X190550153Y-107679714D01*
X190543797Y-107662671D01*
X190543793Y-107662664D01*
X190457547Y-107547455D01*
X190457544Y-107547452D01*
X190352924Y-107469133D01*
X190311053Y-107413199D01*
X190306069Y-107343508D01*
X190326915Y-107296985D01*
X190404327Y-107190437D01*
X190501191Y-107000331D01*
X190567123Y-106797414D01*
X190600500Y-106586680D01*
X190600500Y-106373320D01*
X190567123Y-106162586D01*
X190501191Y-105959669D01*
X190501189Y-105959666D01*
X190501189Y-105959664D01*
X190404326Y-105769562D01*
X190403712Y-105768717D01*
X190278917Y-105596951D01*
X190128049Y-105446083D01*
X190120112Y-105440316D01*
X190077448Y-105384989D01*
X190071469Y-105315376D01*
X190104074Y-105253580D01*
X190120111Y-105239684D01*
X190128049Y-105233917D01*
X190278917Y-105083049D01*
X190404327Y-104910437D01*
X190501191Y-104720331D01*
X190567123Y-104517414D01*
X190600500Y-104306680D01*
X190600500Y-104093320D01*
X190567123Y-103882586D01*
X190501191Y-103679669D01*
X190501189Y-103679666D01*
X190501189Y-103679664D01*
X190405488Y-103491842D01*
X190404327Y-103489563D01*
X190278917Y-103316951D01*
X190128049Y-103166083D01*
X189955437Y-103040673D01*
X189765335Y-102943810D01*
X189562414Y-102877877D01*
X189351680Y-102844500D01*
X189048320Y-102844500D01*
X189005784Y-102851237D01*
X188837583Y-102877877D01*
X188826466Y-102881489D01*
X188756625Y-102883481D01*
X188700473Y-102851237D01*
X175649229Y-89799994D01*
X187894859Y-89799994D01*
X187894859Y-89800000D01*
X187915385Y-90047729D01*
X187915387Y-90047738D01*
X187976412Y-90288717D01*
X188076267Y-90516367D01*
X188207182Y-90716748D01*
X188227369Y-90783637D01*
X188208189Y-90850823D01*
X188162806Y-90893398D01*
X188157667Y-90896204D01*
X188042455Y-90982452D01*
X188042452Y-90982455D01*
X187956206Y-91097664D01*
X187956202Y-91097671D01*
X187905908Y-91232517D01*
X187901971Y-91269142D01*
X187899501Y-91292123D01*
X187899500Y-91292135D01*
X187899500Y-93387870D01*
X187899501Y-93387876D01*
X187905908Y-93447483D01*
X187956202Y-93582328D01*
X187956206Y-93582335D01*
X188042452Y-93697544D01*
X188042455Y-93697547D01*
X188157664Y-93783793D01*
X188157671Y-93783797D01*
X188292517Y-93834091D01*
X188292516Y-93834091D01*
X188299444Y-93834835D01*
X188352127Y-93840500D01*
X190447872Y-93840499D01*
X190507483Y-93834091D01*
X190642331Y-93783796D01*
X190757546Y-93697546D01*
X190843796Y-93582331D01*
X190894091Y-93447483D01*
X190900500Y-93387873D01*
X190900499Y-91292128D01*
X190894091Y-91232517D01*
X190890180Y-91222032D01*
X190843797Y-91097671D01*
X190843793Y-91097664D01*
X190757547Y-90982455D01*
X190757544Y-90982452D01*
X190642333Y-90896204D01*
X190637197Y-90893400D01*
X190587793Y-90843994D01*
X190572942Y-90775721D01*
X190592817Y-90716747D01*
X190723733Y-90516364D01*
X190823587Y-90288717D01*
X190884612Y-90047738D01*
X190884614Y-90047729D01*
X190905141Y-89800000D01*
X190905141Y-89799994D01*
X190884614Y-89552270D01*
X190884612Y-89552261D01*
X190823587Y-89311282D01*
X190723732Y-89083632D01*
X190623435Y-88930116D01*
X189964612Y-89588939D01*
X189959111Y-89568409D01*
X189880119Y-89431592D01*
X189768408Y-89319881D01*
X189631591Y-89240889D01*
X189611058Y-89235387D01*
X190270055Y-88576389D01*
X190270055Y-88576388D01*
X190223236Y-88539947D01*
X190223231Y-88539944D01*
X190004614Y-88421635D01*
X190004603Y-88421630D01*
X189769493Y-88340916D01*
X189524293Y-88300000D01*
X189275707Y-88300000D01*
X189030506Y-88340916D01*
X188795396Y-88421630D01*
X188795385Y-88421635D01*
X188576770Y-88539943D01*
X188529943Y-88576389D01*
X189188941Y-89235387D01*
X189168409Y-89240889D01*
X189031592Y-89319881D01*
X188919881Y-89431592D01*
X188840889Y-89568409D01*
X188835387Y-89588941D01*
X188176563Y-88930117D01*
X188076267Y-89083633D01*
X188076265Y-89083637D01*
X187976412Y-89311282D01*
X187915387Y-89552261D01*
X187915385Y-89552270D01*
X187894859Y-89799994D01*
X175649229Y-89799994D01*
X174527590Y-88678355D01*
X174527588Y-88678352D01*
X174408717Y-88559481D01*
X174408716Y-88559480D01*
X174312129Y-88503716D01*
X174271785Y-88480423D01*
X174119057Y-88439499D01*
X173960943Y-88439499D01*
X173953347Y-88439499D01*
X173953331Y-88439500D01*
X167724499Y-88439500D01*
X167657460Y-88419815D01*
X167611705Y-88367011D01*
X167600499Y-88315500D01*
X167600499Y-88137129D01*
X167600498Y-88137123D01*
X167598657Y-88120000D01*
X167594091Y-88077517D01*
X167593440Y-88075772D01*
X167543797Y-87942671D01*
X167543793Y-87942664D01*
X167457547Y-87827455D01*
X167457544Y-87827452D01*
X167342335Y-87741206D01*
X167342328Y-87741202D01*
X167207482Y-87690908D01*
X167207483Y-87690908D01*
X167147883Y-87684501D01*
X167147881Y-87684500D01*
X167147873Y-87684500D01*
X167147865Y-87684500D01*
X165745098Y-87684500D01*
X165678059Y-87664815D01*
X165657417Y-87648181D01*
X164357590Y-86348355D01*
X164357588Y-86348352D01*
X164238717Y-86229481D01*
X164238716Y-86229480D01*
X164151904Y-86179360D01*
X164151904Y-86179359D01*
X164151900Y-86179358D01*
X164101785Y-86150423D01*
X163949057Y-86109499D01*
X163790943Y-86109499D01*
X163783347Y-86109499D01*
X163783331Y-86109500D01*
X162552923Y-86109500D01*
X162394808Y-86109500D01*
X162242081Y-86150423D01*
X162242080Y-86150423D01*
X162242078Y-86150424D01*
X162242075Y-86150425D01*
X162191962Y-86179359D01*
X162191961Y-86179360D01*
X162148555Y-86204420D01*
X162105151Y-86229479D01*
X162105148Y-86229481D01*
X161861449Y-86473181D01*
X161800126Y-86506666D01*
X161773768Y-86509500D01*
X161635302Y-86509500D01*
X161599008Y-86512356D01*
X161599002Y-86512357D01*
X161443609Y-86557504D01*
X161443606Y-86557505D01*
X161304315Y-86639881D01*
X161304307Y-86639887D01*
X161189887Y-86754307D01*
X161189881Y-86754315D01*
X161107505Y-86893606D01*
X161107505Y-86893607D01*
X161106074Y-86898532D01*
X161068464Y-86957416D01*
X161004990Y-86986619D01*
X160935804Y-86976869D01*
X160882872Y-86931263D01*
X160862999Y-86864281D01*
X160862999Y-86044992D01*
X160862946Y-86044477D01*
X160852499Y-85942203D01*
X160852498Y-85942200D01*
X160845904Y-85922302D01*
X160797314Y-85775666D01*
X160705212Y-85626344D01*
X160581156Y-85502288D01*
X160431834Y-85410186D01*
X160265297Y-85355001D01*
X160265295Y-85355000D01*
X160162516Y-85344500D01*
X160162509Y-85344500D01*
X160045097Y-85344500D01*
X159978058Y-85324815D01*
X159957416Y-85308181D01*
X158887590Y-84238355D01*
X158887588Y-84238352D01*
X158768717Y-84119481D01*
X158768716Y-84119480D01*
X158681904Y-84069360D01*
X158681904Y-84069359D01*
X158681900Y-84069358D01*
X158631785Y-84040423D01*
X158479057Y-83999499D01*
X158320943Y-83999499D01*
X158313347Y-83999499D01*
X158313331Y-83999500D01*
X152686669Y-83999500D01*
X152686653Y-83999499D01*
X152679057Y-83999499D01*
X152520943Y-83999499D01*
X152413587Y-84028265D01*
X152368210Y-84040424D01*
X152368209Y-84040425D01*
X152318096Y-84069359D01*
X152318095Y-84069360D01*
X152296529Y-84081811D01*
X152231285Y-84119479D01*
X152231282Y-84119481D01*
X151394479Y-84956284D01*
X151368320Y-85001593D01*
X151357264Y-85020745D01*
X151336343Y-85056980D01*
X151315423Y-85093214D01*
X151315423Y-85093215D01*
X151274499Y-85245943D01*
X151274499Y-85245945D01*
X151274499Y-85321652D01*
X151254814Y-85388691D01*
X151215596Y-85427191D01*
X151093842Y-85502289D01*
X150969789Y-85626342D01*
X150877687Y-85775663D01*
X150877686Y-85775666D01*
X150831749Y-85914296D01*
X150822501Y-85942204D01*
X150822500Y-85942205D01*
X150815768Y-86008103D01*
X150789371Y-86072795D01*
X150732190Y-86112946D01*
X150692410Y-86119500D01*
X150366669Y-86119500D01*
X150366653Y-86119499D01*
X150359057Y-86119499D01*
X150271648Y-86119499D01*
X150204609Y-86099814D01*
X150158854Y-86047010D01*
X150148910Y-85977852D01*
X150177935Y-85914296D01*
X150205676Y-85890505D01*
X150236861Y-85870910D01*
X150302262Y-85829816D01*
X150429816Y-85702262D01*
X150525789Y-85549522D01*
X150585368Y-85379255D01*
X150585499Y-85378091D01*
X150605565Y-85200003D01*
X150605565Y-85199996D01*
X150585369Y-85020750D01*
X150585368Y-85020744D01*
X150550525Y-84921169D01*
X150525789Y-84850478D01*
X150491547Y-84795983D01*
X150477908Y-84774276D01*
X150429816Y-84697738D01*
X150302262Y-84570184D01*
X150149523Y-84474211D01*
X149979254Y-84414631D01*
X149979249Y-84414630D01*
X149800004Y-84394435D01*
X149799996Y-84394435D01*
X149620750Y-84414630D01*
X149620745Y-84414631D01*
X149450476Y-84474211D01*
X149297737Y-84570184D01*
X149170186Y-84697735D01*
X149170183Y-84697739D01*
X149122091Y-84774276D01*
X149104780Y-84795983D01*
X149069481Y-84831283D01*
X149069478Y-84831286D01*
X147009393Y-86891370D01*
X146948070Y-86924855D01*
X146878378Y-86919871D01*
X146822445Y-86877999D01*
X146798028Y-86812535D01*
X146798354Y-86791083D01*
X146799999Y-86774978D01*
X146800000Y-86774973D01*
X146800000Y-86650000D01*
X145650000Y-86650000D01*
X145650000Y-87474999D01*
X146099972Y-87474999D01*
X146099981Y-87474998D01*
X146116086Y-87473353D01*
X146184779Y-87486121D01*
X146235664Y-87534001D01*
X146252586Y-87601791D01*
X146230172Y-87667967D01*
X146216371Y-87684392D01*
X145662582Y-88238181D01*
X145601259Y-88271666D01*
X145574901Y-88274500D01*
X144699998Y-88274500D01*
X144699980Y-88274501D01*
X144597203Y-88285000D01*
X144597200Y-88285001D01*
X144430668Y-88340185D01*
X144430663Y-88340187D01*
X144281342Y-88432289D01*
X144157289Y-88556342D01*
X144148556Y-88570501D01*
X144082032Y-88678355D01*
X144074481Y-88690597D01*
X144022533Y-88737321D01*
X143968942Y-88749500D01*
X143525097Y-88749500D01*
X143458058Y-88729815D01*
X143437416Y-88713181D01*
X143074318Y-88350083D01*
X143040833Y-88288760D01*
X143037999Y-88262402D01*
X143037999Y-87737597D01*
X143057684Y-87670558D01*
X143074318Y-87649916D01*
X143427223Y-87297011D01*
X143827536Y-86896697D01*
X143888857Y-86863214D01*
X143958548Y-86868198D01*
X144014482Y-86910070D01*
X144032921Y-86945376D01*
X144065641Y-87044119D01*
X144065643Y-87044124D01*
X144157684Y-87193345D01*
X144281654Y-87317315D01*
X144430875Y-87409356D01*
X144430880Y-87409358D01*
X144597302Y-87464505D01*
X144597309Y-87464506D01*
X144700019Y-87474999D01*
X145149999Y-87474999D01*
X145150000Y-87474998D01*
X145150000Y-86150000D01*
X145650000Y-86150000D01*
X146799999Y-86150000D01*
X146799999Y-86025028D01*
X146799998Y-86025013D01*
X146789505Y-85922302D01*
X146734358Y-85755880D01*
X146734356Y-85755875D01*
X146642315Y-85606654D01*
X146518345Y-85482684D01*
X146369124Y-85390643D01*
X146369119Y-85390641D01*
X146202697Y-85335494D01*
X146202690Y-85335493D01*
X146099986Y-85325000D01*
X145650000Y-85325000D01*
X145650000Y-86150000D01*
X145150000Y-86150000D01*
X145150000Y-85325000D01*
X144700028Y-85325000D01*
X144700012Y-85325001D01*
X144597302Y-85335494D01*
X144484337Y-85372927D01*
X144414508Y-85375329D01*
X144354467Y-85339597D01*
X144326257Y-85289816D01*
X144300163Y-85200003D01*
X144292494Y-85173605D01*
X144210117Y-85034313D01*
X144210115Y-85034311D01*
X144210112Y-85034307D01*
X144095692Y-84919887D01*
X144095684Y-84919881D01*
X143968184Y-84844478D01*
X143956395Y-84837506D01*
X143956394Y-84837505D01*
X143956393Y-84837505D01*
X143956390Y-84837504D01*
X143800997Y-84792357D01*
X143800991Y-84792356D01*
X143764697Y-84789500D01*
X143764690Y-84789500D01*
X143355310Y-84789500D01*
X143355302Y-84789500D01*
X143319008Y-84792356D01*
X143319002Y-84792357D01*
X143163609Y-84837504D01*
X143163604Y-84837506D01*
X143142628Y-84849911D01*
X143074903Y-84867092D01*
X143016389Y-84849911D01*
X142996191Y-84837966D01*
X142996190Y-84837965D01*
X142850001Y-84795493D01*
X142850000Y-84795494D01*
X142850000Y-85101645D01*
X142832734Y-85164763D01*
X142827507Y-85173600D01*
X142827504Y-85173608D01*
X142782357Y-85329002D01*
X142782356Y-85329008D01*
X142779500Y-85365302D01*
X142779500Y-85476000D01*
X142759815Y-85543039D01*
X142707011Y-85588794D01*
X142655500Y-85600000D01*
X142600000Y-85600000D01*
X142600000Y-85726000D01*
X142580315Y-85793039D01*
X142527511Y-85838794D01*
X142476000Y-85850000D01*
X141821210Y-85850000D01*
X141822854Y-85870910D01*
X141867968Y-86026195D01*
X141933722Y-86137379D01*
X141950905Y-86205103D01*
X141928745Y-86271366D01*
X141874279Y-86315129D01*
X141826990Y-86324500D01*
X141412498Y-86324500D01*
X141412480Y-86324501D01*
X141309703Y-86335000D01*
X141309700Y-86335001D01*
X141194177Y-86373282D01*
X141124348Y-86375684D01*
X141067492Y-86343257D01*
X140887590Y-86163355D01*
X140887588Y-86163352D01*
X140768717Y-86044481D01*
X140768716Y-86044480D01*
X140666330Y-85985368D01*
X140666329Y-85985367D01*
X140631783Y-85965422D01*
X140575881Y-85950443D01*
X140479057Y-85924499D01*
X140320943Y-85924499D01*
X140313347Y-85924499D01*
X140313331Y-85924500D01*
X132761669Y-85924500D01*
X132761653Y-85924499D01*
X132754057Y-85924499D01*
X132595943Y-85924499D01*
X132516010Y-85945917D01*
X132443216Y-85965422D01*
X132408668Y-85985369D01*
X132408667Y-85985368D01*
X132306287Y-86044477D01*
X132306282Y-86044481D01*
X132194478Y-86156286D01*
X131787582Y-86563181D01*
X131726259Y-86596666D01*
X131699901Y-86599500D01*
X130149998Y-86599500D01*
X130149981Y-86599501D01*
X130047203Y-86610000D01*
X130047200Y-86610001D01*
X129880668Y-86665185D01*
X129880663Y-86665187D01*
X129731342Y-86757289D01*
X129607289Y-86881342D01*
X129515187Y-87030663D01*
X129515186Y-87030666D01*
X129460001Y-87197203D01*
X129460001Y-87197204D01*
X129460000Y-87197204D01*
X129449500Y-87299983D01*
X129449500Y-88404753D01*
X129429815Y-88471792D01*
X129377011Y-88517547D01*
X129307853Y-88527491D01*
X129278051Y-88519316D01*
X129256629Y-88510443D01*
X129200000Y-88502987D01*
X129200000Y-89010500D01*
X129180315Y-89077539D01*
X129127511Y-89123294D01*
X129076000Y-89134500D01*
X128924000Y-89134500D01*
X128856961Y-89114815D01*
X128811206Y-89062011D01*
X128800000Y-89010500D01*
X128800000Y-88502987D01*
X128743368Y-88510444D01*
X128597413Y-88570899D01*
X128472075Y-88667075D01*
X128375899Y-88792413D01*
X128315445Y-88938365D01*
X128315444Y-88938369D01*
X128304038Y-89025000D01*
X128333629Y-89058741D01*
X128363032Y-89122122D01*
X128353500Y-89191339D01*
X128308060Y-89244414D01*
X128241139Y-89264498D01*
X128240401Y-89264500D01*
X125245098Y-89264500D01*
X125178059Y-89244815D01*
X125157417Y-89228181D01*
X124911304Y-88982068D01*
X124656515Y-88727280D01*
X124623031Y-88665958D01*
X124623992Y-88609159D01*
X124624061Y-88608884D01*
X124624063Y-88608881D01*
X124685108Y-88367821D01*
X124687160Y-88343058D01*
X124705643Y-88120005D01*
X124705643Y-88119994D01*
X124685109Y-87872187D01*
X124685107Y-87872175D01*
X124624063Y-87631118D01*
X124524173Y-87403393D01*
X124388166Y-87195217D01*
X124342108Y-87145185D01*
X124219744Y-87012262D01*
X124023509Y-86859526D01*
X124023507Y-86859525D01*
X124023506Y-86859524D01*
X123804811Y-86741172D01*
X123804802Y-86741169D01*
X123569616Y-86660429D01*
X123324335Y-86619500D01*
X123075665Y-86619500D01*
X122830383Y-86660429D01*
X122595197Y-86741169D01*
X122595188Y-86741172D01*
X122376493Y-86859524D01*
X122180257Y-87012261D01*
X122011833Y-87195217D01*
X121875826Y-87403393D01*
X121775936Y-87631118D01*
X121714892Y-87872175D01*
X121714890Y-87872187D01*
X121694357Y-88119994D01*
X118700500Y-88119994D01*
X118700500Y-85349999D01*
X141821209Y-85349999D01*
X141821210Y-85350000D01*
X142350000Y-85350000D01*
X142350000Y-84795494D01*
X142349998Y-84795493D01*
X142203809Y-84837965D01*
X142203806Y-84837967D01*
X142064625Y-84920278D01*
X142064616Y-84920285D01*
X141950285Y-85034616D01*
X141950278Y-85034625D01*
X141867968Y-85173804D01*
X141867966Y-85173809D01*
X141822855Y-85329081D01*
X141822854Y-85329087D01*
X141821209Y-85349999D01*
X118700500Y-85349999D01*
X118700500Y-81904227D01*
X118720185Y-81837188D01*
X118772989Y-81791433D01*
X118842147Y-81781489D01*
X118905703Y-81810514D01*
X118943477Y-81869292D01*
X118946973Y-81884829D01*
X118975886Y-82067379D01*
X118975887Y-82067386D01*
X119076262Y-82441992D01*
X119215244Y-82804050D01*
X119391310Y-83149599D01*
X119602523Y-83474839D01*
X119602525Y-83474841D01*
X119811096Y-83732404D01*
X121305747Y-82237753D01*
X121379588Y-82339386D01*
X121557670Y-82517468D01*
X121659301Y-82591307D01*
X120164650Y-84085958D01*
X120422214Y-84294531D01*
X120422216Y-84294532D01*
X120747456Y-84505745D01*
X121093005Y-84681811D01*
X121455063Y-84820793D01*
X121829669Y-84921168D01*
X121829676Y-84921169D01*
X122212712Y-84981836D01*
X122599999Y-85002134D01*
X122600001Y-85002134D01*
X122987287Y-84981836D01*
X123370323Y-84921169D01*
X123370330Y-84921168D01*
X123744936Y-84820793D01*
X124106994Y-84681811D01*
X124452543Y-84505745D01*
X124777771Y-84294540D01*
X124777784Y-84294530D01*
X125035348Y-84085958D01*
X123540698Y-82591308D01*
X123642330Y-82517468D01*
X123820412Y-82339386D01*
X123894252Y-82237754D01*
X125388902Y-83732404D01*
X125597474Y-83474840D01*
X125597484Y-83474827D01*
X125808689Y-83149599D01*
X125984755Y-82804050D01*
X126123737Y-82441992D01*
X126224112Y-82067386D01*
X126224113Y-82067379D01*
X126284780Y-81684343D01*
X126305078Y-81297056D01*
X126305078Y-81297055D01*
X126284780Y-80909768D01*
X126251090Y-80697055D01*
X184797866Y-80697055D01*
X184797866Y-80697056D01*
X184818163Y-81084343D01*
X184878830Y-81467379D01*
X184878831Y-81467386D01*
X184979206Y-81841992D01*
X185118188Y-82204050D01*
X185294254Y-82549599D01*
X185505467Y-82874839D01*
X185505469Y-82874841D01*
X185714040Y-83132404D01*
X187208691Y-81637753D01*
X187282532Y-81739386D01*
X187460614Y-81917468D01*
X187562245Y-81991307D01*
X186067594Y-83485958D01*
X186325158Y-83694531D01*
X186325160Y-83694532D01*
X186650400Y-83905745D01*
X186995949Y-84081811D01*
X187358007Y-84220793D01*
X187732613Y-84321168D01*
X187732620Y-84321169D01*
X188115656Y-84381836D01*
X188502943Y-84402134D01*
X188502945Y-84402134D01*
X188890231Y-84381836D01*
X189273267Y-84321169D01*
X189273274Y-84321168D01*
X189647880Y-84220793D01*
X190009938Y-84081811D01*
X190355487Y-83905745D01*
X190680715Y-83694540D01*
X190680728Y-83694530D01*
X190938292Y-83485958D01*
X189443642Y-81991308D01*
X189545274Y-81917468D01*
X189723356Y-81739386D01*
X189797196Y-81637754D01*
X191291846Y-83132404D01*
X191500418Y-82874840D01*
X191500428Y-82874827D01*
X191711633Y-82549599D01*
X191887699Y-82204050D01*
X192026681Y-81841992D01*
X192127056Y-81467386D01*
X192127057Y-81467379D01*
X192187724Y-81084343D01*
X192208022Y-80697056D01*
X192208022Y-80697055D01*
X192187724Y-80309768D01*
X192127057Y-79926732D01*
X192127056Y-79926725D01*
X192026681Y-79552119D01*
X191887699Y-79190061D01*
X191711633Y-78844512D01*
X191500420Y-78519272D01*
X191500419Y-78519270D01*
X191291846Y-78261706D01*
X189797195Y-79756357D01*
X189723356Y-79654726D01*
X189545274Y-79476644D01*
X189443642Y-79402804D01*
X190938293Y-77908152D01*
X190680729Y-77699581D01*
X190680727Y-77699579D01*
X190355487Y-77488366D01*
X190009938Y-77312300D01*
X189647880Y-77173318D01*
X189273274Y-77072943D01*
X189273267Y-77072942D01*
X188890231Y-77012275D01*
X188502945Y-76991978D01*
X188502943Y-76991978D01*
X188115656Y-77012275D01*
X187732620Y-77072942D01*
X187732613Y-77072943D01*
X187358007Y-77173318D01*
X186995949Y-77312300D01*
X186650400Y-77488366D01*
X186325150Y-77699587D01*
X186067593Y-77908151D01*
X186067593Y-77908152D01*
X187562245Y-79402804D01*
X187460614Y-79476644D01*
X187282532Y-79654726D01*
X187208692Y-79756357D01*
X185714040Y-78261705D01*
X185714039Y-78261705D01*
X185505475Y-78519262D01*
X185294254Y-78844512D01*
X185118188Y-79190061D01*
X184979206Y-79552119D01*
X184878831Y-79926725D01*
X184878830Y-79926732D01*
X184818163Y-80309768D01*
X184797866Y-80697055D01*
X126251090Y-80697055D01*
X126224113Y-80526732D01*
X126224112Y-80526725D01*
X126123737Y-80152119D01*
X125984755Y-79790061D01*
X125808689Y-79444512D01*
X125597476Y-79119272D01*
X125597475Y-79119270D01*
X125388902Y-78861706D01*
X123894251Y-80356357D01*
X123820412Y-80254726D01*
X123642330Y-80076644D01*
X123540698Y-80002804D01*
X125035349Y-78508152D01*
X124777785Y-78299581D01*
X124777783Y-78299579D01*
X124452543Y-78088366D01*
X124106994Y-77912300D01*
X123744936Y-77773318D01*
X123370330Y-77672943D01*
X123370323Y-77672942D01*
X122987287Y-77612275D01*
X122600001Y-77591978D01*
X122599999Y-77591978D01*
X122212712Y-77612275D01*
X121829676Y-77672942D01*
X121829669Y-77672943D01*
X121455063Y-77773318D01*
X121093005Y-77912300D01*
X120747456Y-78088366D01*
X120422206Y-78299587D01*
X120164649Y-78508151D01*
X120164649Y-78508152D01*
X121659301Y-80002804D01*
X121557670Y-80076644D01*
X121379588Y-80254726D01*
X121305748Y-80356357D01*
X119811096Y-78861705D01*
X119811095Y-78861705D01*
X119602531Y-79119262D01*
X119391310Y-79444512D01*
X119215244Y-79790061D01*
X119076262Y-80152119D01*
X118975887Y-80526725D01*
X118975886Y-80526732D01*
X118946973Y-80709282D01*
X118917044Y-80772417D01*
X118857732Y-80809348D01*
X118787870Y-80808350D01*
X118729637Y-80769740D01*
X118701523Y-80705776D01*
X118700500Y-80689884D01*
X118700500Y-76824500D01*
X118720185Y-76757461D01*
X118772989Y-76711706D01*
X118824500Y-76700500D01*
X192775500Y-76700500D01*
X192842539Y-76720185D01*
G37*
%TD.AperFunction*%
%TA.AperFunction,Conductor*%
G36*
X191988902Y-120435348D02*
G01*
X192197474Y-120177784D01*
X192197484Y-120177771D01*
X192408689Y-119852543D01*
X192584755Y-119506994D01*
X192659736Y-119311664D01*
X192702138Y-119256132D01*
X192767832Y-119232339D01*
X192835960Y-119247841D01*
X192884893Y-119297714D01*
X192899500Y-119356102D01*
X192899500Y-121775500D01*
X192879815Y-121842539D01*
X192827011Y-121888294D01*
X192775500Y-121899500D01*
X189807171Y-121899500D01*
X189740132Y-121879815D01*
X189694377Y-121827011D01*
X189684433Y-121757853D01*
X189713458Y-121694297D01*
X189772236Y-121656523D01*
X189787773Y-121653027D01*
X189970323Y-121624113D01*
X189970330Y-121624112D01*
X190344936Y-121523737D01*
X190706994Y-121384755D01*
X191052543Y-121208689D01*
X191377771Y-120997484D01*
X191377784Y-120997474D01*
X191635348Y-120788902D01*
X190140698Y-119294252D01*
X190242330Y-119220412D01*
X190420412Y-119042330D01*
X190494252Y-118940698D01*
X191988902Y-120435348D01*
G37*
%TD.AperFunction*%
%TD*%
D39*
X138200000Y-102600000D03*
X133000000Y-99400000D03*
X128600000Y-95800000D03*
X142400000Y-90400000D03*
X147800000Y-96400000D03*
X149800000Y-93200000D03*
X154800000Y-81600000D03*
X146000000Y-78400000D03*
X170000000Y-81200000D03*
X182800000Y-90200000D03*
X189200000Y-97600000D03*
X172600000Y-103000000D03*
X163200000Y-99600000D03*
X177400000Y-110600000D03*
X169800000Y-120000000D03*
X159600000Y-116400000D03*
X148000000Y-116200000D03*
X125400000Y-107600000D03*
X139800000Y-96800000D03*
X137200000Y-93000000D03*
X137200000Y-89000000D03*
X135400000Y-82400000D03*
X166800000Y-115000000D03*
X155600000Y-110600000D03*
X147138235Y-107338235D03*
X149800000Y-85200000D03*
X156000000Y-85200000D03*
X136800000Y-104000000D03*
X138200000Y-112600000D03*
D40*
X133180000Y-117020000D03*
X135720000Y-117020000D03*
X138260000Y-117020000D03*
X140800000Y-117020000D03*
X140800000Y-109400000D03*
X138260000Y-109400000D03*
X135720000Y-109400000D03*
X133180000Y-109400000D03*
X151800000Y-96180000D03*
X151800000Y-111420000D03*
X158600000Y-96180000D03*
X158600000Y-111420000D03*
X189200000Y-108760000D03*
X189200000Y-106480000D03*
X189200000Y-104200000D03*
X166200000Y-103800000D03*
X166200000Y-106080000D03*
X166200000Y-108360000D03*
X166200000Y-93600000D03*
X166200000Y-91320000D03*
X166200000Y-89040000D03*
X123200000Y-93200000D03*
X123200000Y-90660000D03*
X123200000Y-88120000D03*
X189400000Y-92340000D03*
X189400000Y-89800000D03*
X123200000Y-101060000D03*
X123200000Y-98520000D03*
X186800000Y-118000000D03*
X187502944Y-116302944D03*
X187502944Y-119697056D03*
X189200000Y-115600000D03*
X189200000Y-118000000D03*
X189200000Y-120400000D03*
X190897056Y-116302944D03*
X190897056Y-119697056D03*
X191600000Y-118000000D03*
X186102944Y-80697056D03*
X186805888Y-79000000D03*
X186805888Y-82394112D03*
X188502944Y-78297056D03*
X188502944Y-80697056D03*
X188502944Y-83097056D03*
X190200000Y-79000000D03*
X190200000Y-82394112D03*
X190902944Y-80697056D03*
X120400000Y-117400000D03*
X121102944Y-115702944D03*
X121102944Y-119097056D03*
X122800000Y-115000000D03*
X122800000Y-117400000D03*
X122800000Y-119800000D03*
X124497056Y-115702944D03*
X124497056Y-119097056D03*
X125200000Y-117400000D03*
X125000000Y-81297056D03*
X124297056Y-82994112D03*
X124297056Y-79600000D03*
X122600000Y-83697056D03*
X122600000Y-81297056D03*
X122600000Y-78897056D03*
X120902944Y-82994112D03*
X120902944Y-79600000D03*
X120200000Y-81297056D03*
M02*
