%TF.GenerationSoftware,KiCad,Pcbnew,8.0.8*%
%TF.CreationDate,2025-01-31T21:35:18+01:00*%
%TF.ProjectId,BufferCorrente,42756666-6572-4436-9f72-72656e74652e,rev?*%
%TF.SameCoordinates,Original*%
%TF.FileFunction,Soldermask,Top*%
%TF.FilePolarity,Negative*%
%FSLAX46Y46*%
G04 Gerber Fmt 4.6, Leading zero omitted, Abs format (unit mm)*
G04 Created by KiCad (PCBNEW 8.0.8) date 2025-01-31 21:35:18*
%MOMM*%
%LPD*%
G01*
G04 APERTURE LIST*
G04 Aperture macros list*
%AMRoundRect*
0 Rectangle with rounded corners*
0 $1 Rounding radius*
0 $2 $3 $4 $5 $6 $7 $8 $9 X,Y pos of 4 corners*
0 Add a 4 corners polygon primitive as box body*
4,1,4,$2,$3,$4,$5,$6,$7,$8,$9,$2,$3,0*
0 Add four circle primitives for the rounded corners*
1,1,$1+$1,$2,$3*
1,1,$1+$1,$4,$5*
1,1,$1+$1,$6,$7*
1,1,$1+$1,$8,$9*
0 Add four rect primitives between the rounded corners*
20,1,$1+$1,$2,$3,$4,$5,0*
20,1,$1+$1,$4,$5,$6,$7,0*
20,1,$1+$1,$6,$7,$8,$9,0*
20,1,$1+$1,$8,$9,$2,$3,0*%
G04 Aperture macros list end*
%ADD10R,1.600000X1.600000*%
%ADD11O,1.600000X1.600000*%
%ADD12C,2.400000*%
%ADD13O,2.400000X2.400000*%
%ADD14RoundRect,0.250000X0.625000X-0.312500X0.625000X0.312500X-0.625000X0.312500X-0.625000X-0.312500X0*%
%ADD15RoundRect,0.250000X-0.312500X-0.625000X0.312500X-0.625000X0.312500X0.625000X-0.312500X0.625000X0*%
%ADD16RoundRect,0.100000X0.100000X-0.130000X0.100000X0.130000X-0.100000X0.130000X-0.100000X-0.130000X0*%
%ADD17R,1.800000X1.710000*%
%ADD18O,1.800000X1.710000*%
%ADD19R,2.000000X2.000000*%
%ADD20C,2.000000*%
%ADD21C,0.800000*%
%ADD22C,6.400000*%
%ADD23RoundRect,0.250000X-0.300000X-0.300000X0.300000X-0.300000X0.300000X0.300000X-0.300000X0.300000X0*%
%ADD24RoundRect,0.225000X0.375000X-0.225000X0.375000X0.225000X-0.375000X0.225000X-0.375000X-0.225000X0*%
%ADD25RoundRect,0.250000X-1.000000X-0.650000X1.000000X-0.650000X1.000000X0.650000X-1.000000X0.650000X0*%
%ADD26RoundRect,0.225000X-0.225000X-0.375000X0.225000X-0.375000X0.225000X0.375000X-0.225000X0.375000X0*%
%ADD27RoundRect,0.250000X-0.450000X-0.425000X0.450000X-0.425000X0.450000X0.425000X-0.450000X0.425000X0*%
%ADD28RoundRect,0.140000X-0.170000X0.140000X-0.170000X-0.140000X0.170000X-0.140000X0.170000X0.140000X0*%
%ADD29RoundRect,0.250000X0.650000X-0.325000X0.650000X0.325000X-0.650000X0.325000X-0.650000X-0.325000X0*%
%ADD30RoundRect,0.140000X-0.140000X-0.170000X0.140000X-0.170000X0.140000X0.170000X-0.140000X0.170000X0*%
%ADD31RoundRect,0.140000X0.170000X-0.140000X0.170000X0.140000X-0.170000X0.140000X-0.170000X-0.140000X0*%
%ADD32RoundRect,0.250000X-0.412500X-0.925000X0.412500X-0.925000X0.412500X0.925000X-0.412500X0.925000X0*%
%ADD33RoundRect,0.250000X0.412500X0.925000X-0.412500X0.925000X-0.412500X-0.925000X0.412500X-0.925000X0*%
%ADD34RoundRect,0.140000X0.140000X0.170000X-0.140000X0.170000X-0.140000X-0.170000X0.140000X-0.170000X0*%
G04 APERTURE END LIST*
D10*
%TO.C,U1*%
X133180000Y-117020000D03*
D11*
X135720000Y-117020000D03*
X138260000Y-117020000D03*
X140800000Y-117020000D03*
X140800000Y-109400000D03*
X138260000Y-109400000D03*
X135720000Y-109400000D03*
X133180000Y-109400000D03*
%TD*%
D12*
%TO.C,R11*%
X151800000Y-96180000D03*
D13*
X151800000Y-111420000D03*
%TD*%
D12*
%TO.C,R10*%
X158600000Y-96180000D03*
D13*
X158600000Y-111420000D03*
%TD*%
D14*
%TO.C,R9*%
X145290000Y-101125000D03*
X145290000Y-98200000D03*
%TD*%
%TO.C,R8*%
X141600000Y-101125000D03*
X141600000Y-98200000D03*
%TD*%
D15*
%TO.C,R7*%
X156875000Y-86720000D03*
X159800000Y-86720000D03*
%TD*%
%TO.C,R6*%
X154800000Y-86720000D03*
X151875000Y-86720000D03*
%TD*%
D14*
%TO.C,R5*%
X143800000Y-111525000D03*
X143800000Y-108600000D03*
%TD*%
%TO.C,R4*%
X162200000Y-91845000D03*
X162200000Y-88920000D03*
%TD*%
D16*
%TO.C,R2*%
X131100000Y-99775000D03*
X131100000Y-99135000D03*
%TD*%
%TO.C,R1*%
X129300000Y-99135000D03*
X129300000Y-99775000D03*
%TD*%
D17*
%TO.C,Q3*%
X189200000Y-108760000D03*
D18*
X189200000Y-106480000D03*
X189200000Y-104200000D03*
%TD*%
D17*
%TO.C,Q2*%
X166200000Y-103800000D03*
D18*
X166200000Y-106080000D03*
X166200000Y-108360000D03*
%TD*%
%TO.C,Q1*%
X166200000Y-93600000D03*
X166200000Y-91320000D03*
D17*
X166200000Y-89040000D03*
%TD*%
D19*
%TO.C,Power*%
X123200000Y-93200000D03*
D20*
X123200000Y-90660000D03*
X123200000Y-88120000D03*
%TD*%
D19*
%TO.C,OUT*%
X189400000Y-92340000D03*
D20*
X189400000Y-89800000D03*
%TD*%
D19*
%TO.C,SIG*%
X123200000Y-101060000D03*
D20*
X123200000Y-98520000D03*
%TD*%
D21*
%TO.C,M3*%
X186800000Y-118000000D03*
X187502944Y-116302944D03*
X187502944Y-119697056D03*
X189200000Y-115600000D03*
D22*
X189200000Y-118000000D03*
D21*
X189200000Y-120400000D03*
X190897056Y-116302944D03*
X190897056Y-119697056D03*
X191600000Y-118000000D03*
%TD*%
%TO.C,M3*%
X186102944Y-80697056D03*
X186805888Y-79000000D03*
X186805888Y-82394112D03*
X188502944Y-78297056D03*
D22*
X188502944Y-80697056D03*
D21*
X188502944Y-83097056D03*
X190200000Y-79000000D03*
X190200000Y-82394112D03*
X190902944Y-80697056D03*
%TD*%
%TO.C,M3*%
X120400000Y-117400000D03*
X121102944Y-115702944D03*
X121102944Y-119097056D03*
X122800000Y-115000000D03*
D22*
X122800000Y-117400000D03*
D21*
X122800000Y-119800000D03*
X124497056Y-115702944D03*
X124497056Y-119097056D03*
X125200000Y-117400000D03*
%TD*%
%TO.C,M3*%
X125000000Y-81297056D03*
X124297056Y-82994112D03*
X124297056Y-79600000D03*
X122600000Y-83697056D03*
D22*
X122600000Y-81297056D03*
D21*
X122600000Y-78897056D03*
X120902944Y-82994112D03*
X120902944Y-79600000D03*
X120200000Y-81297056D03*
%TD*%
D23*
%TO.C,D7*%
X163000000Y-113000000D03*
X165800000Y-113000000D03*
%TD*%
%TO.C,D6*%
X167800000Y-113000000D03*
X170600000Y-113000000D03*
%TD*%
D24*
%TO.C,D5*%
X158000000Y-92020000D03*
X158000000Y-88720000D03*
%TD*%
D25*
%TO.C,D4*%
X135200000Y-93000000D03*
X131200000Y-93000000D03*
%TD*%
%TO.C,D3*%
X135200000Y-88000000D03*
X131200000Y-88000000D03*
%TD*%
D26*
%TO.C,D2*%
X136300000Y-101400000D03*
X133000000Y-101400000D03*
%TD*%
%TO.C,D1*%
X136300000Y-97450000D03*
X133000000Y-97450000D03*
%TD*%
D27*
%TO.C,C17*%
X141250000Y-104440000D03*
X143950000Y-104440000D03*
%TD*%
D28*
%TO.C,C16*%
X145800000Y-103840000D03*
X145800000Y-104800000D03*
%TD*%
D29*
%TO.C,C15*%
X145400000Y-94350000D03*
X145400000Y-91400000D03*
%TD*%
D30*
%TO.C,C14*%
X142640000Y-95200000D03*
X143600000Y-95200000D03*
%TD*%
D27*
%TO.C,C13*%
X151400000Y-90400000D03*
X154100000Y-90400000D03*
%TD*%
D31*
%TO.C,C12*%
X149500000Y-90960000D03*
X149500000Y-90000000D03*
%TD*%
D30*
%TO.C,C11*%
X142600000Y-85600000D03*
X143560000Y-85600000D03*
%TD*%
D29*
%TO.C,C10*%
X145400000Y-89350000D03*
X145400000Y-86400000D03*
%TD*%
D30*
%TO.C,C9*%
X161840000Y-87320000D03*
X162800000Y-87320000D03*
%TD*%
D32*
%TO.C,C8*%
X138800000Y-93000000D03*
X141875000Y-93000000D03*
%TD*%
D33*
%TO.C,C7*%
X141875000Y-88000000D03*
X138800000Y-88000000D03*
%TD*%
D16*
%TO.C,C6*%
X129000000Y-92040000D03*
X129000000Y-91400000D03*
%TD*%
%TO.C,C5*%
X129000000Y-89865000D03*
X129000000Y-89225000D03*
%TD*%
D34*
%TO.C,C2*%
X141360000Y-119200000D03*
X140400000Y-119200000D03*
%TD*%
D30*
%TO.C,C1*%
X134800000Y-107000000D03*
X135760000Y-107000000D03*
%TD*%
M02*
