%TF.GenerationSoftware,KiCad,Pcbnew,8.0.3*%
%TF.CreationDate,2024-12-18T20:06:44+01:00*%
%TF.ProjectId,Oscillatore,4f736369-6c6c-4617-946f-72652e6b6963,rev?*%
%TF.SameCoordinates,Original*%
%TF.FileFunction,Legend,Top*%
%TF.FilePolarity,Positive*%
%FSLAX46Y46*%
G04 Gerber Fmt 4.6, Leading zero omitted, Abs format (unit mm)*
G04 Created by KiCad (PCBNEW 8.0.3) date 2024-12-18 20:06:44*
%MOMM*%
%LPD*%
G01*
G04 APERTURE LIST*
%ADD10C,0.150000*%
%ADD11C,0.120000*%
%ADD12C,0.350000*%
G04 APERTURE END LIST*
D10*
X143500000Y-71407200D02*
X143642857Y-71454819D01*
X143642857Y-71454819D02*
X143880952Y-71454819D01*
X143880952Y-71454819D02*
X143976190Y-71407200D01*
X143976190Y-71407200D02*
X144023809Y-71359580D01*
X144023809Y-71359580D02*
X144071428Y-71264342D01*
X144071428Y-71264342D02*
X144071428Y-71169104D01*
X144071428Y-71169104D02*
X144023809Y-71073866D01*
X144023809Y-71073866D02*
X143976190Y-71026247D01*
X143976190Y-71026247D02*
X143880952Y-70978628D01*
X143880952Y-70978628D02*
X143690476Y-70931009D01*
X143690476Y-70931009D02*
X143595238Y-70883390D01*
X143595238Y-70883390D02*
X143547619Y-70835771D01*
X143547619Y-70835771D02*
X143500000Y-70740533D01*
X143500000Y-70740533D02*
X143500000Y-70645295D01*
X143500000Y-70645295D02*
X143547619Y-70550057D01*
X143547619Y-70550057D02*
X143595238Y-70502438D01*
X143595238Y-70502438D02*
X143690476Y-70454819D01*
X143690476Y-70454819D02*
X143928571Y-70454819D01*
X143928571Y-70454819D02*
X144071428Y-70502438D01*
X144500000Y-71454819D02*
X144500000Y-70454819D01*
X144976190Y-71454819D02*
X144976190Y-70454819D01*
X144976190Y-70454819D02*
X145547618Y-71454819D01*
X145547618Y-71454819D02*
X145547618Y-70454819D01*
X146023809Y-70931009D02*
X146357142Y-70931009D01*
X146499999Y-71454819D02*
X146023809Y-71454819D01*
X146023809Y-71454819D02*
X146023809Y-70454819D01*
X146023809Y-70454819D02*
X146499999Y-70454819D01*
X144238095Y-78502438D02*
X144142857Y-78454819D01*
X144142857Y-78454819D02*
X144000000Y-78454819D01*
X144000000Y-78454819D02*
X143857143Y-78502438D01*
X143857143Y-78502438D02*
X143761905Y-78597676D01*
X143761905Y-78597676D02*
X143714286Y-78692914D01*
X143714286Y-78692914D02*
X143666667Y-78883390D01*
X143666667Y-78883390D02*
X143666667Y-79026247D01*
X143666667Y-79026247D02*
X143714286Y-79216723D01*
X143714286Y-79216723D02*
X143761905Y-79311961D01*
X143761905Y-79311961D02*
X143857143Y-79407200D01*
X143857143Y-79407200D02*
X144000000Y-79454819D01*
X144000000Y-79454819D02*
X144095238Y-79454819D01*
X144095238Y-79454819D02*
X144238095Y-79407200D01*
X144238095Y-79407200D02*
X144285714Y-79359580D01*
X144285714Y-79359580D02*
X144285714Y-79026247D01*
X144285714Y-79026247D02*
X144095238Y-79026247D01*
X144714286Y-79454819D02*
X144714286Y-78454819D01*
X144714286Y-78454819D02*
X145285714Y-79454819D01*
X145285714Y-79454819D02*
X145285714Y-78454819D01*
X145761905Y-79454819D02*
X145761905Y-78454819D01*
X145761905Y-78454819D02*
X146000000Y-78454819D01*
X146000000Y-78454819D02*
X146142857Y-78502438D01*
X146142857Y-78502438D02*
X146238095Y-78597676D01*
X146238095Y-78597676D02*
X146285714Y-78692914D01*
X146285714Y-78692914D02*
X146333333Y-78883390D01*
X146333333Y-78883390D02*
X146333333Y-79026247D01*
X146333333Y-79026247D02*
X146285714Y-79216723D01*
X146285714Y-79216723D02*
X146238095Y-79311961D01*
X146238095Y-79311961D02*
X146142857Y-79407200D01*
X146142857Y-79407200D02*
X146000000Y-79454819D01*
X146000000Y-79454819D02*
X145761905Y-79454819D01*
X107738095Y-79002438D02*
X107642857Y-78954819D01*
X107642857Y-78954819D02*
X107500000Y-78954819D01*
X107500000Y-78954819D02*
X107357143Y-79002438D01*
X107357143Y-79002438D02*
X107261905Y-79097676D01*
X107261905Y-79097676D02*
X107214286Y-79192914D01*
X107214286Y-79192914D02*
X107166667Y-79383390D01*
X107166667Y-79383390D02*
X107166667Y-79526247D01*
X107166667Y-79526247D02*
X107214286Y-79716723D01*
X107214286Y-79716723D02*
X107261905Y-79811961D01*
X107261905Y-79811961D02*
X107357143Y-79907200D01*
X107357143Y-79907200D02*
X107500000Y-79954819D01*
X107500000Y-79954819D02*
X107595238Y-79954819D01*
X107595238Y-79954819D02*
X107738095Y-79907200D01*
X107738095Y-79907200D02*
X107785714Y-79859580D01*
X107785714Y-79859580D02*
X107785714Y-79526247D01*
X107785714Y-79526247D02*
X107595238Y-79526247D01*
X108214286Y-79954819D02*
X108214286Y-78954819D01*
X108214286Y-78954819D02*
X108785714Y-79954819D01*
X108785714Y-79954819D02*
X108785714Y-78954819D01*
X109261905Y-79954819D02*
X109261905Y-78954819D01*
X109261905Y-78954819D02*
X109500000Y-78954819D01*
X109500000Y-78954819D02*
X109642857Y-79002438D01*
X109642857Y-79002438D02*
X109738095Y-79097676D01*
X109738095Y-79097676D02*
X109785714Y-79192914D01*
X109785714Y-79192914D02*
X109833333Y-79383390D01*
X109833333Y-79383390D02*
X109833333Y-79526247D01*
X109833333Y-79526247D02*
X109785714Y-79716723D01*
X109785714Y-79716723D02*
X109738095Y-79811961D01*
X109738095Y-79811961D02*
X109642857Y-79907200D01*
X109642857Y-79907200D02*
X109500000Y-79954819D01*
X109500000Y-79954819D02*
X109261905Y-79954819D01*
X107166667Y-70454819D02*
X107500000Y-71454819D01*
X107500000Y-71454819D02*
X107833333Y-70454819D01*
X108738095Y-71359580D02*
X108690476Y-71407200D01*
X108690476Y-71407200D02*
X108547619Y-71454819D01*
X108547619Y-71454819D02*
X108452381Y-71454819D01*
X108452381Y-71454819D02*
X108309524Y-71407200D01*
X108309524Y-71407200D02*
X108214286Y-71311961D01*
X108214286Y-71311961D02*
X108166667Y-71216723D01*
X108166667Y-71216723D02*
X108119048Y-71026247D01*
X108119048Y-71026247D02*
X108119048Y-70883390D01*
X108119048Y-70883390D02*
X108166667Y-70692914D01*
X108166667Y-70692914D02*
X108214286Y-70597676D01*
X108214286Y-70597676D02*
X108309524Y-70502438D01*
X108309524Y-70502438D02*
X108452381Y-70454819D01*
X108452381Y-70454819D02*
X108547619Y-70454819D01*
X108547619Y-70454819D02*
X108690476Y-70502438D01*
X108690476Y-70502438D02*
X108738095Y-70550057D01*
X109738095Y-71359580D02*
X109690476Y-71407200D01*
X109690476Y-71407200D02*
X109547619Y-71454819D01*
X109547619Y-71454819D02*
X109452381Y-71454819D01*
X109452381Y-71454819D02*
X109309524Y-71407200D01*
X109309524Y-71407200D02*
X109214286Y-71311961D01*
X109214286Y-71311961D02*
X109166667Y-71216723D01*
X109166667Y-71216723D02*
X109119048Y-71026247D01*
X109119048Y-71026247D02*
X109119048Y-70883390D01*
X109119048Y-70883390D02*
X109166667Y-70692914D01*
X109166667Y-70692914D02*
X109214286Y-70597676D01*
X109214286Y-70597676D02*
X109309524Y-70502438D01*
X109309524Y-70502438D02*
X109452381Y-70454819D01*
X109452381Y-70454819D02*
X109547619Y-70454819D01*
X109547619Y-70454819D02*
X109690476Y-70502438D01*
X109690476Y-70502438D02*
X109738095Y-70550057D01*
X104734819Y-77198570D02*
X103734819Y-77198570D01*
X104734819Y-76722380D02*
X103734819Y-76722380D01*
X103734819Y-76722380D02*
X104734819Y-76150952D01*
X104734819Y-76150952D02*
X103734819Y-76150952D01*
X104734819Y-75674761D02*
X103734819Y-75674761D01*
X103734819Y-75674761D02*
X103734819Y-75293809D01*
X103734819Y-75293809D02*
X103782438Y-75198571D01*
X103782438Y-75198571D02*
X103830057Y-75150952D01*
X103830057Y-75150952D02*
X103925295Y-75103333D01*
X103925295Y-75103333D02*
X104068152Y-75103333D01*
X104068152Y-75103333D02*
X104163390Y-75150952D01*
X104163390Y-75150952D02*
X104211009Y-75198571D01*
X104211009Y-75198571D02*
X104258628Y-75293809D01*
X104258628Y-75293809D02*
X104258628Y-75674761D01*
X103734819Y-74674761D02*
X104544342Y-74674761D01*
X104544342Y-74674761D02*
X104639580Y-74627142D01*
X104639580Y-74627142D02*
X104687200Y-74579523D01*
X104687200Y-74579523D02*
X104734819Y-74484285D01*
X104734819Y-74484285D02*
X104734819Y-74293809D01*
X104734819Y-74293809D02*
X104687200Y-74198571D01*
X104687200Y-74198571D02*
X104639580Y-74150952D01*
X104639580Y-74150952D02*
X104544342Y-74103333D01*
X104544342Y-74103333D02*
X103734819Y-74103333D01*
X103734819Y-73769999D02*
X103734819Y-73198571D01*
X104734819Y-73484285D02*
X103734819Y-73484285D01*
X119523333Y-74584819D02*
X119190000Y-74108628D01*
X118951905Y-74584819D02*
X118951905Y-73584819D01*
X118951905Y-73584819D02*
X119332857Y-73584819D01*
X119332857Y-73584819D02*
X119428095Y-73632438D01*
X119428095Y-73632438D02*
X119475714Y-73680057D01*
X119475714Y-73680057D02*
X119523333Y-73775295D01*
X119523333Y-73775295D02*
X119523333Y-73918152D01*
X119523333Y-73918152D02*
X119475714Y-74013390D01*
X119475714Y-74013390D02*
X119428095Y-74061009D01*
X119428095Y-74061009D02*
X119332857Y-74108628D01*
X119332857Y-74108628D02*
X118951905Y-74108628D01*
X119856667Y-73584819D02*
X120475714Y-73584819D01*
X120475714Y-73584819D02*
X120142381Y-73965771D01*
X120142381Y-73965771D02*
X120285238Y-73965771D01*
X120285238Y-73965771D02*
X120380476Y-74013390D01*
X120380476Y-74013390D02*
X120428095Y-74061009D01*
X120428095Y-74061009D02*
X120475714Y-74156247D01*
X120475714Y-74156247D02*
X120475714Y-74394342D01*
X120475714Y-74394342D02*
X120428095Y-74489580D01*
X120428095Y-74489580D02*
X120380476Y-74537200D01*
X120380476Y-74537200D02*
X120285238Y-74584819D01*
X120285238Y-74584819D02*
X119999524Y-74584819D01*
X119999524Y-74584819D02*
X119904286Y-74537200D01*
X119904286Y-74537200D02*
X119856667Y-74489580D01*
X133523333Y-64584819D02*
X133190000Y-64108628D01*
X132951905Y-64584819D02*
X132951905Y-63584819D01*
X132951905Y-63584819D02*
X133332857Y-63584819D01*
X133332857Y-63584819D02*
X133428095Y-63632438D01*
X133428095Y-63632438D02*
X133475714Y-63680057D01*
X133475714Y-63680057D02*
X133523333Y-63775295D01*
X133523333Y-63775295D02*
X133523333Y-63918152D01*
X133523333Y-63918152D02*
X133475714Y-64013390D01*
X133475714Y-64013390D02*
X133428095Y-64061009D01*
X133428095Y-64061009D02*
X133332857Y-64108628D01*
X133332857Y-64108628D02*
X132951905Y-64108628D01*
X133904286Y-63680057D02*
X133951905Y-63632438D01*
X133951905Y-63632438D02*
X134047143Y-63584819D01*
X134047143Y-63584819D02*
X134285238Y-63584819D01*
X134285238Y-63584819D02*
X134380476Y-63632438D01*
X134380476Y-63632438D02*
X134428095Y-63680057D01*
X134428095Y-63680057D02*
X134475714Y-63775295D01*
X134475714Y-63775295D02*
X134475714Y-63870533D01*
X134475714Y-63870533D02*
X134428095Y-64013390D01*
X134428095Y-64013390D02*
X133856667Y-64584819D01*
X133856667Y-64584819D02*
X134475714Y-64584819D01*
X130643333Y-84324819D02*
X130310000Y-83848628D01*
X130071905Y-84324819D02*
X130071905Y-83324819D01*
X130071905Y-83324819D02*
X130452857Y-83324819D01*
X130452857Y-83324819D02*
X130548095Y-83372438D01*
X130548095Y-83372438D02*
X130595714Y-83420057D01*
X130595714Y-83420057D02*
X130643333Y-83515295D01*
X130643333Y-83515295D02*
X130643333Y-83658152D01*
X130643333Y-83658152D02*
X130595714Y-83753390D01*
X130595714Y-83753390D02*
X130548095Y-83801009D01*
X130548095Y-83801009D02*
X130452857Y-83848628D01*
X130452857Y-83848628D02*
X130071905Y-83848628D01*
X131595714Y-84324819D02*
X131024286Y-84324819D01*
X131310000Y-84324819D02*
X131310000Y-83324819D01*
X131310000Y-83324819D02*
X131214762Y-83467676D01*
X131214762Y-83467676D02*
X131119524Y-83562914D01*
X131119524Y-83562914D02*
X131024286Y-83610533D01*
X139070057Y-75365238D02*
X139022438Y-75460476D01*
X139022438Y-75460476D02*
X138927200Y-75555714D01*
X138927200Y-75555714D02*
X138784342Y-75698571D01*
X138784342Y-75698571D02*
X138736723Y-75793809D01*
X138736723Y-75793809D02*
X138736723Y-75889047D01*
X138974819Y-75841428D02*
X138927200Y-75936666D01*
X138927200Y-75936666D02*
X138831961Y-76031904D01*
X138831961Y-76031904D02*
X138641485Y-76079523D01*
X138641485Y-76079523D02*
X138308152Y-76079523D01*
X138308152Y-76079523D02*
X138117676Y-76031904D01*
X138117676Y-76031904D02*
X138022438Y-75936666D01*
X138022438Y-75936666D02*
X137974819Y-75841428D01*
X137974819Y-75841428D02*
X137974819Y-75650952D01*
X137974819Y-75650952D02*
X138022438Y-75555714D01*
X138022438Y-75555714D02*
X138117676Y-75460476D01*
X138117676Y-75460476D02*
X138308152Y-75412857D01*
X138308152Y-75412857D02*
X138641485Y-75412857D01*
X138641485Y-75412857D02*
X138831961Y-75460476D01*
X138831961Y-75460476D02*
X138927200Y-75555714D01*
X138927200Y-75555714D02*
X138974819Y-75650952D01*
X138974819Y-75650952D02*
X138974819Y-75841428D01*
X138974819Y-74460476D02*
X138974819Y-75031904D01*
X138974819Y-74746190D02*
X137974819Y-74746190D01*
X137974819Y-74746190D02*
X138117676Y-74841428D01*
X138117676Y-74841428D02*
X138212914Y-74936666D01*
X138212914Y-74936666D02*
X138260533Y-75031904D01*
X119753333Y-68234819D02*
X119277143Y-68234819D01*
X119277143Y-68234819D02*
X119277143Y-67234819D01*
X120610476Y-68234819D02*
X120039048Y-68234819D01*
X120324762Y-68234819D02*
X120324762Y-67234819D01*
X120324762Y-67234819D02*
X120229524Y-67377676D01*
X120229524Y-67377676D02*
X120134286Y-67472914D01*
X120134286Y-67472914D02*
X120039048Y-67520533D01*
X148674819Y-77674761D02*
X148674819Y-77484285D01*
X148674819Y-77484285D02*
X148722438Y-77389047D01*
X148722438Y-77389047D02*
X148817676Y-77293809D01*
X148817676Y-77293809D02*
X149008152Y-77246190D01*
X149008152Y-77246190D02*
X149341485Y-77246190D01*
X149341485Y-77246190D02*
X149531961Y-77293809D01*
X149531961Y-77293809D02*
X149627200Y-77389047D01*
X149627200Y-77389047D02*
X149674819Y-77484285D01*
X149674819Y-77484285D02*
X149674819Y-77674761D01*
X149674819Y-77674761D02*
X149627200Y-77769999D01*
X149627200Y-77769999D02*
X149531961Y-77865237D01*
X149531961Y-77865237D02*
X149341485Y-77912856D01*
X149341485Y-77912856D02*
X149008152Y-77912856D01*
X149008152Y-77912856D02*
X148817676Y-77865237D01*
X148817676Y-77865237D02*
X148722438Y-77769999D01*
X148722438Y-77769999D02*
X148674819Y-77674761D01*
X148674819Y-76817618D02*
X149484342Y-76817618D01*
X149484342Y-76817618D02*
X149579580Y-76769999D01*
X149579580Y-76769999D02*
X149627200Y-76722380D01*
X149627200Y-76722380D02*
X149674819Y-76627142D01*
X149674819Y-76627142D02*
X149674819Y-76436666D01*
X149674819Y-76436666D02*
X149627200Y-76341428D01*
X149627200Y-76341428D02*
X149579580Y-76293809D01*
X149579580Y-76293809D02*
X149484342Y-76246190D01*
X149484342Y-76246190D02*
X148674819Y-76246190D01*
X148674819Y-75912856D02*
X148674819Y-75341428D01*
X149674819Y-75627142D02*
X148674819Y-75627142D01*
X149674819Y-75008094D02*
X148674819Y-75008094D01*
X148674819Y-75008094D02*
X148674819Y-74627142D01*
X148674819Y-74627142D02*
X148722438Y-74531904D01*
X148722438Y-74531904D02*
X148770057Y-74484285D01*
X148770057Y-74484285D02*
X148865295Y-74436666D01*
X148865295Y-74436666D02*
X149008152Y-74436666D01*
X149008152Y-74436666D02*
X149103390Y-74484285D01*
X149103390Y-74484285D02*
X149151009Y-74531904D01*
X149151009Y-74531904D02*
X149198628Y-74627142D01*
X149198628Y-74627142D02*
X149198628Y-75008094D01*
X148674819Y-74008094D02*
X149484342Y-74008094D01*
X149484342Y-74008094D02*
X149579580Y-73960475D01*
X149579580Y-73960475D02*
X149627200Y-73912856D01*
X149627200Y-73912856D02*
X149674819Y-73817618D01*
X149674819Y-73817618D02*
X149674819Y-73627142D01*
X149674819Y-73627142D02*
X149627200Y-73531904D01*
X149627200Y-73531904D02*
X149579580Y-73484285D01*
X149579580Y-73484285D02*
X149484342Y-73436666D01*
X149484342Y-73436666D02*
X148674819Y-73436666D01*
X148674819Y-73103332D02*
X148674819Y-72531904D01*
X149674819Y-72817618D02*
X148674819Y-72817618D01*
X142833333Y-64359580D02*
X142785714Y-64407200D01*
X142785714Y-64407200D02*
X142642857Y-64454819D01*
X142642857Y-64454819D02*
X142547619Y-64454819D01*
X142547619Y-64454819D02*
X142404762Y-64407200D01*
X142404762Y-64407200D02*
X142309524Y-64311961D01*
X142309524Y-64311961D02*
X142261905Y-64216723D01*
X142261905Y-64216723D02*
X142214286Y-64026247D01*
X142214286Y-64026247D02*
X142214286Y-63883390D01*
X142214286Y-63883390D02*
X142261905Y-63692914D01*
X142261905Y-63692914D02*
X142309524Y-63597676D01*
X142309524Y-63597676D02*
X142404762Y-63502438D01*
X142404762Y-63502438D02*
X142547619Y-63454819D01*
X142547619Y-63454819D02*
X142642857Y-63454819D01*
X142642857Y-63454819D02*
X142785714Y-63502438D01*
X142785714Y-63502438D02*
X142833333Y-63550057D01*
X143166667Y-63454819D02*
X143785714Y-63454819D01*
X143785714Y-63454819D02*
X143452381Y-63835771D01*
X143452381Y-63835771D02*
X143595238Y-63835771D01*
X143595238Y-63835771D02*
X143690476Y-63883390D01*
X143690476Y-63883390D02*
X143738095Y-63931009D01*
X143738095Y-63931009D02*
X143785714Y-64026247D01*
X143785714Y-64026247D02*
X143785714Y-64264342D01*
X143785714Y-64264342D02*
X143738095Y-64359580D01*
X143738095Y-64359580D02*
X143690476Y-64407200D01*
X143690476Y-64407200D02*
X143595238Y-64454819D01*
X143595238Y-64454819D02*
X143309524Y-64454819D01*
X143309524Y-64454819D02*
X143214286Y-64407200D01*
X143214286Y-64407200D02*
X143166667Y-64359580D01*
X130583333Y-90359580D02*
X130535714Y-90407200D01*
X130535714Y-90407200D02*
X130392857Y-90454819D01*
X130392857Y-90454819D02*
X130297619Y-90454819D01*
X130297619Y-90454819D02*
X130154762Y-90407200D01*
X130154762Y-90407200D02*
X130059524Y-90311961D01*
X130059524Y-90311961D02*
X130011905Y-90216723D01*
X130011905Y-90216723D02*
X129964286Y-90026247D01*
X129964286Y-90026247D02*
X129964286Y-89883390D01*
X129964286Y-89883390D02*
X130011905Y-89692914D01*
X130011905Y-89692914D02*
X130059524Y-89597676D01*
X130059524Y-89597676D02*
X130154762Y-89502438D01*
X130154762Y-89502438D02*
X130297619Y-89454819D01*
X130297619Y-89454819D02*
X130392857Y-89454819D01*
X130392857Y-89454819D02*
X130535714Y-89502438D01*
X130535714Y-89502438D02*
X130583333Y-89550057D01*
X130964286Y-89550057D02*
X131011905Y-89502438D01*
X131011905Y-89502438D02*
X131107143Y-89454819D01*
X131107143Y-89454819D02*
X131345238Y-89454819D01*
X131345238Y-89454819D02*
X131440476Y-89502438D01*
X131440476Y-89502438D02*
X131488095Y-89550057D01*
X131488095Y-89550057D02*
X131535714Y-89645295D01*
X131535714Y-89645295D02*
X131535714Y-89740533D01*
X131535714Y-89740533D02*
X131488095Y-89883390D01*
X131488095Y-89883390D02*
X130916667Y-90454819D01*
X130916667Y-90454819D02*
X131535714Y-90454819D01*
X119083333Y-80859580D02*
X119035714Y-80907200D01*
X119035714Y-80907200D02*
X118892857Y-80954819D01*
X118892857Y-80954819D02*
X118797619Y-80954819D01*
X118797619Y-80954819D02*
X118654762Y-80907200D01*
X118654762Y-80907200D02*
X118559524Y-80811961D01*
X118559524Y-80811961D02*
X118511905Y-80716723D01*
X118511905Y-80716723D02*
X118464286Y-80526247D01*
X118464286Y-80526247D02*
X118464286Y-80383390D01*
X118464286Y-80383390D02*
X118511905Y-80192914D01*
X118511905Y-80192914D02*
X118559524Y-80097676D01*
X118559524Y-80097676D02*
X118654762Y-80002438D01*
X118654762Y-80002438D02*
X118797619Y-79954819D01*
X118797619Y-79954819D02*
X118892857Y-79954819D01*
X118892857Y-79954819D02*
X119035714Y-80002438D01*
X119035714Y-80002438D02*
X119083333Y-80050057D01*
X120035714Y-80954819D02*
X119464286Y-80954819D01*
X119750000Y-80954819D02*
X119750000Y-79954819D01*
X119750000Y-79954819D02*
X119654762Y-80097676D01*
X119654762Y-80097676D02*
X119559524Y-80192914D01*
X119559524Y-80192914D02*
X119464286Y-80240533D01*
D11*
%TO.C,INPUT*%
X111100000Y-78180000D02*
X111100000Y-72360000D01*
X110100000Y-78180000D02*
X110100000Y-72360000D01*
X106999000Y-78180000D02*
X106999000Y-72360000D01*
X105280000Y-78180000D02*
X105280000Y-72360000D01*
X112020000Y-78180000D02*
X112020000Y-72360000D01*
X105280000Y-78180000D02*
X112020000Y-78180000D01*
X105280000Y-72360000D02*
X112020000Y-72360000D01*
X111220000Y-78420000D02*
X112260000Y-78420000D01*
X112260000Y-78420000D02*
X112260000Y-77620000D01*
%TO.C,R3*%
X116420000Y-75130000D02*
X122960000Y-75130000D01*
X116420000Y-75460000D02*
X116420000Y-75130000D01*
X116420000Y-77540000D02*
X116420000Y-77870000D01*
X116420000Y-77870000D02*
X122960000Y-77870000D01*
X122960000Y-75130000D02*
X122960000Y-75460000D01*
X122960000Y-77870000D02*
X122960000Y-77540000D01*
%TO.C,R2*%
X130420000Y-65130000D02*
X136960000Y-65130000D01*
X130420000Y-65460000D02*
X130420000Y-65130000D01*
X130420000Y-67540000D02*
X130420000Y-67870000D01*
X130420000Y-67870000D02*
X136960000Y-67870000D01*
X136960000Y-65130000D02*
X136960000Y-65460000D01*
X136960000Y-67870000D02*
X136960000Y-67540000D01*
%TO.C,R1*%
X134080000Y-82870000D02*
X127540000Y-82870000D01*
X134080000Y-82540000D02*
X134080000Y-82870000D01*
X134080000Y-80460000D02*
X134080000Y-80130000D01*
X134080000Y-80130000D02*
X127540000Y-80130000D01*
X127540000Y-82870000D02*
X127540000Y-82540000D01*
X127540000Y-80130000D02*
X127540000Y-80460000D01*
%TO.C,Q1*%
X136994499Y-71785552D02*
X136082331Y-72697719D01*
X137984448Y-72775501D02*
X136994499Y-71785552D01*
X137072281Y-73687669D02*
X137984448Y-72775501D01*
X137072281Y-73687669D02*
G75*
G02*
X136082544Y-72697850I-2572281J-1582331D01*
G01*
%TO.C,L1*%
X115880000Y-70000000D02*
X117150000Y-70000000D01*
X117150000Y-68780000D02*
X117150000Y-71220000D01*
X117150000Y-71220000D02*
X122690000Y-71220000D01*
X122690000Y-68780000D02*
X117150000Y-68780000D01*
X122690000Y-71220000D02*
X122690000Y-68780000D01*
X123960000Y-70000000D02*
X122690000Y-70000000D01*
%TO.C,OUTPUT*%
X142400000Y-72360000D02*
X142400000Y-78180000D01*
X143400000Y-72360000D02*
X143400000Y-78180000D01*
X146501000Y-72360000D02*
X146501000Y-78180000D01*
X148220000Y-72360000D02*
X148220000Y-78180000D01*
X141480000Y-72360000D02*
X141480000Y-78180000D01*
X148220000Y-72360000D02*
X141480000Y-72360000D01*
X148220000Y-78180000D02*
X141480000Y-78180000D01*
X142280000Y-72120000D02*
X141240000Y-72120000D01*
X141240000Y-72120000D02*
X141240000Y-72920000D01*
%TO.C,C3*%
X145620000Y-65130000D02*
X145620000Y-67870000D01*
X140380000Y-67870000D02*
X145620000Y-67870000D01*
X140380000Y-65130000D02*
X145620000Y-65130000D01*
X140380000Y-65130000D02*
X140380000Y-67870000D01*
%TO.C,C2*%
X133370000Y-88870000D02*
X133370000Y-86130000D01*
X133370000Y-88870000D02*
X128130000Y-88870000D01*
X133370000Y-86130000D02*
X128130000Y-86130000D01*
X128130000Y-88870000D02*
X128130000Y-86130000D01*
%TO.C,C1*%
X116630000Y-81630000D02*
X116630000Y-84370000D01*
X116630000Y-81630000D02*
X121870000Y-81630000D01*
X116630000Y-84370000D02*
X121870000Y-84370000D01*
X121870000Y-81630000D02*
X121870000Y-84370000D01*
%TD*%
D12*
X108500000Y-76540000D03*
X108500000Y-74000000D03*
X115880000Y-76500000D03*
X123500000Y-76500000D03*
X129880000Y-66500000D03*
X137500000Y-66500000D03*
X134620000Y-81500000D03*
X127000000Y-81500000D03*
X134500000Y-74000000D03*
X133230000Y-75270000D03*
X134500000Y-76540000D03*
X114840000Y-70000000D03*
X125000000Y-70000000D03*
X145000000Y-74000000D03*
X145000000Y-76540000D03*
X144250000Y-66500000D03*
X141750000Y-66500000D03*
X132000000Y-87500000D03*
X129500000Y-87500000D03*
X118000000Y-83000000D03*
X120500000Y-83000000D03*
M02*
