%TF.GenerationSoftware,KiCad,Pcbnew,8.0.8*%
%TF.CreationDate,2025-01-31T21:35:14+01:00*%
%TF.ProjectId,BufferCorrente,42756666-6572-4436-9f72-72656e74652e,rev?*%
%TF.SameCoordinates,Original*%
%TF.FileFunction,Legend,Top*%
%TF.FilePolarity,Positive*%
%FSLAX46Y46*%
G04 Gerber Fmt 4.6, Leading zero omitted, Abs format (unit mm)*
G04 Created by KiCad (PCBNEW 8.0.8) date 2025-01-31 21:35:14*
%MOMM*%
%LPD*%
G01*
G04 APERTURE LIST*
%ADD10C,0.150000*%
%ADD11C,0.120000*%
%ADD12C,0.350000*%
G04 APERTURE END LIST*
D10*
X130304819Y-113971904D02*
X131114342Y-113971904D01*
X131114342Y-113971904D02*
X131209580Y-113924285D01*
X131209580Y-113924285D02*
X131257200Y-113876666D01*
X131257200Y-113876666D02*
X131304819Y-113781428D01*
X131304819Y-113781428D02*
X131304819Y-113590952D01*
X131304819Y-113590952D02*
X131257200Y-113495714D01*
X131257200Y-113495714D02*
X131209580Y-113448095D01*
X131209580Y-113448095D02*
X131114342Y-113400476D01*
X131114342Y-113400476D02*
X130304819Y-113400476D01*
X131304819Y-112400476D02*
X131304819Y-112971904D01*
X131304819Y-112686190D02*
X130304819Y-112686190D01*
X130304819Y-112686190D02*
X130447676Y-112781428D01*
X130447676Y-112781428D02*
X130542914Y-112876666D01*
X130542914Y-112876666D02*
X130590533Y-112971904D01*
X155624819Y-104442857D02*
X155148628Y-104776190D01*
X155624819Y-105014285D02*
X154624819Y-105014285D01*
X154624819Y-105014285D02*
X154624819Y-104633333D01*
X154624819Y-104633333D02*
X154672438Y-104538095D01*
X154672438Y-104538095D02*
X154720057Y-104490476D01*
X154720057Y-104490476D02*
X154815295Y-104442857D01*
X154815295Y-104442857D02*
X154958152Y-104442857D01*
X154958152Y-104442857D02*
X155053390Y-104490476D01*
X155053390Y-104490476D02*
X155101009Y-104538095D01*
X155101009Y-104538095D02*
X155148628Y-104633333D01*
X155148628Y-104633333D02*
X155148628Y-105014285D01*
X155624819Y-103490476D02*
X155624819Y-104061904D01*
X155624819Y-103776190D02*
X154624819Y-103776190D01*
X154624819Y-103776190D02*
X154767676Y-103871428D01*
X154767676Y-103871428D02*
X154862914Y-103966666D01*
X154862914Y-103966666D02*
X154910533Y-104061904D01*
X155624819Y-102538095D02*
X155624819Y-103109523D01*
X155624819Y-102823809D02*
X154624819Y-102823809D01*
X154624819Y-102823809D02*
X154767676Y-102919047D01*
X154767676Y-102919047D02*
X154862914Y-103014285D01*
X154862914Y-103014285D02*
X154910533Y-103109523D01*
X162424819Y-104442857D02*
X161948628Y-104776190D01*
X162424819Y-105014285D02*
X161424819Y-105014285D01*
X161424819Y-105014285D02*
X161424819Y-104633333D01*
X161424819Y-104633333D02*
X161472438Y-104538095D01*
X161472438Y-104538095D02*
X161520057Y-104490476D01*
X161520057Y-104490476D02*
X161615295Y-104442857D01*
X161615295Y-104442857D02*
X161758152Y-104442857D01*
X161758152Y-104442857D02*
X161853390Y-104490476D01*
X161853390Y-104490476D02*
X161901009Y-104538095D01*
X161901009Y-104538095D02*
X161948628Y-104633333D01*
X161948628Y-104633333D02*
X161948628Y-105014285D01*
X162424819Y-103490476D02*
X162424819Y-104061904D01*
X162424819Y-103776190D02*
X161424819Y-103776190D01*
X161424819Y-103776190D02*
X161567676Y-103871428D01*
X161567676Y-103871428D02*
X161662914Y-103966666D01*
X161662914Y-103966666D02*
X161710533Y-104061904D01*
X161424819Y-102871428D02*
X161424819Y-102776190D01*
X161424819Y-102776190D02*
X161472438Y-102680952D01*
X161472438Y-102680952D02*
X161520057Y-102633333D01*
X161520057Y-102633333D02*
X161615295Y-102585714D01*
X161615295Y-102585714D02*
X161805771Y-102538095D01*
X161805771Y-102538095D02*
X162043866Y-102538095D01*
X162043866Y-102538095D02*
X162234342Y-102585714D01*
X162234342Y-102585714D02*
X162329580Y-102633333D01*
X162329580Y-102633333D02*
X162377200Y-102680952D01*
X162377200Y-102680952D02*
X162424819Y-102776190D01*
X162424819Y-102776190D02*
X162424819Y-102871428D01*
X162424819Y-102871428D02*
X162377200Y-102966666D01*
X162377200Y-102966666D02*
X162329580Y-103014285D01*
X162329580Y-103014285D02*
X162234342Y-103061904D01*
X162234342Y-103061904D02*
X162043866Y-103109523D01*
X162043866Y-103109523D02*
X161805771Y-103109523D01*
X161805771Y-103109523D02*
X161615295Y-103061904D01*
X161615295Y-103061904D02*
X161520057Y-103014285D01*
X161520057Y-103014285D02*
X161472438Y-102966666D01*
X161472438Y-102966666D02*
X161424819Y-102871428D01*
X147233333Y-100254819D02*
X146900000Y-99778628D01*
X146661905Y-100254819D02*
X146661905Y-99254819D01*
X146661905Y-99254819D02*
X147042857Y-99254819D01*
X147042857Y-99254819D02*
X147138095Y-99302438D01*
X147138095Y-99302438D02*
X147185714Y-99350057D01*
X147185714Y-99350057D02*
X147233333Y-99445295D01*
X147233333Y-99445295D02*
X147233333Y-99588152D01*
X147233333Y-99588152D02*
X147185714Y-99683390D01*
X147185714Y-99683390D02*
X147138095Y-99731009D01*
X147138095Y-99731009D02*
X147042857Y-99778628D01*
X147042857Y-99778628D02*
X146661905Y-99778628D01*
X147709524Y-100254819D02*
X147900000Y-100254819D01*
X147900000Y-100254819D02*
X147995238Y-100207200D01*
X147995238Y-100207200D02*
X148042857Y-100159580D01*
X148042857Y-100159580D02*
X148138095Y-100016723D01*
X148138095Y-100016723D02*
X148185714Y-99826247D01*
X148185714Y-99826247D02*
X148185714Y-99445295D01*
X148185714Y-99445295D02*
X148138095Y-99350057D01*
X148138095Y-99350057D02*
X148090476Y-99302438D01*
X148090476Y-99302438D02*
X147995238Y-99254819D01*
X147995238Y-99254819D02*
X147804762Y-99254819D01*
X147804762Y-99254819D02*
X147709524Y-99302438D01*
X147709524Y-99302438D02*
X147661905Y-99350057D01*
X147661905Y-99350057D02*
X147614286Y-99445295D01*
X147614286Y-99445295D02*
X147614286Y-99683390D01*
X147614286Y-99683390D02*
X147661905Y-99778628D01*
X147661905Y-99778628D02*
X147709524Y-99826247D01*
X147709524Y-99826247D02*
X147804762Y-99873866D01*
X147804762Y-99873866D02*
X147995238Y-99873866D01*
X147995238Y-99873866D02*
X148090476Y-99826247D01*
X148090476Y-99826247D02*
X148138095Y-99778628D01*
X148138095Y-99778628D02*
X148185714Y-99683390D01*
X139233333Y-100054819D02*
X138900000Y-99578628D01*
X138661905Y-100054819D02*
X138661905Y-99054819D01*
X138661905Y-99054819D02*
X139042857Y-99054819D01*
X139042857Y-99054819D02*
X139138095Y-99102438D01*
X139138095Y-99102438D02*
X139185714Y-99150057D01*
X139185714Y-99150057D02*
X139233333Y-99245295D01*
X139233333Y-99245295D02*
X139233333Y-99388152D01*
X139233333Y-99388152D02*
X139185714Y-99483390D01*
X139185714Y-99483390D02*
X139138095Y-99531009D01*
X139138095Y-99531009D02*
X139042857Y-99578628D01*
X139042857Y-99578628D02*
X138661905Y-99578628D01*
X139804762Y-99483390D02*
X139709524Y-99435771D01*
X139709524Y-99435771D02*
X139661905Y-99388152D01*
X139661905Y-99388152D02*
X139614286Y-99292914D01*
X139614286Y-99292914D02*
X139614286Y-99245295D01*
X139614286Y-99245295D02*
X139661905Y-99150057D01*
X139661905Y-99150057D02*
X139709524Y-99102438D01*
X139709524Y-99102438D02*
X139804762Y-99054819D01*
X139804762Y-99054819D02*
X139995238Y-99054819D01*
X139995238Y-99054819D02*
X140090476Y-99102438D01*
X140090476Y-99102438D02*
X140138095Y-99150057D01*
X140138095Y-99150057D02*
X140185714Y-99245295D01*
X140185714Y-99245295D02*
X140185714Y-99292914D01*
X140185714Y-99292914D02*
X140138095Y-99388152D01*
X140138095Y-99388152D02*
X140090476Y-99435771D01*
X140090476Y-99435771D02*
X139995238Y-99483390D01*
X139995238Y-99483390D02*
X139804762Y-99483390D01*
X139804762Y-99483390D02*
X139709524Y-99531009D01*
X139709524Y-99531009D02*
X139661905Y-99578628D01*
X139661905Y-99578628D02*
X139614286Y-99673866D01*
X139614286Y-99673866D02*
X139614286Y-99864342D01*
X139614286Y-99864342D02*
X139661905Y-99959580D01*
X139661905Y-99959580D02*
X139709524Y-100007200D01*
X139709524Y-100007200D02*
X139804762Y-100054819D01*
X139804762Y-100054819D02*
X139995238Y-100054819D01*
X139995238Y-100054819D02*
X140090476Y-100007200D01*
X140090476Y-100007200D02*
X140138095Y-99959580D01*
X140138095Y-99959580D02*
X140185714Y-99864342D01*
X140185714Y-99864342D02*
X140185714Y-99673866D01*
X140185714Y-99673866D02*
X140138095Y-99578628D01*
X140138095Y-99578628D02*
X140090476Y-99531009D01*
X140090476Y-99531009D02*
X139995238Y-99483390D01*
X158170833Y-85354819D02*
X157837500Y-84878628D01*
X157599405Y-85354819D02*
X157599405Y-84354819D01*
X157599405Y-84354819D02*
X157980357Y-84354819D01*
X157980357Y-84354819D02*
X158075595Y-84402438D01*
X158075595Y-84402438D02*
X158123214Y-84450057D01*
X158123214Y-84450057D02*
X158170833Y-84545295D01*
X158170833Y-84545295D02*
X158170833Y-84688152D01*
X158170833Y-84688152D02*
X158123214Y-84783390D01*
X158123214Y-84783390D02*
X158075595Y-84831009D01*
X158075595Y-84831009D02*
X157980357Y-84878628D01*
X157980357Y-84878628D02*
X157599405Y-84878628D01*
X158504167Y-84354819D02*
X159170833Y-84354819D01*
X159170833Y-84354819D02*
X158742262Y-85354819D01*
X153170833Y-85354819D02*
X152837500Y-84878628D01*
X152599405Y-85354819D02*
X152599405Y-84354819D01*
X152599405Y-84354819D02*
X152980357Y-84354819D01*
X152980357Y-84354819D02*
X153075595Y-84402438D01*
X153075595Y-84402438D02*
X153123214Y-84450057D01*
X153123214Y-84450057D02*
X153170833Y-84545295D01*
X153170833Y-84545295D02*
X153170833Y-84688152D01*
X153170833Y-84688152D02*
X153123214Y-84783390D01*
X153123214Y-84783390D02*
X153075595Y-84831009D01*
X153075595Y-84831009D02*
X152980357Y-84878628D01*
X152980357Y-84878628D02*
X152599405Y-84878628D01*
X154027976Y-84354819D02*
X153837500Y-84354819D01*
X153837500Y-84354819D02*
X153742262Y-84402438D01*
X153742262Y-84402438D02*
X153694643Y-84450057D01*
X153694643Y-84450057D02*
X153599405Y-84592914D01*
X153599405Y-84592914D02*
X153551786Y-84783390D01*
X153551786Y-84783390D02*
X153551786Y-85164342D01*
X153551786Y-85164342D02*
X153599405Y-85259580D01*
X153599405Y-85259580D02*
X153647024Y-85307200D01*
X153647024Y-85307200D02*
X153742262Y-85354819D01*
X153742262Y-85354819D02*
X153932738Y-85354819D01*
X153932738Y-85354819D02*
X154027976Y-85307200D01*
X154027976Y-85307200D02*
X154075595Y-85259580D01*
X154075595Y-85259580D02*
X154123214Y-85164342D01*
X154123214Y-85164342D02*
X154123214Y-84926247D01*
X154123214Y-84926247D02*
X154075595Y-84831009D01*
X154075595Y-84831009D02*
X154027976Y-84783390D01*
X154027976Y-84783390D02*
X153932738Y-84735771D01*
X153932738Y-84735771D02*
X153742262Y-84735771D01*
X153742262Y-84735771D02*
X153647024Y-84783390D01*
X153647024Y-84783390D02*
X153599405Y-84831009D01*
X153599405Y-84831009D02*
X153551786Y-84926247D01*
X146033333Y-110454819D02*
X145700000Y-109978628D01*
X145461905Y-110454819D02*
X145461905Y-109454819D01*
X145461905Y-109454819D02*
X145842857Y-109454819D01*
X145842857Y-109454819D02*
X145938095Y-109502438D01*
X145938095Y-109502438D02*
X145985714Y-109550057D01*
X145985714Y-109550057D02*
X146033333Y-109645295D01*
X146033333Y-109645295D02*
X146033333Y-109788152D01*
X146033333Y-109788152D02*
X145985714Y-109883390D01*
X145985714Y-109883390D02*
X145938095Y-109931009D01*
X145938095Y-109931009D02*
X145842857Y-109978628D01*
X145842857Y-109978628D02*
X145461905Y-109978628D01*
X146938095Y-109454819D02*
X146461905Y-109454819D01*
X146461905Y-109454819D02*
X146414286Y-109931009D01*
X146414286Y-109931009D02*
X146461905Y-109883390D01*
X146461905Y-109883390D02*
X146557143Y-109835771D01*
X146557143Y-109835771D02*
X146795238Y-109835771D01*
X146795238Y-109835771D02*
X146890476Y-109883390D01*
X146890476Y-109883390D02*
X146938095Y-109931009D01*
X146938095Y-109931009D02*
X146985714Y-110026247D01*
X146985714Y-110026247D02*
X146985714Y-110264342D01*
X146985714Y-110264342D02*
X146938095Y-110359580D01*
X146938095Y-110359580D02*
X146890476Y-110407200D01*
X146890476Y-110407200D02*
X146795238Y-110454819D01*
X146795238Y-110454819D02*
X146557143Y-110454819D01*
X146557143Y-110454819D02*
X146461905Y-110407200D01*
X146461905Y-110407200D02*
X146414286Y-110359580D01*
X160033333Y-90837319D02*
X159700000Y-90361128D01*
X159461905Y-90837319D02*
X159461905Y-89837319D01*
X159461905Y-89837319D02*
X159842857Y-89837319D01*
X159842857Y-89837319D02*
X159938095Y-89884938D01*
X159938095Y-89884938D02*
X159985714Y-89932557D01*
X159985714Y-89932557D02*
X160033333Y-90027795D01*
X160033333Y-90027795D02*
X160033333Y-90170652D01*
X160033333Y-90170652D02*
X159985714Y-90265890D01*
X159985714Y-90265890D02*
X159938095Y-90313509D01*
X159938095Y-90313509D02*
X159842857Y-90361128D01*
X159842857Y-90361128D02*
X159461905Y-90361128D01*
X160890476Y-90170652D02*
X160890476Y-90837319D01*
X160652381Y-89789700D02*
X160414286Y-90503985D01*
X160414286Y-90503985D02*
X161033333Y-90503985D01*
X130933333Y-98164819D02*
X130600000Y-97688628D01*
X130361905Y-98164819D02*
X130361905Y-97164819D01*
X130361905Y-97164819D02*
X130742857Y-97164819D01*
X130742857Y-97164819D02*
X130838095Y-97212438D01*
X130838095Y-97212438D02*
X130885714Y-97260057D01*
X130885714Y-97260057D02*
X130933333Y-97355295D01*
X130933333Y-97355295D02*
X130933333Y-97498152D01*
X130933333Y-97498152D02*
X130885714Y-97593390D01*
X130885714Y-97593390D02*
X130838095Y-97641009D01*
X130838095Y-97641009D02*
X130742857Y-97688628D01*
X130742857Y-97688628D02*
X130361905Y-97688628D01*
X131314286Y-97260057D02*
X131361905Y-97212438D01*
X131361905Y-97212438D02*
X131457143Y-97164819D01*
X131457143Y-97164819D02*
X131695238Y-97164819D01*
X131695238Y-97164819D02*
X131790476Y-97212438D01*
X131790476Y-97212438D02*
X131838095Y-97260057D01*
X131838095Y-97260057D02*
X131885714Y-97355295D01*
X131885714Y-97355295D02*
X131885714Y-97450533D01*
X131885714Y-97450533D02*
X131838095Y-97593390D01*
X131838095Y-97593390D02*
X131266667Y-98164819D01*
X131266667Y-98164819D02*
X131885714Y-98164819D01*
X129083333Y-98109819D02*
X128750000Y-97633628D01*
X128511905Y-98109819D02*
X128511905Y-97109819D01*
X128511905Y-97109819D02*
X128892857Y-97109819D01*
X128892857Y-97109819D02*
X128988095Y-97157438D01*
X128988095Y-97157438D02*
X129035714Y-97205057D01*
X129035714Y-97205057D02*
X129083333Y-97300295D01*
X129083333Y-97300295D02*
X129083333Y-97443152D01*
X129083333Y-97443152D02*
X129035714Y-97538390D01*
X129035714Y-97538390D02*
X128988095Y-97586009D01*
X128988095Y-97586009D02*
X128892857Y-97633628D01*
X128892857Y-97633628D02*
X128511905Y-97633628D01*
X130035714Y-98109819D02*
X129464286Y-98109819D01*
X129750000Y-98109819D02*
X129750000Y-97109819D01*
X129750000Y-97109819D02*
X129654762Y-97252676D01*
X129654762Y-97252676D02*
X129559524Y-97347914D01*
X129559524Y-97347914D02*
X129464286Y-97395533D01*
X186630057Y-106575238D02*
X186582438Y-106670476D01*
X186582438Y-106670476D02*
X186487200Y-106765714D01*
X186487200Y-106765714D02*
X186344342Y-106908571D01*
X186344342Y-106908571D02*
X186296723Y-107003809D01*
X186296723Y-107003809D02*
X186296723Y-107099047D01*
X186534819Y-107051428D02*
X186487200Y-107146666D01*
X186487200Y-107146666D02*
X186391961Y-107241904D01*
X186391961Y-107241904D02*
X186201485Y-107289523D01*
X186201485Y-107289523D02*
X185868152Y-107289523D01*
X185868152Y-107289523D02*
X185677676Y-107241904D01*
X185677676Y-107241904D02*
X185582438Y-107146666D01*
X185582438Y-107146666D02*
X185534819Y-107051428D01*
X185534819Y-107051428D02*
X185534819Y-106860952D01*
X185534819Y-106860952D02*
X185582438Y-106765714D01*
X185582438Y-106765714D02*
X185677676Y-106670476D01*
X185677676Y-106670476D02*
X185868152Y-106622857D01*
X185868152Y-106622857D02*
X186201485Y-106622857D01*
X186201485Y-106622857D02*
X186391961Y-106670476D01*
X186391961Y-106670476D02*
X186487200Y-106765714D01*
X186487200Y-106765714D02*
X186534819Y-106860952D01*
X186534819Y-106860952D02*
X186534819Y-107051428D01*
X185534819Y-106289523D02*
X185534819Y-105670476D01*
X185534819Y-105670476D02*
X185915771Y-106003809D01*
X185915771Y-106003809D02*
X185915771Y-105860952D01*
X185915771Y-105860952D02*
X185963390Y-105765714D01*
X185963390Y-105765714D02*
X186011009Y-105718095D01*
X186011009Y-105718095D02*
X186106247Y-105670476D01*
X186106247Y-105670476D02*
X186344342Y-105670476D01*
X186344342Y-105670476D02*
X186439580Y-105718095D01*
X186439580Y-105718095D02*
X186487200Y-105765714D01*
X186487200Y-105765714D02*
X186534819Y-105860952D01*
X186534819Y-105860952D02*
X186534819Y-106146666D01*
X186534819Y-106146666D02*
X186487200Y-106241904D01*
X186487200Y-106241904D02*
X186439580Y-106289523D01*
X169870057Y-106175238D02*
X169822438Y-106270476D01*
X169822438Y-106270476D02*
X169727200Y-106365714D01*
X169727200Y-106365714D02*
X169584342Y-106508571D01*
X169584342Y-106508571D02*
X169536723Y-106603809D01*
X169536723Y-106603809D02*
X169536723Y-106699047D01*
X169774819Y-106651428D02*
X169727200Y-106746666D01*
X169727200Y-106746666D02*
X169631961Y-106841904D01*
X169631961Y-106841904D02*
X169441485Y-106889523D01*
X169441485Y-106889523D02*
X169108152Y-106889523D01*
X169108152Y-106889523D02*
X168917676Y-106841904D01*
X168917676Y-106841904D02*
X168822438Y-106746666D01*
X168822438Y-106746666D02*
X168774819Y-106651428D01*
X168774819Y-106651428D02*
X168774819Y-106460952D01*
X168774819Y-106460952D02*
X168822438Y-106365714D01*
X168822438Y-106365714D02*
X168917676Y-106270476D01*
X168917676Y-106270476D02*
X169108152Y-106222857D01*
X169108152Y-106222857D02*
X169441485Y-106222857D01*
X169441485Y-106222857D02*
X169631961Y-106270476D01*
X169631961Y-106270476D02*
X169727200Y-106365714D01*
X169727200Y-106365714D02*
X169774819Y-106460952D01*
X169774819Y-106460952D02*
X169774819Y-106651428D01*
X168870057Y-105841904D02*
X168822438Y-105794285D01*
X168822438Y-105794285D02*
X168774819Y-105699047D01*
X168774819Y-105699047D02*
X168774819Y-105460952D01*
X168774819Y-105460952D02*
X168822438Y-105365714D01*
X168822438Y-105365714D02*
X168870057Y-105318095D01*
X168870057Y-105318095D02*
X168965295Y-105270476D01*
X168965295Y-105270476D02*
X169060533Y-105270476D01*
X169060533Y-105270476D02*
X169203390Y-105318095D01*
X169203390Y-105318095D02*
X169774819Y-105889523D01*
X169774819Y-105889523D02*
X169774819Y-105270476D01*
X169870057Y-91415238D02*
X169822438Y-91510476D01*
X169822438Y-91510476D02*
X169727200Y-91605714D01*
X169727200Y-91605714D02*
X169584342Y-91748571D01*
X169584342Y-91748571D02*
X169536723Y-91843809D01*
X169536723Y-91843809D02*
X169536723Y-91939047D01*
X169774819Y-91891428D02*
X169727200Y-91986666D01*
X169727200Y-91986666D02*
X169631961Y-92081904D01*
X169631961Y-92081904D02*
X169441485Y-92129523D01*
X169441485Y-92129523D02*
X169108152Y-92129523D01*
X169108152Y-92129523D02*
X168917676Y-92081904D01*
X168917676Y-92081904D02*
X168822438Y-91986666D01*
X168822438Y-91986666D02*
X168774819Y-91891428D01*
X168774819Y-91891428D02*
X168774819Y-91700952D01*
X168774819Y-91700952D02*
X168822438Y-91605714D01*
X168822438Y-91605714D02*
X168917676Y-91510476D01*
X168917676Y-91510476D02*
X169108152Y-91462857D01*
X169108152Y-91462857D02*
X169441485Y-91462857D01*
X169441485Y-91462857D02*
X169631961Y-91510476D01*
X169631961Y-91510476D02*
X169727200Y-91605714D01*
X169727200Y-91605714D02*
X169774819Y-91700952D01*
X169774819Y-91700952D02*
X169774819Y-91891428D01*
X169774819Y-90510476D02*
X169774819Y-91081904D01*
X169774819Y-90796190D02*
X168774819Y-90796190D01*
X168774819Y-90796190D02*
X168917676Y-90891428D01*
X168917676Y-90891428D02*
X169012914Y-90986666D01*
X169012914Y-90986666D02*
X169060533Y-91081904D01*
X119434819Y-92636190D02*
X118434819Y-92636190D01*
X118434819Y-92636190D02*
X118434819Y-92255238D01*
X118434819Y-92255238D02*
X118482438Y-92160000D01*
X118482438Y-92160000D02*
X118530057Y-92112381D01*
X118530057Y-92112381D02*
X118625295Y-92064762D01*
X118625295Y-92064762D02*
X118768152Y-92064762D01*
X118768152Y-92064762D02*
X118863390Y-92112381D01*
X118863390Y-92112381D02*
X118911009Y-92160000D01*
X118911009Y-92160000D02*
X118958628Y-92255238D01*
X118958628Y-92255238D02*
X118958628Y-92636190D01*
X119434819Y-91493333D02*
X119387200Y-91588571D01*
X119387200Y-91588571D02*
X119339580Y-91636190D01*
X119339580Y-91636190D02*
X119244342Y-91683809D01*
X119244342Y-91683809D02*
X118958628Y-91683809D01*
X118958628Y-91683809D02*
X118863390Y-91636190D01*
X118863390Y-91636190D02*
X118815771Y-91588571D01*
X118815771Y-91588571D02*
X118768152Y-91493333D01*
X118768152Y-91493333D02*
X118768152Y-91350476D01*
X118768152Y-91350476D02*
X118815771Y-91255238D01*
X118815771Y-91255238D02*
X118863390Y-91207619D01*
X118863390Y-91207619D02*
X118958628Y-91160000D01*
X118958628Y-91160000D02*
X119244342Y-91160000D01*
X119244342Y-91160000D02*
X119339580Y-91207619D01*
X119339580Y-91207619D02*
X119387200Y-91255238D01*
X119387200Y-91255238D02*
X119434819Y-91350476D01*
X119434819Y-91350476D02*
X119434819Y-91493333D01*
X118768152Y-90826666D02*
X119434819Y-90636190D01*
X119434819Y-90636190D02*
X118958628Y-90445714D01*
X118958628Y-90445714D02*
X119434819Y-90255238D01*
X119434819Y-90255238D02*
X118768152Y-90064762D01*
X119387200Y-89302857D02*
X119434819Y-89398095D01*
X119434819Y-89398095D02*
X119434819Y-89588571D01*
X119434819Y-89588571D02*
X119387200Y-89683809D01*
X119387200Y-89683809D02*
X119291961Y-89731428D01*
X119291961Y-89731428D02*
X118911009Y-89731428D01*
X118911009Y-89731428D02*
X118815771Y-89683809D01*
X118815771Y-89683809D02*
X118768152Y-89588571D01*
X118768152Y-89588571D02*
X118768152Y-89398095D01*
X118768152Y-89398095D02*
X118815771Y-89302857D01*
X118815771Y-89302857D02*
X118911009Y-89255238D01*
X118911009Y-89255238D02*
X119006247Y-89255238D01*
X119006247Y-89255238D02*
X119101485Y-89731428D01*
X119434819Y-88826666D02*
X118768152Y-88826666D01*
X118958628Y-88826666D02*
X118863390Y-88779047D01*
X118863390Y-88779047D02*
X118815771Y-88731428D01*
X118815771Y-88731428D02*
X118768152Y-88636190D01*
X118768152Y-88636190D02*
X118768152Y-88540952D01*
X184634819Y-92069999D02*
X184634819Y-91879523D01*
X184634819Y-91879523D02*
X184682438Y-91784285D01*
X184682438Y-91784285D02*
X184777676Y-91689047D01*
X184777676Y-91689047D02*
X184968152Y-91641428D01*
X184968152Y-91641428D02*
X185301485Y-91641428D01*
X185301485Y-91641428D02*
X185491961Y-91689047D01*
X185491961Y-91689047D02*
X185587200Y-91784285D01*
X185587200Y-91784285D02*
X185634819Y-91879523D01*
X185634819Y-91879523D02*
X185634819Y-92069999D01*
X185634819Y-92069999D02*
X185587200Y-92165237D01*
X185587200Y-92165237D02*
X185491961Y-92260475D01*
X185491961Y-92260475D02*
X185301485Y-92308094D01*
X185301485Y-92308094D02*
X184968152Y-92308094D01*
X184968152Y-92308094D02*
X184777676Y-92260475D01*
X184777676Y-92260475D02*
X184682438Y-92165237D01*
X184682438Y-92165237D02*
X184634819Y-92069999D01*
X184634819Y-91212856D02*
X185444342Y-91212856D01*
X185444342Y-91212856D02*
X185539580Y-91165237D01*
X185539580Y-91165237D02*
X185587200Y-91117618D01*
X185587200Y-91117618D02*
X185634819Y-91022380D01*
X185634819Y-91022380D02*
X185634819Y-90831904D01*
X185634819Y-90831904D02*
X185587200Y-90736666D01*
X185587200Y-90736666D02*
X185539580Y-90689047D01*
X185539580Y-90689047D02*
X185444342Y-90641428D01*
X185444342Y-90641428D02*
X184634819Y-90641428D01*
X184634819Y-90308094D02*
X184634819Y-89736666D01*
X185634819Y-90022380D02*
X184634819Y-90022380D01*
X119387200Y-100813808D02*
X119434819Y-100670951D01*
X119434819Y-100670951D02*
X119434819Y-100432856D01*
X119434819Y-100432856D02*
X119387200Y-100337618D01*
X119387200Y-100337618D02*
X119339580Y-100289999D01*
X119339580Y-100289999D02*
X119244342Y-100242380D01*
X119244342Y-100242380D02*
X119149104Y-100242380D01*
X119149104Y-100242380D02*
X119053866Y-100289999D01*
X119053866Y-100289999D02*
X119006247Y-100337618D01*
X119006247Y-100337618D02*
X118958628Y-100432856D01*
X118958628Y-100432856D02*
X118911009Y-100623332D01*
X118911009Y-100623332D02*
X118863390Y-100718570D01*
X118863390Y-100718570D02*
X118815771Y-100766189D01*
X118815771Y-100766189D02*
X118720533Y-100813808D01*
X118720533Y-100813808D02*
X118625295Y-100813808D01*
X118625295Y-100813808D02*
X118530057Y-100766189D01*
X118530057Y-100766189D02*
X118482438Y-100718570D01*
X118482438Y-100718570D02*
X118434819Y-100623332D01*
X118434819Y-100623332D02*
X118434819Y-100385237D01*
X118434819Y-100385237D02*
X118482438Y-100242380D01*
X119434819Y-99813808D02*
X118434819Y-99813808D01*
X118482438Y-98813809D02*
X118434819Y-98909047D01*
X118434819Y-98909047D02*
X118434819Y-99051904D01*
X118434819Y-99051904D02*
X118482438Y-99194761D01*
X118482438Y-99194761D02*
X118577676Y-99289999D01*
X118577676Y-99289999D02*
X118672914Y-99337618D01*
X118672914Y-99337618D02*
X118863390Y-99385237D01*
X118863390Y-99385237D02*
X119006247Y-99385237D01*
X119006247Y-99385237D02*
X119196723Y-99337618D01*
X119196723Y-99337618D02*
X119291961Y-99289999D01*
X119291961Y-99289999D02*
X119387200Y-99194761D01*
X119387200Y-99194761D02*
X119434819Y-99051904D01*
X119434819Y-99051904D02*
X119434819Y-98956666D01*
X119434819Y-98956666D02*
X119387200Y-98813809D01*
X119387200Y-98813809D02*
X119339580Y-98766190D01*
X119339580Y-98766190D02*
X119006247Y-98766190D01*
X119006247Y-98766190D02*
X119006247Y-98956666D01*
X188390476Y-114254819D02*
X188390476Y-113254819D01*
X188390476Y-113254819D02*
X188723809Y-113969104D01*
X188723809Y-113969104D02*
X189057142Y-113254819D01*
X189057142Y-113254819D02*
X189057142Y-114254819D01*
X189438095Y-113254819D02*
X190057142Y-113254819D01*
X190057142Y-113254819D02*
X189723809Y-113635771D01*
X189723809Y-113635771D02*
X189866666Y-113635771D01*
X189866666Y-113635771D02*
X189961904Y-113683390D01*
X189961904Y-113683390D02*
X190009523Y-113731009D01*
X190009523Y-113731009D02*
X190057142Y-113826247D01*
X190057142Y-113826247D02*
X190057142Y-114064342D01*
X190057142Y-114064342D02*
X190009523Y-114159580D01*
X190009523Y-114159580D02*
X189961904Y-114207200D01*
X189961904Y-114207200D02*
X189866666Y-114254819D01*
X189866666Y-114254819D02*
X189580952Y-114254819D01*
X189580952Y-114254819D02*
X189485714Y-114207200D01*
X189485714Y-114207200D02*
X189438095Y-114159580D01*
X183493420Y-78551875D02*
X183493420Y-77551875D01*
X183493420Y-77551875D02*
X183826753Y-78266160D01*
X183826753Y-78266160D02*
X184160086Y-77551875D01*
X184160086Y-77551875D02*
X184160086Y-78551875D01*
X184541039Y-77551875D02*
X185160086Y-77551875D01*
X185160086Y-77551875D02*
X184826753Y-77932827D01*
X184826753Y-77932827D02*
X184969610Y-77932827D01*
X184969610Y-77932827D02*
X185064848Y-77980446D01*
X185064848Y-77980446D02*
X185112467Y-78028065D01*
X185112467Y-78028065D02*
X185160086Y-78123303D01*
X185160086Y-78123303D02*
X185160086Y-78361398D01*
X185160086Y-78361398D02*
X185112467Y-78456636D01*
X185112467Y-78456636D02*
X185064848Y-78504256D01*
X185064848Y-78504256D02*
X184969610Y-78551875D01*
X184969610Y-78551875D02*
X184683896Y-78551875D01*
X184683896Y-78551875D02*
X184588658Y-78504256D01*
X184588658Y-78504256D02*
X184541039Y-78456636D01*
X121990476Y-113654819D02*
X121990476Y-112654819D01*
X121990476Y-112654819D02*
X122323809Y-113369104D01*
X122323809Y-113369104D02*
X122657142Y-112654819D01*
X122657142Y-112654819D02*
X122657142Y-113654819D01*
X123038095Y-112654819D02*
X123657142Y-112654819D01*
X123657142Y-112654819D02*
X123323809Y-113035771D01*
X123323809Y-113035771D02*
X123466666Y-113035771D01*
X123466666Y-113035771D02*
X123561904Y-113083390D01*
X123561904Y-113083390D02*
X123609523Y-113131009D01*
X123609523Y-113131009D02*
X123657142Y-113226247D01*
X123657142Y-113226247D02*
X123657142Y-113464342D01*
X123657142Y-113464342D02*
X123609523Y-113559580D01*
X123609523Y-113559580D02*
X123561904Y-113607200D01*
X123561904Y-113607200D02*
X123466666Y-113654819D01*
X123466666Y-113654819D02*
X123180952Y-113654819D01*
X123180952Y-113654819D02*
X123085714Y-113607200D01*
X123085714Y-113607200D02*
X123038095Y-113559580D01*
X121790476Y-77551875D02*
X121790476Y-76551875D01*
X121790476Y-76551875D02*
X122123809Y-77266160D01*
X122123809Y-77266160D02*
X122457142Y-76551875D01*
X122457142Y-76551875D02*
X122457142Y-77551875D01*
X122838095Y-76551875D02*
X123457142Y-76551875D01*
X123457142Y-76551875D02*
X123123809Y-76932827D01*
X123123809Y-76932827D02*
X123266666Y-76932827D01*
X123266666Y-76932827D02*
X123361904Y-76980446D01*
X123361904Y-76980446D02*
X123409523Y-77028065D01*
X123409523Y-77028065D02*
X123457142Y-77123303D01*
X123457142Y-77123303D02*
X123457142Y-77361398D01*
X123457142Y-77361398D02*
X123409523Y-77456636D01*
X123409523Y-77456636D02*
X123361904Y-77504256D01*
X123361904Y-77504256D02*
X123266666Y-77551875D01*
X123266666Y-77551875D02*
X122980952Y-77551875D01*
X122980952Y-77551875D02*
X122885714Y-77504256D01*
X122885714Y-77504256D02*
X122838095Y-77456636D01*
X163534905Y-111549819D02*
X163534905Y-110549819D01*
X163534905Y-110549819D02*
X163773000Y-110549819D01*
X163773000Y-110549819D02*
X163915857Y-110597438D01*
X163915857Y-110597438D02*
X164011095Y-110692676D01*
X164011095Y-110692676D02*
X164058714Y-110787914D01*
X164058714Y-110787914D02*
X164106333Y-110978390D01*
X164106333Y-110978390D02*
X164106333Y-111121247D01*
X164106333Y-111121247D02*
X164058714Y-111311723D01*
X164058714Y-111311723D02*
X164011095Y-111406961D01*
X164011095Y-111406961D02*
X163915857Y-111502200D01*
X163915857Y-111502200D02*
X163773000Y-111549819D01*
X163773000Y-111549819D02*
X163534905Y-111549819D01*
X164439667Y-110549819D02*
X165106333Y-110549819D01*
X165106333Y-110549819D02*
X164677762Y-111549819D01*
X168334905Y-111549819D02*
X168334905Y-110549819D01*
X168334905Y-110549819D02*
X168573000Y-110549819D01*
X168573000Y-110549819D02*
X168715857Y-110597438D01*
X168715857Y-110597438D02*
X168811095Y-110692676D01*
X168811095Y-110692676D02*
X168858714Y-110787914D01*
X168858714Y-110787914D02*
X168906333Y-110978390D01*
X168906333Y-110978390D02*
X168906333Y-111121247D01*
X168906333Y-111121247D02*
X168858714Y-111311723D01*
X168858714Y-111311723D02*
X168811095Y-111406961D01*
X168811095Y-111406961D02*
X168715857Y-111502200D01*
X168715857Y-111502200D02*
X168573000Y-111549819D01*
X168573000Y-111549819D02*
X168334905Y-111549819D01*
X169763476Y-110549819D02*
X169573000Y-110549819D01*
X169573000Y-110549819D02*
X169477762Y-110597438D01*
X169477762Y-110597438D02*
X169430143Y-110645057D01*
X169430143Y-110645057D02*
X169334905Y-110787914D01*
X169334905Y-110787914D02*
X169287286Y-110978390D01*
X169287286Y-110978390D02*
X169287286Y-111359342D01*
X169287286Y-111359342D02*
X169334905Y-111454580D01*
X169334905Y-111454580D02*
X169382524Y-111502200D01*
X169382524Y-111502200D02*
X169477762Y-111549819D01*
X169477762Y-111549819D02*
X169668238Y-111549819D01*
X169668238Y-111549819D02*
X169763476Y-111502200D01*
X169763476Y-111502200D02*
X169811095Y-111454580D01*
X169811095Y-111454580D02*
X169858714Y-111359342D01*
X169858714Y-111359342D02*
X169858714Y-111121247D01*
X169858714Y-111121247D02*
X169811095Y-111026009D01*
X169811095Y-111026009D02*
X169763476Y-110978390D01*
X169763476Y-110978390D02*
X169668238Y-110930771D01*
X169668238Y-110930771D02*
X169477762Y-110930771D01*
X169477762Y-110930771D02*
X169382524Y-110978390D01*
X169382524Y-110978390D02*
X169334905Y-111026009D01*
X169334905Y-111026009D02*
X169287286Y-111121247D01*
X155231905Y-90854819D02*
X155231905Y-89854819D01*
X155231905Y-89854819D02*
X155470000Y-89854819D01*
X155470000Y-89854819D02*
X155612857Y-89902438D01*
X155612857Y-89902438D02*
X155708095Y-89997676D01*
X155708095Y-89997676D02*
X155755714Y-90092914D01*
X155755714Y-90092914D02*
X155803333Y-90283390D01*
X155803333Y-90283390D02*
X155803333Y-90426247D01*
X155803333Y-90426247D02*
X155755714Y-90616723D01*
X155755714Y-90616723D02*
X155708095Y-90711961D01*
X155708095Y-90711961D02*
X155612857Y-90807200D01*
X155612857Y-90807200D02*
X155470000Y-90854819D01*
X155470000Y-90854819D02*
X155231905Y-90854819D01*
X156708095Y-89854819D02*
X156231905Y-89854819D01*
X156231905Y-89854819D02*
X156184286Y-90331009D01*
X156184286Y-90331009D02*
X156231905Y-90283390D01*
X156231905Y-90283390D02*
X156327143Y-90235771D01*
X156327143Y-90235771D02*
X156565238Y-90235771D01*
X156565238Y-90235771D02*
X156660476Y-90283390D01*
X156660476Y-90283390D02*
X156708095Y-90331009D01*
X156708095Y-90331009D02*
X156755714Y-90426247D01*
X156755714Y-90426247D02*
X156755714Y-90664342D01*
X156755714Y-90664342D02*
X156708095Y-90759580D01*
X156708095Y-90759580D02*
X156660476Y-90807200D01*
X156660476Y-90807200D02*
X156565238Y-90854819D01*
X156565238Y-90854819D02*
X156327143Y-90854819D01*
X156327143Y-90854819D02*
X156231905Y-90807200D01*
X156231905Y-90807200D02*
X156184286Y-90759580D01*
X132461905Y-90954819D02*
X132461905Y-89954819D01*
X132461905Y-89954819D02*
X132700000Y-89954819D01*
X132700000Y-89954819D02*
X132842857Y-90002438D01*
X132842857Y-90002438D02*
X132938095Y-90097676D01*
X132938095Y-90097676D02*
X132985714Y-90192914D01*
X132985714Y-90192914D02*
X133033333Y-90383390D01*
X133033333Y-90383390D02*
X133033333Y-90526247D01*
X133033333Y-90526247D02*
X132985714Y-90716723D01*
X132985714Y-90716723D02*
X132938095Y-90811961D01*
X132938095Y-90811961D02*
X132842857Y-90907200D01*
X132842857Y-90907200D02*
X132700000Y-90954819D01*
X132700000Y-90954819D02*
X132461905Y-90954819D01*
X133890476Y-90288152D02*
X133890476Y-90954819D01*
X133652381Y-89907200D02*
X133414286Y-90621485D01*
X133414286Y-90621485D02*
X134033333Y-90621485D01*
X132461905Y-85954819D02*
X132461905Y-84954819D01*
X132461905Y-84954819D02*
X132700000Y-84954819D01*
X132700000Y-84954819D02*
X132842857Y-85002438D01*
X132842857Y-85002438D02*
X132938095Y-85097676D01*
X132938095Y-85097676D02*
X132985714Y-85192914D01*
X132985714Y-85192914D02*
X133033333Y-85383390D01*
X133033333Y-85383390D02*
X133033333Y-85526247D01*
X133033333Y-85526247D02*
X132985714Y-85716723D01*
X132985714Y-85716723D02*
X132938095Y-85811961D01*
X132938095Y-85811961D02*
X132842857Y-85907200D01*
X132842857Y-85907200D02*
X132700000Y-85954819D01*
X132700000Y-85954819D02*
X132461905Y-85954819D01*
X133366667Y-84954819D02*
X133985714Y-84954819D01*
X133985714Y-84954819D02*
X133652381Y-85335771D01*
X133652381Y-85335771D02*
X133795238Y-85335771D01*
X133795238Y-85335771D02*
X133890476Y-85383390D01*
X133890476Y-85383390D02*
X133938095Y-85431009D01*
X133938095Y-85431009D02*
X133985714Y-85526247D01*
X133985714Y-85526247D02*
X133985714Y-85764342D01*
X133985714Y-85764342D02*
X133938095Y-85859580D01*
X133938095Y-85859580D02*
X133890476Y-85907200D01*
X133890476Y-85907200D02*
X133795238Y-85954819D01*
X133795238Y-85954819D02*
X133509524Y-85954819D01*
X133509524Y-85954819D02*
X133414286Y-85907200D01*
X133414286Y-85907200D02*
X133366667Y-85859580D01*
X137561905Y-101854819D02*
X137561905Y-100854819D01*
X137561905Y-100854819D02*
X137800000Y-100854819D01*
X137800000Y-100854819D02*
X137942857Y-100902438D01*
X137942857Y-100902438D02*
X138038095Y-100997676D01*
X138038095Y-100997676D02*
X138085714Y-101092914D01*
X138085714Y-101092914D02*
X138133333Y-101283390D01*
X138133333Y-101283390D02*
X138133333Y-101426247D01*
X138133333Y-101426247D02*
X138085714Y-101616723D01*
X138085714Y-101616723D02*
X138038095Y-101711961D01*
X138038095Y-101711961D02*
X137942857Y-101807200D01*
X137942857Y-101807200D02*
X137800000Y-101854819D01*
X137800000Y-101854819D02*
X137561905Y-101854819D01*
X138514286Y-100950057D02*
X138561905Y-100902438D01*
X138561905Y-100902438D02*
X138657143Y-100854819D01*
X138657143Y-100854819D02*
X138895238Y-100854819D01*
X138895238Y-100854819D02*
X138990476Y-100902438D01*
X138990476Y-100902438D02*
X139038095Y-100950057D01*
X139038095Y-100950057D02*
X139085714Y-101045295D01*
X139085714Y-101045295D02*
X139085714Y-101140533D01*
X139085714Y-101140533D02*
X139038095Y-101283390D01*
X139038095Y-101283390D02*
X138466667Y-101854819D01*
X138466667Y-101854819D02*
X139085714Y-101854819D01*
X137361905Y-97854819D02*
X137361905Y-96854819D01*
X137361905Y-96854819D02*
X137600000Y-96854819D01*
X137600000Y-96854819D02*
X137742857Y-96902438D01*
X137742857Y-96902438D02*
X137838095Y-96997676D01*
X137838095Y-96997676D02*
X137885714Y-97092914D01*
X137885714Y-97092914D02*
X137933333Y-97283390D01*
X137933333Y-97283390D02*
X137933333Y-97426247D01*
X137933333Y-97426247D02*
X137885714Y-97616723D01*
X137885714Y-97616723D02*
X137838095Y-97711961D01*
X137838095Y-97711961D02*
X137742857Y-97807200D01*
X137742857Y-97807200D02*
X137600000Y-97854819D01*
X137600000Y-97854819D02*
X137361905Y-97854819D01*
X138885714Y-97854819D02*
X138314286Y-97854819D01*
X138600000Y-97854819D02*
X138600000Y-96854819D01*
X138600000Y-96854819D02*
X138504762Y-96997676D01*
X138504762Y-96997676D02*
X138409524Y-97092914D01*
X138409524Y-97092914D02*
X138314286Y-97140533D01*
X141957142Y-103049580D02*
X141909523Y-103097200D01*
X141909523Y-103097200D02*
X141766666Y-103144819D01*
X141766666Y-103144819D02*
X141671428Y-103144819D01*
X141671428Y-103144819D02*
X141528571Y-103097200D01*
X141528571Y-103097200D02*
X141433333Y-103001961D01*
X141433333Y-103001961D02*
X141385714Y-102906723D01*
X141385714Y-102906723D02*
X141338095Y-102716247D01*
X141338095Y-102716247D02*
X141338095Y-102573390D01*
X141338095Y-102573390D02*
X141385714Y-102382914D01*
X141385714Y-102382914D02*
X141433333Y-102287676D01*
X141433333Y-102287676D02*
X141528571Y-102192438D01*
X141528571Y-102192438D02*
X141671428Y-102144819D01*
X141671428Y-102144819D02*
X141766666Y-102144819D01*
X141766666Y-102144819D02*
X141909523Y-102192438D01*
X141909523Y-102192438D02*
X141957142Y-102240057D01*
X142909523Y-103144819D02*
X142338095Y-103144819D01*
X142623809Y-103144819D02*
X142623809Y-102144819D01*
X142623809Y-102144819D02*
X142528571Y-102287676D01*
X142528571Y-102287676D02*
X142433333Y-102382914D01*
X142433333Y-102382914D02*
X142338095Y-102430533D01*
X143242857Y-102144819D02*
X143909523Y-102144819D01*
X143909523Y-102144819D02*
X143480952Y-103144819D01*
X147319580Y-104962857D02*
X147367200Y-105010476D01*
X147367200Y-105010476D02*
X147414819Y-105153333D01*
X147414819Y-105153333D02*
X147414819Y-105248571D01*
X147414819Y-105248571D02*
X147367200Y-105391428D01*
X147367200Y-105391428D02*
X147271961Y-105486666D01*
X147271961Y-105486666D02*
X147176723Y-105534285D01*
X147176723Y-105534285D02*
X146986247Y-105581904D01*
X146986247Y-105581904D02*
X146843390Y-105581904D01*
X146843390Y-105581904D02*
X146652914Y-105534285D01*
X146652914Y-105534285D02*
X146557676Y-105486666D01*
X146557676Y-105486666D02*
X146462438Y-105391428D01*
X146462438Y-105391428D02*
X146414819Y-105248571D01*
X146414819Y-105248571D02*
X146414819Y-105153333D01*
X146414819Y-105153333D02*
X146462438Y-105010476D01*
X146462438Y-105010476D02*
X146510057Y-104962857D01*
X147414819Y-104010476D02*
X147414819Y-104581904D01*
X147414819Y-104296190D02*
X146414819Y-104296190D01*
X146414819Y-104296190D02*
X146557676Y-104391428D01*
X146557676Y-104391428D02*
X146652914Y-104486666D01*
X146652914Y-104486666D02*
X146700533Y-104581904D01*
X146414819Y-103153333D02*
X146414819Y-103343809D01*
X146414819Y-103343809D02*
X146462438Y-103439047D01*
X146462438Y-103439047D02*
X146510057Y-103486666D01*
X146510057Y-103486666D02*
X146652914Y-103581904D01*
X146652914Y-103581904D02*
X146843390Y-103629523D01*
X146843390Y-103629523D02*
X147224342Y-103629523D01*
X147224342Y-103629523D02*
X147319580Y-103581904D01*
X147319580Y-103581904D02*
X147367200Y-103534285D01*
X147367200Y-103534285D02*
X147414819Y-103439047D01*
X147414819Y-103439047D02*
X147414819Y-103248571D01*
X147414819Y-103248571D02*
X147367200Y-103153333D01*
X147367200Y-103153333D02*
X147319580Y-103105714D01*
X147319580Y-103105714D02*
X147224342Y-103058095D01*
X147224342Y-103058095D02*
X146986247Y-103058095D01*
X146986247Y-103058095D02*
X146891009Y-103105714D01*
X146891009Y-103105714D02*
X146843390Y-103153333D01*
X146843390Y-103153333D02*
X146795771Y-103248571D01*
X146795771Y-103248571D02*
X146795771Y-103439047D01*
X146795771Y-103439047D02*
X146843390Y-103534285D01*
X146843390Y-103534285D02*
X146891009Y-103581904D01*
X146891009Y-103581904D02*
X146986247Y-103629523D01*
X143909580Y-93517857D02*
X143957200Y-93565476D01*
X143957200Y-93565476D02*
X144004819Y-93708333D01*
X144004819Y-93708333D02*
X144004819Y-93803571D01*
X144004819Y-93803571D02*
X143957200Y-93946428D01*
X143957200Y-93946428D02*
X143861961Y-94041666D01*
X143861961Y-94041666D02*
X143766723Y-94089285D01*
X143766723Y-94089285D02*
X143576247Y-94136904D01*
X143576247Y-94136904D02*
X143433390Y-94136904D01*
X143433390Y-94136904D02*
X143242914Y-94089285D01*
X143242914Y-94089285D02*
X143147676Y-94041666D01*
X143147676Y-94041666D02*
X143052438Y-93946428D01*
X143052438Y-93946428D02*
X143004819Y-93803571D01*
X143004819Y-93803571D02*
X143004819Y-93708333D01*
X143004819Y-93708333D02*
X143052438Y-93565476D01*
X143052438Y-93565476D02*
X143100057Y-93517857D01*
X144004819Y-92565476D02*
X144004819Y-93136904D01*
X144004819Y-92851190D02*
X143004819Y-92851190D01*
X143004819Y-92851190D02*
X143147676Y-92946428D01*
X143147676Y-92946428D02*
X143242914Y-93041666D01*
X143242914Y-93041666D02*
X143290533Y-93136904D01*
X143004819Y-91660714D02*
X143004819Y-92136904D01*
X143004819Y-92136904D02*
X143481009Y-92184523D01*
X143481009Y-92184523D02*
X143433390Y-92136904D01*
X143433390Y-92136904D02*
X143385771Y-92041666D01*
X143385771Y-92041666D02*
X143385771Y-91803571D01*
X143385771Y-91803571D02*
X143433390Y-91708333D01*
X143433390Y-91708333D02*
X143481009Y-91660714D01*
X143481009Y-91660714D02*
X143576247Y-91613095D01*
X143576247Y-91613095D02*
X143814342Y-91613095D01*
X143814342Y-91613095D02*
X143909580Y-91660714D01*
X143909580Y-91660714D02*
X143957200Y-91708333D01*
X143957200Y-91708333D02*
X144004819Y-91803571D01*
X144004819Y-91803571D02*
X144004819Y-92041666D01*
X144004819Y-92041666D02*
X143957200Y-92136904D01*
X143957200Y-92136904D02*
X143909580Y-92184523D01*
X142557142Y-96759580D02*
X142509523Y-96807200D01*
X142509523Y-96807200D02*
X142366666Y-96854819D01*
X142366666Y-96854819D02*
X142271428Y-96854819D01*
X142271428Y-96854819D02*
X142128571Y-96807200D01*
X142128571Y-96807200D02*
X142033333Y-96711961D01*
X142033333Y-96711961D02*
X141985714Y-96616723D01*
X141985714Y-96616723D02*
X141938095Y-96426247D01*
X141938095Y-96426247D02*
X141938095Y-96283390D01*
X141938095Y-96283390D02*
X141985714Y-96092914D01*
X141985714Y-96092914D02*
X142033333Y-95997676D01*
X142033333Y-95997676D02*
X142128571Y-95902438D01*
X142128571Y-95902438D02*
X142271428Y-95854819D01*
X142271428Y-95854819D02*
X142366666Y-95854819D01*
X142366666Y-95854819D02*
X142509523Y-95902438D01*
X142509523Y-95902438D02*
X142557142Y-95950057D01*
X143509523Y-96854819D02*
X142938095Y-96854819D01*
X143223809Y-96854819D02*
X143223809Y-95854819D01*
X143223809Y-95854819D02*
X143128571Y-95997676D01*
X143128571Y-95997676D02*
X143033333Y-96092914D01*
X143033333Y-96092914D02*
X142938095Y-96140533D01*
X144366666Y-96188152D02*
X144366666Y-96854819D01*
X144128571Y-95807200D02*
X143890476Y-96521485D01*
X143890476Y-96521485D02*
X144509523Y-96521485D01*
X152107142Y-89009580D02*
X152059523Y-89057200D01*
X152059523Y-89057200D02*
X151916666Y-89104819D01*
X151916666Y-89104819D02*
X151821428Y-89104819D01*
X151821428Y-89104819D02*
X151678571Y-89057200D01*
X151678571Y-89057200D02*
X151583333Y-88961961D01*
X151583333Y-88961961D02*
X151535714Y-88866723D01*
X151535714Y-88866723D02*
X151488095Y-88676247D01*
X151488095Y-88676247D02*
X151488095Y-88533390D01*
X151488095Y-88533390D02*
X151535714Y-88342914D01*
X151535714Y-88342914D02*
X151583333Y-88247676D01*
X151583333Y-88247676D02*
X151678571Y-88152438D01*
X151678571Y-88152438D02*
X151821428Y-88104819D01*
X151821428Y-88104819D02*
X151916666Y-88104819D01*
X151916666Y-88104819D02*
X152059523Y-88152438D01*
X152059523Y-88152438D02*
X152107142Y-88200057D01*
X153059523Y-89104819D02*
X152488095Y-89104819D01*
X152773809Y-89104819D02*
X152773809Y-88104819D01*
X152773809Y-88104819D02*
X152678571Y-88247676D01*
X152678571Y-88247676D02*
X152583333Y-88342914D01*
X152583333Y-88342914D02*
X152488095Y-88390533D01*
X153392857Y-88104819D02*
X154011904Y-88104819D01*
X154011904Y-88104819D02*
X153678571Y-88485771D01*
X153678571Y-88485771D02*
X153821428Y-88485771D01*
X153821428Y-88485771D02*
X153916666Y-88533390D01*
X153916666Y-88533390D02*
X153964285Y-88581009D01*
X153964285Y-88581009D02*
X154011904Y-88676247D01*
X154011904Y-88676247D02*
X154011904Y-88914342D01*
X154011904Y-88914342D02*
X153964285Y-89009580D01*
X153964285Y-89009580D02*
X153916666Y-89057200D01*
X153916666Y-89057200D02*
X153821428Y-89104819D01*
X153821428Y-89104819D02*
X153535714Y-89104819D01*
X153535714Y-89104819D02*
X153440476Y-89057200D01*
X153440476Y-89057200D02*
X153392857Y-89009580D01*
X148699580Y-91122857D02*
X148747200Y-91170476D01*
X148747200Y-91170476D02*
X148794819Y-91313333D01*
X148794819Y-91313333D02*
X148794819Y-91408571D01*
X148794819Y-91408571D02*
X148747200Y-91551428D01*
X148747200Y-91551428D02*
X148651961Y-91646666D01*
X148651961Y-91646666D02*
X148556723Y-91694285D01*
X148556723Y-91694285D02*
X148366247Y-91741904D01*
X148366247Y-91741904D02*
X148223390Y-91741904D01*
X148223390Y-91741904D02*
X148032914Y-91694285D01*
X148032914Y-91694285D02*
X147937676Y-91646666D01*
X147937676Y-91646666D02*
X147842438Y-91551428D01*
X147842438Y-91551428D02*
X147794819Y-91408571D01*
X147794819Y-91408571D02*
X147794819Y-91313333D01*
X147794819Y-91313333D02*
X147842438Y-91170476D01*
X147842438Y-91170476D02*
X147890057Y-91122857D01*
X148794819Y-90170476D02*
X148794819Y-90741904D01*
X148794819Y-90456190D02*
X147794819Y-90456190D01*
X147794819Y-90456190D02*
X147937676Y-90551428D01*
X147937676Y-90551428D02*
X148032914Y-90646666D01*
X148032914Y-90646666D02*
X148080533Y-90741904D01*
X147890057Y-89789523D02*
X147842438Y-89741904D01*
X147842438Y-89741904D02*
X147794819Y-89646666D01*
X147794819Y-89646666D02*
X147794819Y-89408571D01*
X147794819Y-89408571D02*
X147842438Y-89313333D01*
X147842438Y-89313333D02*
X147890057Y-89265714D01*
X147890057Y-89265714D02*
X147985295Y-89218095D01*
X147985295Y-89218095D02*
X148080533Y-89218095D01*
X148080533Y-89218095D02*
X148223390Y-89265714D01*
X148223390Y-89265714D02*
X148794819Y-89837142D01*
X148794819Y-89837142D02*
X148794819Y-89218095D01*
X142437142Y-84799580D02*
X142389523Y-84847200D01*
X142389523Y-84847200D02*
X142246666Y-84894819D01*
X142246666Y-84894819D02*
X142151428Y-84894819D01*
X142151428Y-84894819D02*
X142008571Y-84847200D01*
X142008571Y-84847200D02*
X141913333Y-84751961D01*
X141913333Y-84751961D02*
X141865714Y-84656723D01*
X141865714Y-84656723D02*
X141818095Y-84466247D01*
X141818095Y-84466247D02*
X141818095Y-84323390D01*
X141818095Y-84323390D02*
X141865714Y-84132914D01*
X141865714Y-84132914D02*
X141913333Y-84037676D01*
X141913333Y-84037676D02*
X142008571Y-83942438D01*
X142008571Y-83942438D02*
X142151428Y-83894819D01*
X142151428Y-83894819D02*
X142246666Y-83894819D01*
X142246666Y-83894819D02*
X142389523Y-83942438D01*
X142389523Y-83942438D02*
X142437142Y-83990057D01*
X143389523Y-84894819D02*
X142818095Y-84894819D01*
X143103809Y-84894819D02*
X143103809Y-83894819D01*
X143103809Y-83894819D02*
X143008571Y-84037676D01*
X143008571Y-84037676D02*
X142913333Y-84132914D01*
X142913333Y-84132914D02*
X142818095Y-84180533D01*
X144341904Y-84894819D02*
X143770476Y-84894819D01*
X144056190Y-84894819D02*
X144056190Y-83894819D01*
X144056190Y-83894819D02*
X143960952Y-84037676D01*
X143960952Y-84037676D02*
X143865714Y-84132914D01*
X143865714Y-84132914D02*
X143770476Y-84180533D01*
X143909580Y-88517857D02*
X143957200Y-88565476D01*
X143957200Y-88565476D02*
X144004819Y-88708333D01*
X144004819Y-88708333D02*
X144004819Y-88803571D01*
X144004819Y-88803571D02*
X143957200Y-88946428D01*
X143957200Y-88946428D02*
X143861961Y-89041666D01*
X143861961Y-89041666D02*
X143766723Y-89089285D01*
X143766723Y-89089285D02*
X143576247Y-89136904D01*
X143576247Y-89136904D02*
X143433390Y-89136904D01*
X143433390Y-89136904D02*
X143242914Y-89089285D01*
X143242914Y-89089285D02*
X143147676Y-89041666D01*
X143147676Y-89041666D02*
X143052438Y-88946428D01*
X143052438Y-88946428D02*
X143004819Y-88803571D01*
X143004819Y-88803571D02*
X143004819Y-88708333D01*
X143004819Y-88708333D02*
X143052438Y-88565476D01*
X143052438Y-88565476D02*
X143100057Y-88517857D01*
X144004819Y-87565476D02*
X144004819Y-88136904D01*
X144004819Y-87851190D02*
X143004819Y-87851190D01*
X143004819Y-87851190D02*
X143147676Y-87946428D01*
X143147676Y-87946428D02*
X143242914Y-88041666D01*
X143242914Y-88041666D02*
X143290533Y-88136904D01*
X143004819Y-86946428D02*
X143004819Y-86851190D01*
X143004819Y-86851190D02*
X143052438Y-86755952D01*
X143052438Y-86755952D02*
X143100057Y-86708333D01*
X143100057Y-86708333D02*
X143195295Y-86660714D01*
X143195295Y-86660714D02*
X143385771Y-86613095D01*
X143385771Y-86613095D02*
X143623866Y-86613095D01*
X143623866Y-86613095D02*
X143814342Y-86660714D01*
X143814342Y-86660714D02*
X143909580Y-86708333D01*
X143909580Y-86708333D02*
X143957200Y-86755952D01*
X143957200Y-86755952D02*
X144004819Y-86851190D01*
X144004819Y-86851190D02*
X144004819Y-86946428D01*
X144004819Y-86946428D02*
X143957200Y-87041666D01*
X143957200Y-87041666D02*
X143909580Y-87089285D01*
X143909580Y-87089285D02*
X143814342Y-87136904D01*
X143814342Y-87136904D02*
X143623866Y-87184523D01*
X143623866Y-87184523D02*
X143385771Y-87184523D01*
X143385771Y-87184523D02*
X143195295Y-87136904D01*
X143195295Y-87136904D02*
X143100057Y-87089285D01*
X143100057Y-87089285D02*
X143052438Y-87041666D01*
X143052438Y-87041666D02*
X143004819Y-86946428D01*
X162153333Y-86519580D02*
X162105714Y-86567200D01*
X162105714Y-86567200D02*
X161962857Y-86614819D01*
X161962857Y-86614819D02*
X161867619Y-86614819D01*
X161867619Y-86614819D02*
X161724762Y-86567200D01*
X161724762Y-86567200D02*
X161629524Y-86471961D01*
X161629524Y-86471961D02*
X161581905Y-86376723D01*
X161581905Y-86376723D02*
X161534286Y-86186247D01*
X161534286Y-86186247D02*
X161534286Y-86043390D01*
X161534286Y-86043390D02*
X161581905Y-85852914D01*
X161581905Y-85852914D02*
X161629524Y-85757676D01*
X161629524Y-85757676D02*
X161724762Y-85662438D01*
X161724762Y-85662438D02*
X161867619Y-85614819D01*
X161867619Y-85614819D02*
X161962857Y-85614819D01*
X161962857Y-85614819D02*
X162105714Y-85662438D01*
X162105714Y-85662438D02*
X162153333Y-85710057D01*
X162629524Y-86614819D02*
X162820000Y-86614819D01*
X162820000Y-86614819D02*
X162915238Y-86567200D01*
X162915238Y-86567200D02*
X162962857Y-86519580D01*
X162962857Y-86519580D02*
X163058095Y-86376723D01*
X163058095Y-86376723D02*
X163105714Y-86186247D01*
X163105714Y-86186247D02*
X163105714Y-85805295D01*
X163105714Y-85805295D02*
X163058095Y-85710057D01*
X163058095Y-85710057D02*
X163010476Y-85662438D01*
X163010476Y-85662438D02*
X162915238Y-85614819D01*
X162915238Y-85614819D02*
X162724762Y-85614819D01*
X162724762Y-85614819D02*
X162629524Y-85662438D01*
X162629524Y-85662438D02*
X162581905Y-85710057D01*
X162581905Y-85710057D02*
X162534286Y-85805295D01*
X162534286Y-85805295D02*
X162534286Y-86043390D01*
X162534286Y-86043390D02*
X162581905Y-86138628D01*
X162581905Y-86138628D02*
X162629524Y-86186247D01*
X162629524Y-86186247D02*
X162724762Y-86233866D01*
X162724762Y-86233866D02*
X162915238Y-86233866D01*
X162915238Y-86233866D02*
X163010476Y-86186247D01*
X163010476Y-86186247D02*
X163058095Y-86138628D01*
X163058095Y-86138628D02*
X163105714Y-86043390D01*
X140170833Y-91009580D02*
X140123214Y-91057200D01*
X140123214Y-91057200D02*
X139980357Y-91104819D01*
X139980357Y-91104819D02*
X139885119Y-91104819D01*
X139885119Y-91104819D02*
X139742262Y-91057200D01*
X139742262Y-91057200D02*
X139647024Y-90961961D01*
X139647024Y-90961961D02*
X139599405Y-90866723D01*
X139599405Y-90866723D02*
X139551786Y-90676247D01*
X139551786Y-90676247D02*
X139551786Y-90533390D01*
X139551786Y-90533390D02*
X139599405Y-90342914D01*
X139599405Y-90342914D02*
X139647024Y-90247676D01*
X139647024Y-90247676D02*
X139742262Y-90152438D01*
X139742262Y-90152438D02*
X139885119Y-90104819D01*
X139885119Y-90104819D02*
X139980357Y-90104819D01*
X139980357Y-90104819D02*
X140123214Y-90152438D01*
X140123214Y-90152438D02*
X140170833Y-90200057D01*
X140742262Y-90533390D02*
X140647024Y-90485771D01*
X140647024Y-90485771D02*
X140599405Y-90438152D01*
X140599405Y-90438152D02*
X140551786Y-90342914D01*
X140551786Y-90342914D02*
X140551786Y-90295295D01*
X140551786Y-90295295D02*
X140599405Y-90200057D01*
X140599405Y-90200057D02*
X140647024Y-90152438D01*
X140647024Y-90152438D02*
X140742262Y-90104819D01*
X140742262Y-90104819D02*
X140932738Y-90104819D01*
X140932738Y-90104819D02*
X141027976Y-90152438D01*
X141027976Y-90152438D02*
X141075595Y-90200057D01*
X141075595Y-90200057D02*
X141123214Y-90295295D01*
X141123214Y-90295295D02*
X141123214Y-90342914D01*
X141123214Y-90342914D02*
X141075595Y-90438152D01*
X141075595Y-90438152D02*
X141027976Y-90485771D01*
X141027976Y-90485771D02*
X140932738Y-90533390D01*
X140932738Y-90533390D02*
X140742262Y-90533390D01*
X140742262Y-90533390D02*
X140647024Y-90581009D01*
X140647024Y-90581009D02*
X140599405Y-90628628D01*
X140599405Y-90628628D02*
X140551786Y-90723866D01*
X140551786Y-90723866D02*
X140551786Y-90914342D01*
X140551786Y-90914342D02*
X140599405Y-91009580D01*
X140599405Y-91009580D02*
X140647024Y-91057200D01*
X140647024Y-91057200D02*
X140742262Y-91104819D01*
X140742262Y-91104819D02*
X140932738Y-91104819D01*
X140932738Y-91104819D02*
X141027976Y-91057200D01*
X141027976Y-91057200D02*
X141075595Y-91009580D01*
X141075595Y-91009580D02*
X141123214Y-90914342D01*
X141123214Y-90914342D02*
X141123214Y-90723866D01*
X141123214Y-90723866D02*
X141075595Y-90628628D01*
X141075595Y-90628628D02*
X141027976Y-90581009D01*
X141027976Y-90581009D02*
X140932738Y-90533390D01*
X140308333Y-85959580D02*
X140260714Y-86007200D01*
X140260714Y-86007200D02*
X140117857Y-86054819D01*
X140117857Y-86054819D02*
X140022619Y-86054819D01*
X140022619Y-86054819D02*
X139879762Y-86007200D01*
X139879762Y-86007200D02*
X139784524Y-85911961D01*
X139784524Y-85911961D02*
X139736905Y-85816723D01*
X139736905Y-85816723D02*
X139689286Y-85626247D01*
X139689286Y-85626247D02*
X139689286Y-85483390D01*
X139689286Y-85483390D02*
X139736905Y-85292914D01*
X139736905Y-85292914D02*
X139784524Y-85197676D01*
X139784524Y-85197676D02*
X139879762Y-85102438D01*
X139879762Y-85102438D02*
X140022619Y-85054819D01*
X140022619Y-85054819D02*
X140117857Y-85054819D01*
X140117857Y-85054819D02*
X140260714Y-85102438D01*
X140260714Y-85102438D02*
X140308333Y-85150057D01*
X140641667Y-85054819D02*
X141308333Y-85054819D01*
X141308333Y-85054819D02*
X140879762Y-86054819D01*
X128309580Y-91886666D02*
X128357200Y-91934285D01*
X128357200Y-91934285D02*
X128404819Y-92077142D01*
X128404819Y-92077142D02*
X128404819Y-92172380D01*
X128404819Y-92172380D02*
X128357200Y-92315237D01*
X128357200Y-92315237D02*
X128261961Y-92410475D01*
X128261961Y-92410475D02*
X128166723Y-92458094D01*
X128166723Y-92458094D02*
X127976247Y-92505713D01*
X127976247Y-92505713D02*
X127833390Y-92505713D01*
X127833390Y-92505713D02*
X127642914Y-92458094D01*
X127642914Y-92458094D02*
X127547676Y-92410475D01*
X127547676Y-92410475D02*
X127452438Y-92315237D01*
X127452438Y-92315237D02*
X127404819Y-92172380D01*
X127404819Y-92172380D02*
X127404819Y-92077142D01*
X127404819Y-92077142D02*
X127452438Y-91934285D01*
X127452438Y-91934285D02*
X127500057Y-91886666D01*
X127404819Y-91029523D02*
X127404819Y-91219999D01*
X127404819Y-91219999D02*
X127452438Y-91315237D01*
X127452438Y-91315237D02*
X127500057Y-91362856D01*
X127500057Y-91362856D02*
X127642914Y-91458094D01*
X127642914Y-91458094D02*
X127833390Y-91505713D01*
X127833390Y-91505713D02*
X128214342Y-91505713D01*
X128214342Y-91505713D02*
X128309580Y-91458094D01*
X128309580Y-91458094D02*
X128357200Y-91410475D01*
X128357200Y-91410475D02*
X128404819Y-91315237D01*
X128404819Y-91315237D02*
X128404819Y-91124761D01*
X128404819Y-91124761D02*
X128357200Y-91029523D01*
X128357200Y-91029523D02*
X128309580Y-90981904D01*
X128309580Y-90981904D02*
X128214342Y-90934285D01*
X128214342Y-90934285D02*
X127976247Y-90934285D01*
X127976247Y-90934285D02*
X127881009Y-90981904D01*
X127881009Y-90981904D02*
X127833390Y-91029523D01*
X127833390Y-91029523D02*
X127785771Y-91124761D01*
X127785771Y-91124761D02*
X127785771Y-91315237D01*
X127785771Y-91315237D02*
X127833390Y-91410475D01*
X127833390Y-91410475D02*
X127881009Y-91458094D01*
X127881009Y-91458094D02*
X127976247Y-91505713D01*
X128309580Y-89711666D02*
X128357200Y-89759285D01*
X128357200Y-89759285D02*
X128404819Y-89902142D01*
X128404819Y-89902142D02*
X128404819Y-89997380D01*
X128404819Y-89997380D02*
X128357200Y-90140237D01*
X128357200Y-90140237D02*
X128261961Y-90235475D01*
X128261961Y-90235475D02*
X128166723Y-90283094D01*
X128166723Y-90283094D02*
X127976247Y-90330713D01*
X127976247Y-90330713D02*
X127833390Y-90330713D01*
X127833390Y-90330713D02*
X127642914Y-90283094D01*
X127642914Y-90283094D02*
X127547676Y-90235475D01*
X127547676Y-90235475D02*
X127452438Y-90140237D01*
X127452438Y-90140237D02*
X127404819Y-89997380D01*
X127404819Y-89997380D02*
X127404819Y-89902142D01*
X127404819Y-89902142D02*
X127452438Y-89759285D01*
X127452438Y-89759285D02*
X127500057Y-89711666D01*
X127404819Y-88806904D02*
X127404819Y-89283094D01*
X127404819Y-89283094D02*
X127881009Y-89330713D01*
X127881009Y-89330713D02*
X127833390Y-89283094D01*
X127833390Y-89283094D02*
X127785771Y-89187856D01*
X127785771Y-89187856D02*
X127785771Y-88949761D01*
X127785771Y-88949761D02*
X127833390Y-88854523D01*
X127833390Y-88854523D02*
X127881009Y-88806904D01*
X127881009Y-88806904D02*
X127976247Y-88759285D01*
X127976247Y-88759285D02*
X128214342Y-88759285D01*
X128214342Y-88759285D02*
X128309580Y-88806904D01*
X128309580Y-88806904D02*
X128357200Y-88854523D01*
X128357200Y-88854523D02*
X128404819Y-88949761D01*
X128404819Y-88949761D02*
X128404819Y-89187856D01*
X128404819Y-89187856D02*
X128357200Y-89283094D01*
X128357200Y-89283094D02*
X128309580Y-89330713D01*
X140713333Y-120719580D02*
X140665714Y-120767200D01*
X140665714Y-120767200D02*
X140522857Y-120814819D01*
X140522857Y-120814819D02*
X140427619Y-120814819D01*
X140427619Y-120814819D02*
X140284762Y-120767200D01*
X140284762Y-120767200D02*
X140189524Y-120671961D01*
X140189524Y-120671961D02*
X140141905Y-120576723D01*
X140141905Y-120576723D02*
X140094286Y-120386247D01*
X140094286Y-120386247D02*
X140094286Y-120243390D01*
X140094286Y-120243390D02*
X140141905Y-120052914D01*
X140141905Y-120052914D02*
X140189524Y-119957676D01*
X140189524Y-119957676D02*
X140284762Y-119862438D01*
X140284762Y-119862438D02*
X140427619Y-119814819D01*
X140427619Y-119814819D02*
X140522857Y-119814819D01*
X140522857Y-119814819D02*
X140665714Y-119862438D01*
X140665714Y-119862438D02*
X140713333Y-119910057D01*
X141094286Y-119910057D02*
X141141905Y-119862438D01*
X141141905Y-119862438D02*
X141237143Y-119814819D01*
X141237143Y-119814819D02*
X141475238Y-119814819D01*
X141475238Y-119814819D02*
X141570476Y-119862438D01*
X141570476Y-119862438D02*
X141618095Y-119910057D01*
X141618095Y-119910057D02*
X141665714Y-120005295D01*
X141665714Y-120005295D02*
X141665714Y-120100533D01*
X141665714Y-120100533D02*
X141618095Y-120243390D01*
X141618095Y-120243390D02*
X141046667Y-120814819D01*
X141046667Y-120814819D02*
X141665714Y-120814819D01*
X135113333Y-106199580D02*
X135065714Y-106247200D01*
X135065714Y-106247200D02*
X134922857Y-106294819D01*
X134922857Y-106294819D02*
X134827619Y-106294819D01*
X134827619Y-106294819D02*
X134684762Y-106247200D01*
X134684762Y-106247200D02*
X134589524Y-106151961D01*
X134589524Y-106151961D02*
X134541905Y-106056723D01*
X134541905Y-106056723D02*
X134494286Y-105866247D01*
X134494286Y-105866247D02*
X134494286Y-105723390D01*
X134494286Y-105723390D02*
X134541905Y-105532914D01*
X134541905Y-105532914D02*
X134589524Y-105437676D01*
X134589524Y-105437676D02*
X134684762Y-105342438D01*
X134684762Y-105342438D02*
X134827619Y-105294819D01*
X134827619Y-105294819D02*
X134922857Y-105294819D01*
X134922857Y-105294819D02*
X135065714Y-105342438D01*
X135065714Y-105342438D02*
X135113333Y-105390057D01*
X136065714Y-106294819D02*
X135494286Y-106294819D01*
X135780000Y-106294819D02*
X135780000Y-105294819D01*
X135780000Y-105294819D02*
X135684762Y-105437676D01*
X135684762Y-105437676D02*
X135589524Y-105532914D01*
X135589524Y-105532914D02*
X135494286Y-105580533D01*
D11*
%TO.C,U1*%
X131790000Y-118350000D02*
X142190000Y-118350000D01*
X142190000Y-118350000D02*
X142190000Y-108070000D01*
X131850000Y-115860000D02*
X142130000Y-115860000D01*
X142130000Y-115860000D02*
X142130000Y-110560000D01*
X131850000Y-114210000D02*
X131850000Y-115860000D01*
X131850000Y-110560000D02*
X131850000Y-112210000D01*
X142130000Y-110560000D02*
X131850000Y-110560000D01*
X131790000Y-108070000D02*
X131790000Y-118350000D01*
X142190000Y-108070000D02*
X131790000Y-108070000D01*
X131850000Y-112210000D02*
G75*
G02*
X131850000Y-114210000I0J-1000000D01*
G01*
%TO.C,R11*%
X151800000Y-97620000D02*
X151800000Y-97730000D01*
X154170000Y-97730000D02*
X149430000Y-97730000D01*
X149430000Y-97730000D02*
X149430000Y-109870000D01*
X154170000Y-109870000D02*
X154170000Y-97730000D01*
X149430000Y-109870000D02*
X154170000Y-109870000D01*
X151800000Y-109980000D02*
X151800000Y-109870000D01*
%TO.C,R10*%
X158600000Y-97620000D02*
X158600000Y-97730000D01*
X160970000Y-97730000D02*
X156230000Y-97730000D01*
X156230000Y-97730000D02*
X156230000Y-109870000D01*
X160970000Y-109870000D02*
X160970000Y-97730000D01*
X156230000Y-109870000D02*
X160970000Y-109870000D01*
X158600000Y-109980000D02*
X158600000Y-109870000D01*
%TO.C,R9*%
X144380000Y-100389564D02*
X144380000Y-98935436D01*
X146200000Y-100389564D02*
X146200000Y-98935436D01*
%TO.C,R8*%
X140690000Y-100389564D02*
X140690000Y-98935436D01*
X142510000Y-100389564D02*
X142510000Y-98935436D01*
%TO.C,R7*%
X157610436Y-85810000D02*
X159064564Y-85810000D01*
X157610436Y-87630000D02*
X159064564Y-87630000D01*
%TO.C,R6*%
X152610436Y-87630000D02*
X154064564Y-87630000D01*
X152610436Y-85810000D02*
X154064564Y-85810000D01*
%TO.C,R5*%
X142890000Y-110789564D02*
X142890000Y-109335436D01*
X144710000Y-110789564D02*
X144710000Y-109335436D01*
%TO.C,R4*%
X161290000Y-91109564D02*
X161290000Y-89655436D01*
X163110000Y-91109564D02*
X163110000Y-89655436D01*
%TO.C,Q3*%
X187080000Y-110601000D02*
X190570000Y-110601000D01*
X187080000Y-110601000D02*
X187080000Y-102360000D01*
X190570000Y-110601000D02*
X190570000Y-102360000D01*
X187080000Y-108080000D02*
X188150000Y-108080000D01*
X190250000Y-108080000D02*
X190570000Y-108080000D01*
X187080000Y-104880000D02*
X188150000Y-104880000D01*
X190250000Y-104880000D02*
X190570000Y-104880000D01*
X187080000Y-102360000D02*
X190570000Y-102360000D01*
%TO.C,Q2*%
X168320000Y-101959000D02*
X164830000Y-101959000D01*
X168320000Y-101959000D02*
X168320000Y-110200000D01*
X164830000Y-101959000D02*
X164830000Y-110200000D01*
X168320000Y-104480000D02*
X167250000Y-104480000D01*
X165150000Y-104480000D02*
X164830000Y-104480000D01*
X168320000Y-107680000D02*
X167250000Y-107680000D01*
X165150000Y-107680000D02*
X164830000Y-107680000D01*
X168320000Y-110200000D02*
X164830000Y-110200000D01*
%TO.C,Q1*%
X168320000Y-95440000D02*
X164830000Y-95440000D01*
X165150000Y-92920000D02*
X164830000Y-92920000D01*
X168320000Y-92920000D02*
X167250000Y-92920000D01*
X165150000Y-89720000D02*
X164830000Y-89720000D01*
X168320000Y-89720000D02*
X167250000Y-89720000D01*
X164830000Y-87199000D02*
X164830000Y-95440000D01*
X168320000Y-87199000D02*
X168320000Y-95440000D01*
X168320000Y-87199000D02*
X164830000Y-87199000D01*
%TO.C,Power*%
X125800000Y-94840000D02*
X125800000Y-86479000D01*
X124800000Y-94840000D02*
X124800000Y-86479000D01*
X121699000Y-94840000D02*
X121699000Y-86479000D01*
X119980000Y-94840000D02*
X119980000Y-86479000D01*
X126720000Y-94840000D02*
X126720000Y-86479000D01*
X119980000Y-94840000D02*
X126720000Y-94840000D01*
X119980000Y-86479000D02*
X126720000Y-86479000D01*
X125920000Y-95080000D02*
X126960000Y-95080000D01*
X126960000Y-95080000D02*
X126960000Y-94280000D01*
%TO.C,OUT*%
X192000000Y-93980000D02*
X192000000Y-88160000D01*
X191000000Y-93980000D02*
X191000000Y-88160000D01*
X187899000Y-93980000D02*
X187899000Y-88160000D01*
X186180000Y-93980000D02*
X186180000Y-88160000D01*
X192920000Y-93980000D02*
X192920000Y-88160000D01*
X186180000Y-93980000D02*
X192920000Y-93980000D01*
X186180000Y-88160000D02*
X192920000Y-88160000D01*
X192120000Y-94220000D02*
X193160000Y-94220000D01*
X193160000Y-94220000D02*
X193160000Y-93420000D01*
%TO.C,SIG*%
X125800000Y-102700000D02*
X125800000Y-96880000D01*
X124800000Y-102700000D02*
X124800000Y-96880000D01*
X121699000Y-102700000D02*
X121699000Y-96880000D01*
X119980000Y-102700000D02*
X119980000Y-96880000D01*
X126720000Y-102700000D02*
X126720000Y-96880000D01*
X119980000Y-102700000D02*
X126720000Y-102700000D01*
X119980000Y-96880000D02*
X126720000Y-96880000D01*
X125920000Y-102940000D02*
X126960000Y-102940000D01*
X126960000Y-102940000D02*
X126960000Y-102140000D01*
%TO.C,D7*%
X162190000Y-112000000D02*
X162190000Y-114000000D01*
X162190000Y-112000000D02*
X166050000Y-112000000D01*
X162190000Y-114000000D02*
X166050000Y-114000000D01*
%TO.C,D6*%
X166990000Y-112000000D02*
X166990000Y-114000000D01*
X166990000Y-112000000D02*
X170850000Y-112000000D01*
X166990000Y-114000000D02*
X170850000Y-114000000D01*
%TO.C,D5*%
X157000000Y-92730000D02*
X159000000Y-92730000D01*
X157000000Y-92730000D02*
X157000000Y-88720000D01*
X159000000Y-92730000D02*
X159000000Y-88720000D01*
%TO.C,D4*%
X129690000Y-94650000D02*
X135200000Y-94650000D01*
X129690000Y-91350000D02*
X135200000Y-91350000D01*
X129690000Y-91350000D02*
X129690000Y-94650000D01*
%TO.C,D3*%
X129690000Y-89650000D02*
X135200000Y-89650000D01*
X129690000Y-86350000D02*
X135200000Y-86350000D01*
X129690000Y-86350000D02*
X129690000Y-89650000D01*
%TO.C,D2*%
X132290000Y-102400000D02*
X136300000Y-102400000D01*
X132290000Y-100400000D02*
X136300000Y-100400000D01*
X132290000Y-100400000D02*
X132290000Y-102400000D01*
%TO.C,D1*%
X132290000Y-98450000D02*
X136300000Y-98450000D01*
X132290000Y-96450000D02*
X136300000Y-96450000D01*
X132290000Y-96450000D02*
X132290000Y-98450000D01*
%TO.C,C17*%
X140290000Y-103505000D02*
X140290000Y-105375000D01*
X140290000Y-105375000D02*
X144200000Y-105375000D01*
X144200000Y-103505000D02*
X140290000Y-103505000D01*
%TO.C,C16*%
X146160000Y-104212164D02*
X146160000Y-104427836D01*
X145440000Y-104212164D02*
X145440000Y-104427836D01*
%TO.C,C15*%
X144490000Y-93586252D02*
X144490000Y-92163748D01*
X146310000Y-93586252D02*
X146310000Y-92163748D01*
%TO.C,C14*%
X143012164Y-94840000D02*
X143227836Y-94840000D01*
X143012164Y-95560000D02*
X143227836Y-95560000D01*
%TO.C,C13*%
X150440000Y-89465000D02*
X150440000Y-91335000D01*
X150440000Y-91335000D02*
X154350000Y-91335000D01*
X154350000Y-89465000D02*
X150440000Y-89465000D01*
%TO.C,C12*%
X149140000Y-90587836D02*
X149140000Y-90372164D01*
X149860000Y-90587836D02*
X149860000Y-90372164D01*
%TO.C,C11*%
X142972164Y-85240000D02*
X143187836Y-85240000D01*
X142972164Y-85960000D02*
X143187836Y-85960000D01*
%TO.C,C10*%
X144490000Y-88586252D02*
X144490000Y-87163748D01*
X146310000Y-88586252D02*
X146310000Y-87163748D01*
%TO.C,C9*%
X162212164Y-86960000D02*
X162427836Y-86960000D01*
X162212164Y-87680000D02*
X162427836Y-87680000D01*
%TO.C,C8*%
X137877500Y-91490000D02*
X137877500Y-94510000D01*
X137877500Y-94510000D02*
X142087500Y-94510000D01*
X142087500Y-91490000D02*
X137877500Y-91490000D01*
%TO.C,C7*%
X142797500Y-89510000D02*
X142797500Y-86490000D01*
X142797500Y-86490000D02*
X138587500Y-86490000D01*
X138587500Y-89510000D02*
X142797500Y-89510000D01*
%TO.C,C2*%
X140987836Y-119560000D02*
X140772164Y-119560000D01*
X140987836Y-118840000D02*
X140772164Y-118840000D01*
%TO.C,C1*%
X135172164Y-106640000D02*
X135387836Y-106640000D01*
X135172164Y-107360000D02*
X135387836Y-107360000D01*
%TD*%
D12*
X133180000Y-117020000D03*
X135720000Y-117020000D03*
X138260000Y-117020000D03*
X140800000Y-117020000D03*
X140800000Y-109400000D03*
X138260000Y-109400000D03*
X135720000Y-109400000D03*
X133180000Y-109400000D03*
X151800000Y-96180000D03*
X151800000Y-111420000D03*
X158600000Y-96180000D03*
X158600000Y-111420000D03*
X189200000Y-108760000D03*
X189200000Y-106480000D03*
X189200000Y-104200000D03*
X166200000Y-103800000D03*
X166200000Y-106080000D03*
X166200000Y-108360000D03*
X166200000Y-93600000D03*
X166200000Y-91320000D03*
X166200000Y-89040000D03*
X123200000Y-93200000D03*
X123200000Y-90660000D03*
X123200000Y-88120000D03*
X189400000Y-92340000D03*
X189400000Y-89800000D03*
X123200000Y-101060000D03*
X123200000Y-98520000D03*
X186800000Y-118000000D03*
X187502944Y-116302944D03*
X187502944Y-119697056D03*
X189200000Y-115600000D03*
X189200000Y-118000000D03*
X189200000Y-120400000D03*
X190897056Y-116302944D03*
X190897056Y-119697056D03*
X191600000Y-118000000D03*
X186102944Y-80697056D03*
X186805888Y-79000000D03*
X186805888Y-82394112D03*
X188502944Y-78297056D03*
X188502944Y-80697056D03*
X188502944Y-83097056D03*
X190200000Y-79000000D03*
X190200000Y-82394112D03*
X190902944Y-80697056D03*
X120400000Y-117400000D03*
X121102944Y-115702944D03*
X121102944Y-119097056D03*
X122800000Y-115000000D03*
X122800000Y-117400000D03*
X122800000Y-119800000D03*
X124497056Y-115702944D03*
X124497056Y-119097056D03*
X125200000Y-117400000D03*
X125000000Y-81297056D03*
X124297056Y-82994112D03*
X124297056Y-79600000D03*
X122600000Y-83697056D03*
X122600000Y-81297056D03*
X122600000Y-78897056D03*
X120902944Y-82994112D03*
X120902944Y-79600000D03*
X120200000Y-81297056D03*
M02*
