M48
METRIC,TZ
T1C0.700
T2C0.800
T3C1.200
%
G90
G05
T1
X133230Y-75270
X134500Y-74000
X134500Y-76540
T2
X114840Y-70000
X115880Y-76500
X118000Y-83000
X120500Y-83000
X123500Y-76500
X125000Y-70000
X127000Y-81500
X129500Y-87500
X129880Y-66500
X132000Y-87500
X134620Y-81500
X137500Y-66500
X141750Y-66500
X144250Y-66500
T3
X108500Y-74000
X108500Y-76540
X145000Y-74000
X145000Y-76540
M30
