%TF.GenerationSoftware,KiCad,Pcbnew,8.0.3*%
%TF.CreationDate,2024-12-18T20:06:44+01:00*%
%TF.ProjectId,Oscillatore,4f736369-6c6c-4617-946f-72652e6b6963,rev?*%
%TF.SameCoordinates,Original*%
%TF.FileFunction,Copper,L2,Bot*%
%TF.FilePolarity,Positive*%
%FSLAX46Y46*%
G04 Gerber Fmt 4.6, Leading zero omitted, Abs format (unit mm)*
G04 Created by KiCad (PCBNEW 8.0.3) date 2024-12-18 20:06:44*
%MOMM*%
%LPD*%
G01*
G04 APERTURE LIST*
%TA.AperFunction,ComponentPad*%
%ADD10R,2.000000X2.000000*%
%TD*%
%TA.AperFunction,ComponentPad*%
%ADD11C,2.000000*%
%TD*%
%TA.AperFunction,ComponentPad*%
%ADD12C,1.600000*%
%TD*%
%TA.AperFunction,ComponentPad*%
%ADD13O,1.600000X1.600000*%
%TD*%
%TA.AperFunction,ComponentPad*%
%ADD14O,1.200000X1.600000*%
%TD*%
%TA.AperFunction,ComponentPad*%
%ADD15O,1.200000X1.200000*%
%TD*%
%TA.AperFunction,Conductor*%
%ADD16C,0.200000*%
%TD*%
%ADD17C,0.350000*%
G04 APERTURE END LIST*
D10*
%TO.P,INPUT,1,Pin_1*%
%TO.N,GND*%
X108500000Y-76540000D03*
D11*
%TO.P,INPUT,2,Pin_2*%
%TO.N,VCC*%
X108500000Y-74000000D03*
%TD*%
D12*
%TO.P,R3,1*%
%TO.N,Net-(C1-Pad1)*%
X115880000Y-76500000D03*
D13*
%TO.P,R3,2*%
%TO.N,Net-(Q1-B)*%
X123500000Y-76500000D03*
%TD*%
D12*
%TO.P,R2,1*%
%TO.N,VCC*%
X129880000Y-66500000D03*
D13*
%TO.P,R2,2*%
%TO.N,Net-(Q1-C)*%
X137500000Y-66500000D03*
%TD*%
D12*
%TO.P,R1,1*%
%TO.N,Net-(Q1-E)*%
X134620000Y-81500000D03*
D13*
%TO.P,R1,2*%
%TO.N,GND*%
X127000000Y-81500000D03*
%TD*%
D14*
%TO.P,Q1,1,C*%
%TO.N,Net-(Q1-C)*%
X134500000Y-74000000D03*
D15*
%TO.P,Q1,2,B*%
%TO.N,Net-(Q1-B)*%
X133230000Y-75270000D03*
%TO.P,Q1,3,E*%
%TO.N,Net-(Q1-E)*%
X134500000Y-76540000D03*
%TD*%
D12*
%TO.P,L1,1,1*%
%TO.N,Net-(C1-Pad1)*%
X114840000Y-70000000D03*
D13*
%TO.P,L1,2,2*%
%TO.N,Net-(Q1-C)*%
X125000000Y-70000000D03*
%TD*%
D10*
%TO.P,OUTPUT,1,Pin_1*%
%TO.N,Net-(J1-Pin_1)*%
X145000000Y-74000000D03*
D11*
%TO.P,OUTPUT,2,Pin_2*%
%TO.N,GND*%
X145000000Y-76540000D03*
%TD*%
D12*
%TO.P,C3,2*%
%TO.N,Net-(J1-Pin_1)*%
X144250000Y-66500000D03*
%TO.P,C3,1*%
%TO.N,Net-(Q1-C)*%
X141750000Y-66500000D03*
%TD*%
%TO.P,C2,1*%
%TO.N,Net-(Q1-E)*%
X132000000Y-87500000D03*
%TO.P,C2,2*%
%TO.N,GND*%
X129500000Y-87500000D03*
%TD*%
%TO.P,C1,1*%
%TO.N,Net-(C1-Pad1)*%
X118000000Y-83000000D03*
%TO.P,C1,2*%
%TO.N,GND*%
X120500000Y-83000000D03*
%TD*%
D16*
%TO.N,GND*%
X132500000Y-84500000D02*
X129500000Y-87500000D01*
X145000000Y-76914213D02*
X137414213Y-84500000D01*
X137414213Y-84500000D02*
X132500000Y-84500000D01*
X108500000Y-76540000D02*
X112460000Y-80500000D01*
X112460000Y-80500000D02*
X118000000Y-80500000D01*
X118000000Y-80500000D02*
X120500000Y-83000000D01*
%TD*%
D17*
X108500000Y-76540000D03*
X108500000Y-74000000D03*
X115880000Y-76500000D03*
X123500000Y-76500000D03*
X129880000Y-66500000D03*
X137500000Y-66500000D03*
X134620000Y-81500000D03*
X127000000Y-81500000D03*
X134500000Y-74000000D03*
X133230000Y-75270000D03*
X134500000Y-76540000D03*
X114840000Y-70000000D03*
X125000000Y-70000000D03*
X145000000Y-74000000D03*
X145000000Y-76540000D03*
X144250000Y-66500000D03*
X141750000Y-66500000D03*
X132000000Y-87500000D03*
X129500000Y-87500000D03*
X118000000Y-83000000D03*
X120500000Y-83000000D03*
M02*
