M48
; DRILL file {KiCad 8.0.8} date 2025-01-31T21:35:33+0100
; FORMAT={-:-/ absolute / metric / decimal}
; #@! TF.CreationDate,2025-01-31T21:35:33+01:00
; #@! TF.GenerationSoftware,Kicad,Pcbnew,8.0.8
; #@! TF.FileFunction,Plated,1,2,PTH
FMAT,2
METRIC
; #@! TA.AperFunction,Plated,PTH,ViaDrill
T1C0.300
; #@! TA.AperFunction,Plated,PTH,ComponentDrill
T2C0.500
; #@! TA.AperFunction,Plated,PTH,ComponentDrill
T3C0.800
; #@! TA.AperFunction,Plated,PTH,ComponentDrill
T4C1.000
; #@! TA.AperFunction,Plated,PTH,ComponentDrill
T5C1.200
; #@! TA.AperFunction,Plated,PTH,ComponentDrill
T6C3.200
%
G90
G05
T1
X125.4Y-107.6
X128.6Y-95.8
X133.0Y-99.4
X135.4Y-82.4
X136.8Y-104.0
X137.2Y-89.0
X137.2Y-93.0
X138.2Y-102.6
X138.2Y-112.6
X139.8Y-96.8
X142.4Y-90.4
X146.0Y-78.4
X147.138Y-107.338
X147.8Y-96.4
X148.0Y-116.2
X149.8Y-85.2
X149.8Y-93.2
X154.8Y-81.6
X155.6Y-110.6
X156.0Y-85.2
X159.6Y-116.4
X163.2Y-99.6
X166.8Y-115.0
X169.8Y-120.0
X170.0Y-81.2
X172.6Y-103.0
X177.4Y-110.6
X182.8Y-90.2
X189.2Y-97.6
T2
X120.2Y-81.297
X120.4Y-117.4
X120.903Y-79.6
X120.903Y-82.994
X121.103Y-115.703
X121.103Y-119.097
X122.6Y-78.897
X122.6Y-83.697
X122.8Y-115.0
X122.8Y-119.8
X124.297Y-79.6
X124.297Y-82.994
X124.497Y-115.703
X124.497Y-119.097
X125.0Y-81.297
X125.2Y-117.4
X186.103Y-80.697
X186.8Y-118.0
X186.806Y-79.0
X186.806Y-82.394
X187.503Y-116.303
X187.503Y-119.697
X188.503Y-78.297
X188.503Y-83.097
X189.2Y-115.6
X189.2Y-120.4
X190.2Y-79.0
X190.2Y-82.394
X190.897Y-116.303
X190.897Y-119.697
X190.903Y-80.697
X191.6Y-118.0
T3
X133.18Y-109.4
X133.18Y-117.02
X135.72Y-109.4
X135.72Y-117.02
X138.26Y-109.4
X138.26Y-117.02
X140.8Y-109.4
X140.8Y-117.02
T4
X166.2Y-89.04
X166.2Y-91.32
X166.2Y-93.6
X166.2Y-103.8
X166.2Y-106.08
X166.2Y-108.36
X189.2Y-104.2
X189.2Y-106.48
X189.2Y-108.76
T5
X123.2Y-88.12
X123.2Y-90.66
X123.2Y-93.2
X123.2Y-98.52
X123.2Y-101.06
X151.8Y-96.18
X151.8Y-111.42
X158.6Y-96.18
X158.6Y-111.42
X189.4Y-89.8
X189.4Y-92.34
T6
X122.6Y-81.297
X122.8Y-117.4
X188.503Y-80.697
X189.2Y-118.0
M30
